<svg width="13" height="13" viewBox="0 0 13 13" fill="none" xmlns="http://www.w3.org/2000/svg">
<path d="M9 3.5C9 2.55719 9 2.08579 8.70711 1.79289C8.41421 1.5 7.94281 1.5 7 1.5H6C5.05719 1.5 4.58579 1.5 4.29289 1.79289C4 2.08579 4 2.55719 4 3.5" stroke="#58A545"/>
<path d="M6.07297 6.01126C6.26297 5.67042 6.35797 5.5 6.5 5.5C6.64203 5.5 6.73703 5.67042 6.92703 6.01126L6.97618 6.09943C7.03017 6.19629 7.05717 6.24472 7.09926 6.27667C7.14135 6.30862 7.19377 6.32049 7.29862 6.34421L7.39407 6.3658C7.76302 6.44928 7.9475 6.49102 7.99139 6.63216C8.03528 6.7733 7.90951 6.92036 7.65799 7.21449L7.59291 7.29058C7.52144 7.37417 7.4857 7.41596 7.46962 7.46766C7.45354 7.51936 7.45895 7.57512 7.46975 7.68663L7.47959 7.78816C7.51762 8.18059 7.53663 8.37681 7.42173 8.46403C7.30682 8.55126 7.1341 8.47173 6.78865 8.31268L6.69928 8.27153C6.60111 8.22633 6.55203 8.20373 6.5 8.20373C6.44797 8.20373 6.39889 8.22633 6.30072 8.27153L6.21135 8.31268C5.8659 8.47173 5.69318 8.55126 5.57827 8.46403C5.46337 8.37681 5.48238 8.18059 5.52041 7.78816L5.53025 7.68663C5.54105 7.57512 5.54646 7.51936 5.53038 7.46766C5.5143 7.41596 5.47856 7.37417 5.40709 7.29058L5.34201 7.21449C5.09049 6.92036 4.96472 6.7733 5.00861 6.63216C5.0525 6.49102 5.23698 6.44928 5.60593 6.3658L5.70138 6.34421C5.80623 6.32049 5.85865 6.30862 5.90074 6.27667C5.94283 6.24472 5.96983 6.19629 6.02382 6.09944L6.07297 6.01126Z" stroke="#58A545"/>
<path d="M7.5 3.5H5.5C4.08579 3.5 3.37868 3.5 2.93934 3.93934C2.5 4.37868 2.5 5.08579 2.5 6.5V7.02786C2.5 8.23068 2.5 8.83209 2.7987 9.3154C3.0974 9.7987 3.63531 10.0677 4.71115 10.6056C5.58896 11.0445 6.02786 11.2639 6.5 11.2639C6.97214 11.2639 7.41104 11.0445 8.28885 10.6056C9.36469 10.0677 9.9026 9.7987 10.2013 9.3154C10.5 8.83209 10.5 8.23068 10.5 7.02786V6.5C10.5 5.08579 10.5 4.37868 10.0607 3.93934C9.62132 3.5 8.91421 3.5 7.5 3.5Z" stroke="#58A545"/>
</svg>
