<svg width="18" height="18" viewBox="0 0 18 18" fill="none" xmlns="http://www.w3.org/2000/svg">
<path d="M12.75 4.5C12.75 3.08579 12.75 2.37868 12.3107 1.93934C11.8713 1.5 11.1642 1.5 9.75 1.5H8.25C6.83579 1.5 6.12868 1.5 5.68934 1.93934C5.25 2.37868 5.25 3.08579 5.25 4.5" stroke="#092839" stroke-width="1.5"/>
<path d="M8.35946 8.26688C8.64446 7.75563 8.78696 7.5 9 7.5C9.21304 7.5 9.35554 7.75563 9.64054 8.26688L9.71427 8.39915C9.79526 8.54444 9.83575 8.61708 9.89889 8.66501C9.96203 8.71294 10.0407 8.73073 10.1979 8.76631L10.3411 8.79871C10.8945 8.92392 11.1712 8.98653 11.2371 9.19824C11.3029 9.40994 11.1143 9.63054 10.737 10.0717L10.6394 10.1859C10.5322 10.3112 10.4785 10.3739 10.4544 10.4515C10.4303 10.529 10.4384 10.6127 10.4546 10.7799L10.4694 10.9322C10.5264 11.5209 10.5549 11.8152 10.3826 11.946C10.2102 12.0769 9.95115 11.9576 9.43297 11.719L9.29892 11.6573C9.15167 11.5895 9.07804 11.5556 9 11.5556C8.92196 11.5556 8.84833 11.5895 8.70108 11.6573L8.56703 11.719C8.04885 11.9576 7.78976 12.0769 7.61741 11.946C7.44505 11.8152 7.47357 11.5209 7.53061 10.9322L7.54537 10.78C7.56158 10.6127 7.56969 10.529 7.54557 10.4515C7.52145 10.3739 7.46785 10.3112 7.36063 10.1859L7.26302 10.0717C6.88573 9.63054 6.69709 9.40994 6.76292 9.19824C6.82875 8.98653 7.10547 8.92392 7.6589 8.79871L7.80207 8.76631C7.95934 8.73073 8.03797 8.71294 8.10111 8.66501C8.16425 8.61708 8.20474 8.54444 8.28573 8.39915L8.35946 8.26688Z" stroke="#092839" stroke-width="1.5"/>
<path d="M10.5 4.5H7.5C5.37868 4.5 4.31802 4.5 3.65901 5.15901C3 5.81802 3 6.87868 3 9V9.7918C3 11.596 3 12.4981 3.44805 13.2231C3.8961 13.948 4.70297 14.3515 6.31672 15.1584C7.63343 15.8167 8.2918 16.1459 9 16.1459C9.7082 16.1459 10.3666 15.8167 11.6833 15.1584C13.297 14.3515 14.1039 13.948 14.552 13.2231C15 12.4981 15 11.596 15 9.7918V9C15 6.87868 15 5.81802 14.341 5.15901C13.682 4.5 12.6213 4.5 10.5 4.5Z" stroke="#092839" stroke-width="1.5"/>
</svg>
