<svg width="13" height="13" viewBox="0 0 13 13" fill="none" xmlns="http://www.w3.org/2000/svg">
<path fill-rule="evenodd" clip-rule="evenodd" d="M6.50016 1.08325C3.50862 1.08325 1.0835 3.50838 1.0835 6.49992C1.0835 9.49146 3.50862 11.9166 6.50016 11.9166C9.4917 11.9166 11.9168 9.49146 11.9168 6.49992C11.9168 5.06333 11.3461 3.68558 10.3303 2.66976C9.3145 1.65393 7.93675 1.08325 6.50016 1.08325ZM7.04183 8.66658C7.04183 8.96574 6.79932 9.20825 6.50016 9.20825C6.20101 9.20825 5.9585 8.96574 5.9585 8.66658V5.95825C5.9585 5.6591 6.20101 5.41658 6.50016 5.41658C6.79932 5.41658 7.04183 5.6591 7.04183 5.95825V8.66658ZM5.9585 4.33325C5.9585 4.63241 6.20101 4.87492 6.50016 4.87492C6.79932 4.87492 7.04183 4.63241 7.04183 4.33325C7.04183 4.0341 6.79932 3.79158 6.50016 3.79158C6.20101 3.79158 5.9585 4.0341 5.9585 4.33325Z" fill="#50AEE2"/>
</svg>
