<svg width="3200" height="2560" viewBox="0 0 3200 2560" fill="none" xmlns="http://www.w3.org/2000/svg">
<g clip-path="url(#clip0_36_3818)">
<path d="M332.973 749.2C508.177 469.96 792.931 301.014 1085.96 230.947C1573.36 114.414 2973.69 119.467 2982.59 1117.09C2984.81 1365.98 2845.27 1624.44 2634.29 1679.16C2440.97 1729.31 2246.08 1608.45 2048.04 1599.93C1635.95 1582.22 1329.58 2018.37 975.775 2195.57C791.029 2288.1 566.6 2315.3 394.299 2195.11C16.6094 1931.64 78.9292 1154.09 332.973 749.2Z" fill="#EFF4FD"/>
<path fill-rule="evenodd" clip-rule="evenodd" d="M698.539 2053.7H400.749V2361.57H698.539V2053.7Z" fill="#E18B5C"/>
<path d="M464.269 2208.48H484.123V2273.76H509.844V2208.48H529.697L496.984 2167.73L464.269 2208.48Z" fill="white"/>
<path d="M563.677 2208.48H583.531V2273.76H609.251V2208.48H629.104L596.391 2167.73L563.677 2208.48Z" fill="white"/>
<path fill-rule="evenodd" clip-rule="evenodd" d="M634.649 2286.37H458.725V2289.73H634.649V2286.37Z" fill="white"/>
<path fill-rule="evenodd" clip-rule="evenodd" d="M634.649 2296.37H458.725V2299.73H634.649V2296.37Z" fill="white"/>
<path fill-rule="evenodd" clip-rule="evenodd" d="M634.649 2306.37H458.725V2309.73H634.649V2306.37Z" fill="white"/>
<path fill-rule="evenodd" clip-rule="evenodd" d="M852.301 2053.72H698.537V2361.6H852.301V2053.72Z" fill="#C56E4F"/>
<path d="M776.341 2207.04L742.984 2140.81C731.812 2118.78 720.52 2096.82 709.129 2074.93C719.835 2097.28 730.639 2119.57 741.563 2141.77L774.495 2208.28L807.855 2274.51C819.027 2296.54 830.321 2318.5 841.708 2340.39C830.999 2318.04 820.196 2295.76 809.271 2273.55L776.341 2207.04Z" fill="#B35434"/>
<path d="M774.495 2207.04L741.563 2273.55C730.639 2295.75 719.835 2318.04 709.129 2340.39C720.52 2318.5 731.812 2296.55 742.984 2274.51L776.341 2208.28L809.271 2141.77C820.196 2119.57 830.999 2097.28 841.708 2074.93C830.321 2096.82 819.027 2118.78 807.855 2140.82L774.495 2207.04Z" fill="#B35434"/>
<path d="M698.5 2053.72L747.931 2120.32H901.241L851.812 2053.72H698.5Z" fill="#B66245"/>
<path fill-rule="evenodd" clip-rule="evenodd" d="M1122.56 1936.32H742.668V2361.01H1122.56V1936.32Z" fill="#E18B5C"/>
<path d="M823.701 2149.83H849.028V2239.88H881.84V2149.83H907.168L865.435 2093.62L823.701 2149.83Z" fill="white"/>
<path d="M950.516 2149.83H975.844V2239.88H1008.66V2149.83H1033.98L992.249 2093.62L950.516 2149.83Z" fill="white"/>
<path fill-rule="evenodd" clip-rule="evenodd" d="M1041.06 2257.27H816.628V2261.9H1041.06V2257.27Z" fill="white"/>
<path fill-rule="evenodd" clip-rule="evenodd" d="M1041.06 2271.07H816.628V2275.7H1041.06V2271.07Z" fill="white"/>
<path fill-rule="evenodd" clip-rule="evenodd" d="M1041.06 2284.87H816.628V2289.5H1041.06V2284.87Z" fill="white"/>
<path fill-rule="evenodd" clip-rule="evenodd" d="M1318.72 1936.35H1122.56V2361.05H1318.72V1936.35Z" fill="#C56E4F"/>
<path d="M1221.81 2147.84L1179.26 2056.49C1165.01 2026.09 1150.6 1995.8 1136.07 1965.61C1149.73 1996.44 1163.51 2027.18 1177.45 2057.81L1219.46 2149.56L1262.02 2240.9C1276.27 2271.31 1290.68 2301.59 1305.2 2331.79C1291.54 2300.96 1277.76 2270.22 1263.82 2239.59L1221.81 2147.84Z" fill="#B35434"/>
<path d="M1219.46 2147.84L1177.45 2239.58C1163.51 2270.21 1149.73 2300.96 1136.07 2331.79C1150.6 2301.59 1165.01 2271.31 1179.26 2240.91L1221.81 2149.56L1263.82 2057.81C1277.76 2027.18 1291.54 1996.43 1305.2 1965.61C1290.68 1995.81 1276.27 2026.09 1262.02 2056.49L1219.46 2147.84Z" fill="#B35434"/>
<path fill-rule="evenodd" clip-rule="evenodd" d="M1056.37 1512.49H676.475V1937.17H1056.37V1512.49Z" fill="#E18B5C"/>
<path d="M757.507 1725.99H782.835V1816.04H815.647V1725.99H840.973L799.24 1669.78L757.507 1725.99Z" fill="white"/>
<path d="M884.323 1725.99H909.649V1816.04H942.461V1725.99H967.788L926.055 1669.78L884.323 1725.99Z" fill="white"/>
<path fill-rule="evenodd" clip-rule="evenodd" d="M974.861 1833.43H750.433V1838.07H974.861V1833.43Z" fill="white"/>
<path fill-rule="evenodd" clip-rule="evenodd" d="M974.861 1847.23H750.433V1851.86H974.861V1847.23Z" fill="white"/>
<path fill-rule="evenodd" clip-rule="evenodd" d="M974.861 1861.03H750.433V1865.66H974.861V1861.03Z" fill="white"/>
<path fill-rule="evenodd" clip-rule="evenodd" d="M1252.52 1512.51H1056.36V1937.21H1252.52V1512.51Z" fill="#C56E4F"/>
<path d="M1155.62 1724L1113.07 1632.65C1098.81 1602.25 1084.41 1571.96 1069.88 1541.77C1083.53 1572.6 1097.32 1603.34 1111.25 1633.97L1153.26 1725.72L1195.82 1817.07C1210.07 1847.47 1224.48 1877.75 1239.01 1907.95C1225.35 1877.12 1211.57 1846.38 1197.63 1815.75L1155.62 1724Z" fill="#B35434"/>
<path d="M1153.26 1724L1111.25 1815.75C1097.32 1846.38 1083.53 1877.12 1069.88 1907.95C1084.41 1877.76 1098.81 1847.47 1113.07 1817.07L1155.62 1725.72L1197.63 1633.97C1211.57 1603.34 1225.35 1572.6 1239.01 1541.77C1224.48 1571.97 1210.07 1602.25 1195.82 1632.65L1153.26 1724Z" fill="#B35434"/>
<path fill-rule="evenodd" clip-rule="evenodd" d="M1004.29 1233.17H751.821V1515.41H1004.29V1233.17Z" fill="#E18B5C"/>
<path d="M805.673 1375.07H822.505V1434.91H844.311V1375.07H861.143L833.408 1337.71L805.673 1375.07Z" fill="white"/>
<path d="M889.952 1375.07H906.784V1434.91H928.589V1375.07H945.421L917.687 1337.71L889.952 1375.07Z" fill="white"/>
<path fill-rule="evenodd" clip-rule="evenodd" d="M950.121 1446.47H800.972V1449.55H950.121V1446.47Z" fill="white"/>
<path fill-rule="evenodd" clip-rule="evenodd" d="M950.121 1455.64H800.972V1458.71H950.121V1455.64Z" fill="white"/>
<path fill-rule="evenodd" clip-rule="evenodd" d="M950.121 1464.8H800.972V1467.88H950.121V1464.8Z" fill="white"/>
<path fill-rule="evenodd" clip-rule="evenodd" d="M1134.65 1233.19H1004.29V1515.43H1134.65V1233.19Z" fill="#C56E4F"/>
<path d="M1070.25 1373.74L1041.97 1313.03C1032.5 1292.83 1022.92 1272.7 1013.27 1252.63C1022.34 1273.12 1031.5 1293.55 1040.76 1313.91L1068.68 1374.88L1096.97 1435.59C1106.44 1455.79 1116.01 1475.92 1125.67 1495.99C1116.59 1475.5 1107.43 1455.07 1098.17 1434.71L1070.25 1373.74Z" fill="#B35434"/>
<path d="M1068.68 1373.74L1040.76 1434.71C1031.5 1455.07 1022.34 1475.5 1013.27 1495.99C1022.92 1475.92 1032.5 1455.79 1041.97 1435.59L1070.25 1374.88L1098.17 1313.91C1107.43 1293.55 1116.59 1273.12 1125.67 1252.63C1116.01 1272.7 1106.44 1292.83 1096.97 1313.03L1068.68 1373.74Z" fill="#B35434"/>
<path fill-rule="evenodd" clip-rule="evenodd" d="M880.831 577.067C929.977 577.067 969.88 616.974 969.88 666.12C969.88 715.267 929.977 755.16 880.831 755.16C831.683 755.16 791.781 715.267 791.781 666.12C791.781 616.974 831.683 577.067 880.831 577.067Z" fill="white"/>
<path fill-rule="evenodd" clip-rule="evenodd" d="M888.051 321.52H872.297V539.427H888.051V321.52Z" fill="#A5C3F9"/>
<path fill-rule="evenodd" clip-rule="evenodd" d="M717.657 676.84C722.537 591 793.783 522.8 880.831 522.8C967.877 522.8 1039.12 591 1044 676.84H717.657Z" fill="#CBDDFD"/>
<path fill-rule="evenodd" clip-rule="evenodd" d="M864.639 523.6C869.959 523.08 875.364 522.8 880.831 522.8C967.877 522.8 1039.12 591 1044 676.84H1011.62C1007.05 596.387 944.183 531.44 864.639 523.6Z" fill="#A5C3F9"/>
<path fill-rule="evenodd" clip-rule="evenodd" d="M1618.67 481.96C1677.09 481.96 1724.52 529.4 1724.52 587.827C1724.52 646.254 1677.09 693.68 1618.67 693.68C1560.24 693.68 1512.8 646.254 1512.8 587.827C1512.8 529.4 1560.24 481.96 1618.67 481.96Z" fill="white"/>
<path fill-rule="evenodd" clip-rule="evenodd" d="M1627.25 178.16H1608.52V437.227H1627.25V178.16Z" fill="#A5C3F9"/>
<path fill-rule="evenodd" clip-rule="evenodd" d="M1424.69 600.573C1430.49 498.533 1515.19 417.453 1618.67 417.453C1722.15 417.453 1806.84 498.533 1812.64 600.573H1424.69Z" fill="#CBDDFD"/>
<path fill-rule="evenodd" clip-rule="evenodd" d="M1599.41 418.4C1605.75 417.773 1612.16 417.453 1618.67 417.453C1722.15 417.453 1806.84 498.533 1812.64 600.573H1774.15C1768.71 504.933 1693.97 427.72 1599.41 418.4Z" fill="#A5C3F9"/>
<path fill-rule="evenodd" clip-rule="evenodd" d="M2322.16 532.853C2379.88 532.853 2426.73 579.707 2426.73 637.427C2426.73 695.133 2379.88 742 2322.16 742C2264.44 742 2217.59 695.133 2217.59 637.427C2217.59 579.707 2264.44 532.853 2322.16 532.853Z" fill="white"/>
<path fill-rule="evenodd" clip-rule="evenodd" d="M2330.64 232.747H2312.15V488.653H2330.64V232.747Z" fill="#A5C3F9"/>
<path fill-rule="evenodd" clip-rule="evenodd" d="M2130.55 650.013C2136.27 549.213 2219.93 469.12 2322.16 469.12C2424.39 469.12 2508.05 549.213 2513.79 650.013H2130.55Z" fill="#CBDDFD"/>
<path fill-rule="evenodd" clip-rule="evenodd" d="M2303.15 470.054C2309.4 469.44 2315.75 469.12 2322.16 469.12C2424.39 469.12 2508.05 549.213 2513.79 650.013H2475.75C2470.39 555.547 2396.56 479.267 2303.15 470.054Z" fill="#A5C3F9"/>
<path fill-rule="evenodd" clip-rule="evenodd" d="M3109 2362.95H137.245V2381.83H3109V2362.95Z" fill="#222D42"/>
<path d="M2277.4 931.147C2277.4 931.147 2281.21 800.28 2413.79 854.48C2413.79 854.48 2331.87 938.44 2277.4 931.147Z" fill="#59445A"/>
<path d="M2436.99 978.613C2425.99 1033.53 2380.48 1070.72 2335.33 1061.68C2290.19 1052.64 2262.49 1000.79 2273.49 945.867C2284.49 890.947 2330.01 853.747 2375.16 862.787C2420.31 871.827 2447.99 923.68 2436.99 978.613Z" fill="#F4D2C6"/>
<mask id="mask0_36_3818" style="mask-type:luminance" maskUnits="userSpaceOnUse" x="2271" y="861" width="169" height="203">
<path d="M2273.49 945.867C2262.49 1000.79 2290.19 1052.64 2335.33 1061.68C2380.48 1070.72 2425.99 1033.53 2436.99 978.613C2447.99 923.68 2420.31 871.827 2375.16 862.787C2370.6 861.88 2366.04 861.44 2361.52 861.44C2321.17 861.44 2283.39 896.493 2273.49 945.867Z" fill="white"/>
</mask>
<g mask="url(#mask0_36_3818)">
<path d="M2277.4 931.147C2277.4 931.147 2323.72 955.587 2378.37 944.414L2389.77 958.28L2397.68 927.854L2282.69 898.36L2277.4 931.147Z" fill="#EDA19D"/>
</g>
<path d="M2438.12 972.013C2438.12 972.013 2399.37 1123.96 2406.45 1172.71C2406.45 1172.71 2352.48 1177.93 2305.44 1152.48C2305.44 1152.48 2363.31 1027.72 2363.16 996.4L2438.12 972.013Z" fill="#F4D2C6"/>
<path d="M2286.59 910.333C2286.59 910.333 2322.33 925.374 2383.48 931.454C2383.48 931.454 2394.65 954.293 2387.25 974.307C2372.8 1013.39 2425.93 1024.03 2425.93 1024.03C2425.93 1024.03 2476.53 946.987 2466.43 904.467C2459.56 875.587 2428.09 859.08 2399.97 849.054C2378.71 841.48 2341.41 840.56 2323.16 853.867C2312.09 861.947 2293.96 884.707 2286.59 910.333Z" fill="#222222"/>
<path d="M2412.21 979.56C2410.24 989.453 2400.6 995.88 2390.71 993.893C2380.81 991.907 2374.4 982.28 2376.37 972.387C2378.36 962.48 2387.99 956.067 2397.88 958.053C2407.79 960.04 2414.2 969.667 2412.21 979.56Z" fill="#F4D2C6"/>
<path d="M2304.57 857.2L2444.68 996C2444.68 996 2522.39 931.747 2451.47 861.347C2364.35 774.88 2304.57 857.2 2304.57 857.2Z" fill="#4292F3"/>
<path d="M2376.28 928.24L2292.25 923.267C2266.84 921.76 2243.13 909.96 2226.6 890.6L2196.76 855.64L2304.57 857.2L2376.28 928.24Z" fill="#324D90"/>
<path d="M2451.45 866.014C2449.25 868.694 2442.07 866.427 2435.39 860.947C2428.72 855.48 2425.08 848.88 2427.28 846.2C2429.47 843.534 2436.65 845.8 2443.33 851.267C2450.01 856.747 2453.64 863.347 2451.45 866.014Z" fill="#324D90"/>
<path d="M2052.99 2285.62L2040.72 2308.49L1945.35 2325.88C1933.99 2327.95 1925.6 2335.57 1924.04 2345.25L2110.27 2375.43L2115.92 2295.82L2052.99 2285.62Z" fill="#152E60"/>
<path d="M2533.35 2233.15L2538.43 2258.6L2475.92 2332.69C2468.47 2341.52 2466.85 2352.73 2471.8 2361.2L2634.68 2266L2588.4 2200.98L2533.35 2233.15Z" fill="#152E60"/>
<path d="M2344.71 1060.67C2344.71 1060.67 2358.79 1063.28 2380.28 1051.92C2380.28 1051.92 2369.56 1084.63 2336.93 1080.09L2344.71 1060.67Z" fill="#EDA19D"/>
<path fill-rule="evenodd" clip-rule="evenodd" d="M2302.13 1372.46L2389.69 1372.37V1519.94L2302.13 1520.03V1372.46Z" fill="#E8AE87"/>
<path d="M2389.23 1128.53L2361.97 1134.68L2334.55 1140.75C2316.25 1144.73 2297.96 1148.76 2279.67 1152.57C2261.37 1156.43 2243.08 1160.08 2224.87 1163.67C2206.67 1167.21 2188.47 1170.56 2170.68 1173.36C2166.23 1174.05 2161.84 1174.69 2157.49 1175.29C2153.17 1175.89 2148.89 1176.43 2144.84 1176.85C2140.84 1177.28 2136.88 1177.59 2134.13 1177.72C2133.39 1177.76 2132.99 1177.77 2132.49 1177.83C2132.47 1177.85 2132.72 1177.92 2132.71 1177.97C2132.6 1177.97 2132.57 1178.03 2132.39 1178.03C2131.69 1178.05 2130.16 1177.83 2128.56 1177.51C2126.93 1177.2 2125.09 1176.77 2123.19 1176.28C2121.29 1175.81 2119.29 1175.25 2117.29 1174.68C2113.25 1173.52 2109.08 1172.2 2104.87 1170.83C2096.43 1168.05 2087.83 1164.99 2079.2 1161.81C2061.96 1155.43 2044.53 1148.73 2027.19 1141.76L2001.15 1131.25L1975.21 1120.57L1974.88 1120.44C1961.87 1115.09 1946.97 1121.28 1941.61 1134.28C1936.79 1146 1941.36 1159.24 1951.83 1165.65L1964.11 1173.2L1976.39 1180.6C1984.59 1185.51 1992.81 1190.39 2001.11 1195.16C2009.39 1199.96 2017.72 1204.71 2026.12 1209.41C2034.52 1214.11 2042.97 1218.79 2051.57 1223.31C2060.19 1227.84 2068.89 1232.32 2077.93 1236.69C2082.45 1238.87 2087.05 1241.02 2091.87 1243.14C2094.29 1244.2 2096.72 1245.25 2099.31 1246.29C2101.87 1247.32 2104.52 1248.35 2107.43 1249.37C2110.35 1250.38 2113.39 1251.38 2117.31 1252.34C2118.28 1252.58 2119.41 1252.82 2120.48 1253.04C2121.63 1253.27 2123.04 1253.5 2124.2 1253.67C2126.05 1253.93 2128 1254.18 2129.6 1254.33C2136.28 1255.01 2141.77 1255.23 2147.2 1255.38C2152.59 1255.52 2157.75 1255.54 2162.83 1255.51C2167.92 1255.47 2172.93 1255.38 2177.88 1255.25C2197.69 1254.7 2217 1253.64 2236.25 1252.41C2255.51 1251.2 2274.6 1249.61 2293.67 1248C2312.73 1246.34 2331.76 1244.65 2350.75 1242.71L2379.24 1239.76L2393.49 1238.22L2407.85 1236.57C2438.01 1233.13 2459.65 1205.91 2456.2 1175.79C2452.76 1145.67 2425.51 1124.04 2395.36 1127.48C2393.39 1127.71 2391.45 1128.04 2389.56 1128.45L2389.23 1128.53Z" fill="#FFC9B5"/>
<path d="M1842.17 1064.03C1856.89 1069.07 1878.47 1082.32 1907.01 1086.45C1911.39 1087.08 1918.2 1085.35 1917.17 1082.75C1915.15 1077.6 1909.71 1074.53 1906.59 1069.99C1902.08 1063.41 1897.89 1047.61 1905.37 1042.08C1909.49 1039.03 1911.79 1042.09 1913.92 1046.65C1923.77 1067.68 1932.73 1068.57 1944.12 1079.69C1949.71 1085.15 1946.12 1084.87 1958.65 1102.25C1961.01 1105.51 1963.04 1110.44 1966.27 1112.72C1968.05 1113.97 1978.73 1122.01 1983.15 1124.09C1976.72 1146.77 1955.61 1168 1955.61 1168C1948.48 1164.33 1946.36 1160.19 1937.08 1160.33C1929.65 1160.44 1927.92 1161.6 1920.49 1160.73C1910.25 1159.53 1890.63 1155.95 1871.96 1146C1862.44 1140.93 1866.03 1128.81 1876.11 1133.21C1878.45 1134.24 1880.61 1135.07 1882.65 1135.47C1880.97 1134.91 1877.07 1133.17 1858.96 1123.63C1851.85 1119.89 1853.76 1106.57 1863.85 1111.11C1869.13 1113.47 1873.64 1114.87 1878.45 1116.01C1874.55 1115.17 1859.79 1108.84 1848.28 1102.43C1839.05 1097.29 1842.84 1082.57 1851.37 1086.39C1859.77 1090.15 1867.88 1093.23 1877.89 1095.6C1877.89 1095.59 1877.89 1095.57 1877.89 1095.56C1873.57 1094.56 1854.33 1087.76 1838.27 1079.52C1830.96 1075.77 1831.69 1060.44 1842.17 1064.03Z" fill="#FFC9B5"/>
<path d="M2320.35 1925.47C2342 1972.65 2431.05 2125.69 2511.63 2257.89C2549.75 2244.29 2584.25 2232.45 2621.24 2206.47C2618.49 2200.28 2615.64 2194 2612.63 2187.61C2556.31 2067.18 2464.68 1909.66 2458.83 1887.79C2448.72 1849.97 2463.4 1621.07 2459.6 1556.76C2370.21 1532.47 2290.57 1565.51 2234.59 1549.71C2254.43 1674.47 2284.48 1847.34 2320.35 1925.47Z" fill="#1E4795"/>
<path d="M2246.91 1530.62C2245.6 1544.36 2233.41 1558.32 2234.8 1562.53C2279.08 1577.87 2418.01 1585.33 2453.72 1581.7C2459.6 1571.82 2464.61 1494.98 2462.63 1476.18C2452.25 1379.16 2510.99 1302.41 2487.73 1183.04C2481.8 1152.75 2463.09 1105.89 2428.95 1089.05C2378.73 1064.24 2276.31 1147.13 2263.79 1205.76C2257.44 1235.58 2262.45 1326.53 2249.11 1378.32C2245.75 1391.5 2242.53 1404.45 2239.71 1416.99C2239.71 1416.99 2239.69 1417.05 2239.63 1417.04C2228.85 1463.78 2249.41 1504.61 2246.91 1530.62Z" fill="#F5C53B"/>
<path d="M2419.55 1073.2L2424.44 1086.95C2424.44 1086.95 2332.55 1101.48 2297.81 1151.72C2297.81 1151.72 2293.99 1120.91 2335.61 1090.13C2351.08 1078.71 2388.31 1070.24 2406.37 1066.65C2412.03 1065.53 2417.85 1068.43 2419.55 1073.2Z" fill="#F5AC3B"/>
<path d="M2086.73 1894.23C2074.65 1940.24 2047.49 2133.89 2026.28 2287.34C2064.39 2300.9 2098.59 2313.53 2143.64 2316.77C2145.43 2310.24 2147.2 2303.56 2148.91 2296.7C2181.44 2167.7 2219.77 1961.75 2224.31 1939.55C2239.91 1863.3 2461.04 1715.87 2468.61 1542.73C2469.67 1518.59 2477.95 1441.5 2485.05 1326.53C2476.31 1326.49 2455.91 1325.98 2451.6 1326.57C2422.77 1475.79 2419.55 1512.14 2344.6 1509.99C2239.15 1506.96 2333.52 1259.54 2311.25 1259.17C2295.35 1258.9 2283.83 1260.39 2258.56 1259.25C2240.25 1370.98 2229.76 1480.38 2234.59 1553.46C2236.53 1582.95 2104.92 1824.97 2086.73 1894.23Z" fill="#294E95"/>
<path d="M2358.36 1221.52L2349.25 1231.21L2339.99 1240.99L2321.27 1260.46C2308.75 1273.38 2296.23 1286.31 2283.56 1299.01C2270.92 1311.71 2258.17 1324.25 2245.4 1336.49C2239.01 1342.6 2232.6 1348.61 2226.19 1354.45C2219.79 1360.28 2213.36 1365.96 2207.07 1371.18C2203.93 1373.8 2200.83 1376.3 2197.89 1378.54C2194.99 1380.78 2192.13 1382.79 2190.35 1384.01C2189.84 1384.37 2189.67 1384.49 2189.37 1384.73C2189.48 1384.7 2189.71 1384.67 2189.73 1384.7C2189.65 1384.75 2189.65 1384.8 2189.52 1384.88C2188.97 1385.22 2187.55 1385.73 2186.08 1386.2C2183.01 1387.18 2179.19 1388.14 2175.25 1389.03C2167.32 1390.81 2158.76 1392.37 2150.13 1393.81C2141.48 1395.26 2132.68 1396.58 2123.83 1397.82C2106.12 1400.38 2088.21 1402.7 2070.24 1404.84L2043.25 1408.02L2016.29 1411.04L2016.03 1411.07C2002.04 1412.64 1991.97 1425.23 1993.53 1439.2C1994.95 1451.83 2005.39 1461.26 2017.71 1461.8C2054.76 1463.45 2091.41 1464.23 2128.79 1463.94C2138.13 1463.82 2147.51 1463.61 2157.01 1463.25C2166.53 1462.88 2176.11 1462.39 2186.23 1461.45C2191.31 1460.96 2196.48 1460.4 2202.32 1459.4C2205.31 1458.88 2208.32 1458.32 2212.12 1457.29C2213.08 1457.03 2214.15 1456.7 2215.16 1456.39C2216.25 1456.05 2217.53 1455.58 2218.71 1455.15C2220.51 1454.46 2222.44 1453.7 2223.96 1453.03C2230.36 1450.23 2235.36 1447.57 2240.16 1444.92C2244.92 1442.27 2249.35 1439.63 2253.65 1436.97C2262.25 1431.66 2270.36 1426.3 2278.32 1420.89C2286.25 1415.47 2294.04 1410.01 2301.71 1404.49C2317.05 1393.5 2331.97 1382.25 2346.75 1370.89C2361.51 1359.52 2376.15 1348.1 2390.6 1336.47L2412.21 1318.94L2422.97 1310.09L2433.83 1301.07C2457.17 1281.66 2460.37 1247.02 2440.96 1223.71C2421.55 1200.39 2386.88 1197.21 2363.53 1216.63C2361.84 1218.03 2360.27 1219.51 2358.79 1221.05L2358.36 1221.52Z" fill="#F4D2C6"/>
<path d="M2387.61 1346.77C2360.77 1318.08 2306.95 1265.71 2306.85 1265.59C2336.89 1225.04 2404.37 1122.39 2463.07 1176.81C2531.36 1240.13 2420.65 1313.51 2387.61 1346.77Z" fill="#F5C53B"/>
<path d="M1959.16 1363.63C1968.6 1363.08 1978.21 1366.49 1985.2 1372.86C1987 1374.48 1988.67 1376.38 1989.36 1378.69C1990.04 1381.01 1989.52 1383.83 1987.57 1385.27C1986.41 1386.14 1984.91 1386.41 1983.47 1386.61C1978.13 1387.37 1972.71 1387.55 1967.33 1387.17C1961.91 1386.79 1956.52 1385.84 1951.29 1384.35C1948.68 1383.6 1946.11 1382.72 1943.57 1381.71C1941.21 1380.76 1938.35 1379.82 1936.31 1378.28C1932.12 1375.16 1940.71 1369.97 1942.88 1368.67C1947.25 1366.06 1952.19 1364.37 1957.25 1363.79C1957.89 1363.72 1958.52 1363.66 1959.16 1363.63Z" fill="#EFBEAD"/>
<path d="M1892.84 1424.66L1870.96 1429.65L1884.57 1411.62L1887.57 1409.71L1895.85 1422.75L1892.84 1424.66Z" fill="#FFA9A9"/>
<path d="M1892.84 1424.66L1888.81 1418.31L1884.57 1411.62L2008.51 1332.91C2018.12 1326.8 2026.39 1339.84 2016.77 1345.94L1892.84 1424.66Z" fill="#1A305C"/>
<path d="M1926.61 1374.87C1920.51 1375.2 1916.53 1380.65 1916.12 1383.9C1915.76 1386.68 1922.07 1391.8 1943.73 1393.27C1938.32 1394.31 1929.88 1396.96 1929.84 1402.47C1929.79 1408 1936.27 1410.08 1941.25 1411.08C1935.89 1413.33 1933.61 1412.6 1933.41 1417.53C1933.32 1419.55 1937.63 1424.81 1942.08 1424.85C1935.97 1426.66 1933.76 1428.18 1934.08 1432.72C1934.37 1436.64 1954.59 1454.25 1969.6 1456.23C1987.33 1458.57 1994.07 1458.68 2010.72 1459.94C2017.52 1428.28 2021.23 1419.42 2022.35 1414.19C2016.04 1411.11 2013.33 1402.59 2010.77 1399.23C2003.21 1389.34 1994.87 1375.47 1983.41 1374.4C1955.81 1371.83 1927.29 1374.83 1926.61 1374.87Z" fill="#F4D2C6"/>
<path d="M2477.01 1328.08C2485.07 1257.16 2503.63 1130.68 2425.43 1115.53C2331.53 1097.35 2278.24 1182.67 2274.61 1260.81L2293.07 1259.74C2296.57 1184.29 2348.37 1105.71 2423.45 1126.63C2499.75 1147.88 2460.37 1271.01 2451.31 1328.1L2477.01 1328.08Z" fill="#294E95"/>
<path d="M1844.88 1100.63C1846.36 1099.96 1847.96 1098.97 1848.21 1097.37C1848.51 1095.51 1846.84 1093.99 1845.36 1092.84C1838.48 1087.57 1831.6 1082.31 1824.72 1077.03C1820.97 1074.16 1816.56 1071.11 1811.92 1072.07C1807.35 1073 1804.29 1077.89 1804.47 1082.55C1804.64 1087.21 1807.45 1091.45 1811.04 1094.41C1813.2 1096.2 1815.61 1097.49 1818.08 1098.81C1819.79 1099.72 1821.28 1100.88 1822.87 1101.97C1826.48 1104.47 1831.28 1104.05 1835.41 1103.41C1838.68 1102.92 1841.87 1101.99 1844.88 1100.63Z" fill="#FAB099"/>
<path d="M1797.39 967.494C1797.39 974.04 1806.96 979.334 1818.76 979.32C1830.57 979.307 1840.13 973.987 1840.13 967.454C1840.13 960.907 1830.57 955.614 1818.76 955.627C1806.96 955.64 1797.39 960.947 1797.39 967.494Z" fill="#CC2D25"/>
<path d="M1872.57 984.32L1864.47 969.28C1863.85 968.134 1862.65 967.427 1861.36 967.427L1781.61 967.507C1779.91 967.507 1778.81 969.347 1779.63 970.854L1786.93 984.4L1872.57 984.32Z" fill="#E5483F"/>
<path d="M1890.61 974.107L1765.97 974.24C1761.16 974.24 1758.15 979.453 1760.56 983.627L1892.84 1212.51C1893.77 1214.13 1895.39 1215.25 1897.24 1215.55L2027.43 1236.72C2032.57 1237.56 2036.44 1232.09 2033.92 1227.52L1896.11 977.347C1895 975.347 1892.91 974.107 1890.61 974.107Z" fill="#315EB3"/>
<path d="M1885.39 1125.51C1887.08 1122.73 1888.23 1117.77 1886.28 1115.17C1884.33 1112.57 1881.39 1112.2 1878.79 1114.07C1880.07 1111.37 1881.47 1106.88 1880.19 1103.69C1878.89 1100.51 1876.01 1098.93 1872.59 1098.75C1876.35 1095.64 1878.59 1089.72 1876.84 1086.85C1874.32 1082.73 1869.31 1082.97 1865.45 1084.55C1867.56 1082.31 1866.44 1078.96 1865.49 1078C1864.03 1076.52 1855.52 1076.72 1852.56 1078.09C1811.8 1097.11 1810.81 1098.37 1806.25 1103.48C1802.68 1107.51 1800.89 1113.64 1803.45 1118.39C1806.01 1123.11 1813.75 1124.53 1816.83 1120.12C1813.24 1127.28 1813.21 1135.27 1815.79 1138.61C1817.48 1140.81 1821.97 1142 1827.65 1140.91C1826.23 1145.89 1825.72 1149.48 1829.71 1153.68C1833.68 1157.87 1840.47 1158.96 1844.68 1153.16C1844.68 1159.96 1845.24 1164.01 1850.75 1166.57C1857.19 1169.57 1862.04 1161.59 1865.77 1156.43C1870.88 1149.4 1874.76 1142.85 1885.39 1125.51Z" fill="#FEBAA5"/>
<path fill-rule="evenodd" clip-rule="evenodd" d="M1654.65 1936.1H1241.3V2363.45H1654.65V1936.1Z" fill="#E18B5C"/>
<path d="M1329.47 2150.95H1357.04V2241.57H1392.73V2150.95H1420.29L1374.88 2094.39L1329.47 2150.95Z" fill="white"/>
<path d="M1467.45 2150.95H1495.01V2241.57H1530.72V2150.95H1558.28L1512.87 2094.39L1467.45 2150.95Z" fill="white"/>
<path fill-rule="evenodd" clip-rule="evenodd" d="M1565.97 2259.07H1321.78V2263.73H1565.97V2259.07Z" fill="white"/>
<path fill-rule="evenodd" clip-rule="evenodd" d="M1565.97 2272.95H1321.78V2277.61H1565.97V2272.95Z" fill="white"/>
<path fill-rule="evenodd" clip-rule="evenodd" d="M1565.97 2286.83H1321.78V2291.49H1565.97V2286.83Z" fill="white"/>
<path fill-rule="evenodd" clip-rule="evenodd" d="M1868.09 1936.13H1654.65V2363.5H1868.09V1936.13Z" fill="#C56E4F"/>
<path d="M1762.65 2148.95L1716.35 2057.03C1700.84 2026.43 1685.17 1995.96 1669.36 1965.57C1684.21 1996.6 1699.21 2027.53 1714.37 2058.36L1760.09 2150.68L1806.4 2242.6C1821.91 2273.19 1837.59 2303.67 1853.39 2334.05C1838.52 2303.03 1823.53 2272.09 1808.36 2241.27L1762.65 2148.95Z" fill="#B35434"/>
<path d="M1760.09 2148.95L1714.37 2241.27C1699.21 2272.09 1684.21 2303.03 1669.36 2334.05C1685.17 2303.67 1700.84 2273.19 1716.35 2242.6L1762.65 2150.68L1808.36 2058.35C1823.53 2027.53 1838.52 1996.59 1853.39 1965.57C1837.59 1995.96 1821.91 2026.44 1806.4 2057.03L1760.09 2148.95Z" fill="#B35434"/>
<path fill-rule="evenodd" clip-rule="evenodd" d="M1588.47 1512.27H1175.11V1939.61H1588.47V1512.27Z" fill="#E18B5C"/>
<path d="M1263.28 1727.12H1290.84V1817.73H1326.54V1727.12H1354.09L1308.69 1670.55L1263.28 1727.12Z" fill="white"/>
<path d="M1401.27 1727.12H1428.83V1817.73H1464.52V1727.12H1492.08L1446.68 1670.55L1401.27 1727.12Z" fill="white"/>
<path fill-rule="evenodd" clip-rule="evenodd" d="M1499.79 1835.23H1255.58V1839.89H1499.79V1835.23Z" fill="white"/>
<path fill-rule="evenodd" clip-rule="evenodd" d="M1499.79 1849.11H1255.58V1853.77H1499.79V1849.11Z" fill="white"/>
<path fill-rule="evenodd" clip-rule="evenodd" d="M1499.79 1863H1255.58V1867.66H1499.79V1863Z" fill="white"/>
<path fill-rule="evenodd" clip-rule="evenodd" d="M1801.89 1512.29H1588.47V1939.66H1801.89V1512.29Z" fill="#C56E4F"/>
<path d="M1696.45 1725.11L1650.16 1633.19C1634.65 1602.6 1618.97 1572.12 1603.16 1541.73C1618.03 1572.76 1633.03 1603.7 1648.19 1634.52L1693.89 1726.84L1740.2 1818.76C1755.71 1849.35 1771.39 1879.83 1787.2 1910.22C1772.33 1879.19 1757.33 1848.26 1742.17 1817.43L1696.45 1725.11Z" fill="#B35434"/>
<path d="M1693.89 1725.11L1648.19 1817.43C1633.03 1848.25 1618.03 1879.19 1603.16 1910.22C1618.97 1879.83 1634.65 1849.35 1650.16 1818.76L1696.45 1726.84L1742.17 1634.52C1757.33 1603.69 1772.33 1572.75 1787.2 1541.73C1771.39 1572.12 1755.71 1602.6 1740.2 1633.19L1693.89 1725.11Z" fill="#B35434"/>
<path fill-rule="evenodd" clip-rule="evenodd" d="M1506.52 1089.09H1126.63V1513.78H1506.52V1089.09Z" fill="#E18B5C"/>
<path d="M1207.67 1302.61H1232.99V1392.65H1265.81V1302.61H1291.13L1249.4 1246.4L1207.67 1302.61Z" fill="white"/>
<path d="M1334.48 1302.61H1359.81V1392.65H1392.61V1302.61H1417.95L1376.21 1246.4L1334.48 1302.61Z" fill="white"/>
<path fill-rule="evenodd" clip-rule="evenodd" d="M1425.03 1410.05H1200.59V1414.68H1425.03V1410.05Z" fill="white"/>
<path fill-rule="evenodd" clip-rule="evenodd" d="M1425.03 1423.85H1200.59V1428.48H1425.03V1423.85Z" fill="white"/>
<path fill-rule="evenodd" clip-rule="evenodd" d="M1425.03 1437.64H1200.59V1442.27H1425.03V1437.64Z" fill="white"/>
<path fill-rule="evenodd" clip-rule="evenodd" d="M1702.68 1089.12H1506.52V1513.83H1702.68V1089.12Z" fill="#C56E4F"/>
<path d="M1605.77 1300.61L1563.23 1209.27C1548.97 1178.87 1534.56 1148.57 1520.04 1118.39C1533.69 1149.21 1547.48 1179.96 1561.41 1210.59L1603.43 1302.33L1645.99 1393.68C1660.23 1424.08 1674.64 1454.37 1689.17 1484.57C1675.51 1453.74 1661.72 1422.99 1647.79 1392.36L1605.77 1300.61Z" fill="#B35434"/>
<path d="M1603.43 1300.61L1561.41 1392.36C1547.48 1422.99 1533.69 1453.73 1520.04 1484.57C1534.56 1454.37 1548.97 1424.08 1563.23 1393.68L1605.77 1302.33L1647.79 1210.59C1661.72 1179.96 1675.51 1149.21 1689.17 1118.39C1674.64 1148.59 1660.23 1178.87 1645.99 1209.27L1603.43 1300.61Z" fill="#B35434"/>
</g>
<defs>
<clipPath id="clip0_36_3818">
<rect width="3200" height="2560" fill="white"/>
</clipPath>
</defs>
</svg>
