<svg width="299" height="71" viewBox="0 0 299 71" fill="none" xmlns="http://www.w3.org/2000/svg">
<path d="M45.2824 70.2972L0 62.6007V17.5043L45.2824 2.11022V70.2972Z" fill="#FCCC5D"/>
<path d="M2.61154 60.6945L45.2824 67.9466V3.32522L2.61154 17.8314V60.6945ZM46.5882 70.9994C46.5203 70.9994 46.4524 70.9938 46.3845 70.9825L1.10207 63.286C0.467466 63.1772 0 62.5893 0 61.8965V16.8C0 16.1869 0.369098 15.644 0.912298 15.4584L46.1947 0.0652769C46.5916 -0.0697339 47.0243 0.00714784 47.3603 0.272482C47.6963 0.536878 47.8939 0.958786 47.8939 1.40695V69.593C47.8939 70.0046 47.7268 70.3956 47.4369 70.6619C47.1984 70.8813 46.8972 70.9994 46.5882 70.9994Z" fill="#393536"/>
<path d="M91.8703 61.8961L46.5879 69.5927V1.40563L91.8703 16.7997V61.8961Z" fill="#D48519"/>
<path d="M47.8938 3.32572V67.9471L90.5646 60.695V17.8309L47.8938 3.32572ZM46.588 70.9999C46.279 70.9999 45.9778 70.8817 45.7392 70.6624C45.4494 70.3951 45.2822 70.0042 45.2822 69.5935V1.4065C45.2822 0.958341 45.4798 0.537371 45.8159 0.272037C46.151 0.00764113 46.5845 -0.0683036 46.9815 0.0657696L92.2639 15.4589C92.8071 15.6436 93.1762 16.1874 93.1762 16.8005V61.897C93.1762 62.5889 92.7087 63.1777 92.0741 63.2855L46.7917 70.9821C46.7238 70.9943 46.6559 70.9999 46.588 70.9999Z" fill="#393536"/>
<path d="M15.9121 23.3181L29.4129 19.9879V36.9495L15.9121 38.2987V23.3181Z" fill="#393536"/>
<path d="M15.9121 43.5363L29.4129 42.6277V66.7684L15.9121 64.1723V43.5363Z" fill="#393536"/>
<path d="M60.1514 5.8989V52.3885L66.9875 51.3366V8.68443L60.1514 5.8989Z" fill="#393536"/>
<path d="M77.625 11.5549V50.3358L82.7871 49.8323V13.7132L77.625 11.5549Z" fill="#393536"/>
<mask id="mask0_664_57760" style="mask-type:alpha" maskUnits="userSpaceOnUse" x="127" y="13" width="172" height="45">
<path d="M140.814 31.1623L138.797 25.4283H130.678C130.387 26.3297 130.07 27.2828 129.729 28.2868C129.387 29.2919 129.062 30.2503 128.75 31.1623H127.469C128.011 29.6201 128.547 28.1099 129.074 26.633C129.601 25.1576 130.124 23.6878 130.648 22.2279C131.17 20.7672 131.695 19.2988 132.221 17.822C132.749 16.3451 133.284 14.8408 133.826 13.3104H135.528L142.261 31.1623H140.814ZM134.624 14.4827L130.995 24.4021H138.449L134.624 14.4827ZM151.658 31.1623H146.673V13.3425H151.658C154.439 13.3425 156.522 14.0677 157.907 15.5173C159.294 16.9668 159.987 19.1632 159.987 22.1052C159.987 28.1432 157.211 31.1623 151.658 31.1623ZM157.246 16.6079C156.704 15.9622 155.978 15.471 155.07 15.1343C154.159 14.7977 153.013 14.6295 151.628 14.6295H147.877V29.8589H151.628C153.003 29.8589 154.145 29.6854 155.053 29.337C155.963 28.99 156.689 28.4825 157.231 27.8152C157.773 27.1465 158.154 26.3349 158.375 25.38C158.596 24.4236 158.707 23.3323 158.707 22.1052C158.707 20.9324 158.599 19.8846 158.383 18.9623C158.167 18.0393 157.788 17.2544 157.246 16.6079ZM171.854 31.1623H170.303L163.842 13.3261H165.182L171.086 29.5334L176.99 13.3261H178.316L171.854 31.1623ZM194.505 31.1623L192.488 25.4283H184.37C184.078 26.3297 183.762 27.2828 183.42 28.2868C183.079 29.2919 182.753 30.2503 182.441 31.1623H181.161C181.703 29.6201 182.239 28.1099 182.766 26.633C183.292 25.1576 183.816 23.6878 184.339 22.2279C184.861 20.7672 185.386 19.2988 185.913 17.822C186.441 16.3451 186.975 14.8408 187.516 13.3104H189.219L195.952 31.1623H194.505ZM188.316 14.4827L184.685 24.4021H192.141L188.316 14.4827ZM211.511 31.1623L201.448 14.874V31.1623H200.244V13.3261H201.899L211.886 29.5823V13.3261H213.091V31.1623H211.511ZM230.485 16.6079C230.186 16.1474 229.808 15.7456 229.357 15.403C228.906 15.0607 228.385 14.7918 227.797 14.5968C227.21 14.4017 226.58 14.3032 225.908 14.3032C224.954 14.3032 224.087 14.4722 223.309 14.8082C222.531 15.1454 221.868 15.6419 221.322 16.2988C220.773 16.9563 220.352 17.7756 220.055 18.7587C219.759 19.7412 219.611 20.8841 219.611 22.1867C219.611 23.4901 219.759 24.6389 220.055 25.6317C220.352 26.6258 220.773 27.4596 221.322 28.1315C221.868 28.8053 222.525 29.3162 223.294 29.6632C224.063 30.0115 224.918 30.185 225.862 30.185C227.287 30.185 228.462 29.84 229.386 29.1505C230.311 28.461 230.882 27.4538 231.103 26.1288H232.354C232.234 26.9755 231.986 27.7328 231.616 28.4008C231.244 29.0695 230.777 29.6306 230.215 30.0865C229.653 30.5433 229.004 30.8903 228.271 31.1289C227.539 31.3677 226.745 31.4871 225.893 31.4871C224.728 31.4871 223.68 31.2672 222.752 30.8283C221.822 30.3879 221.033 29.7662 220.38 28.9626C219.726 28.1589 219.225 27.1849 218.874 26.0388C218.522 24.8932 218.347 23.6095 218.347 22.1867C218.347 20.7757 218.522 19.5057 218.874 18.3758C219.225 17.2465 219.73 16.2831 220.387 15.484C221.045 14.6861 221.837 14.0731 222.767 13.6444C223.695 13.2152 224.738 12.9999 225.893 12.9999C226.685 12.9999 227.442 13.1252 228.16 13.3757C228.876 13.6255 229.522 13.9752 230.095 14.4259C230.668 14.8767 231.148 15.4136 231.54 16.0378C231.932 16.6627 232.203 17.3497 232.354 18.0986H231.103C230.994 17.5662 230.788 17.0705 230.485 16.6079ZM249.809 29.8589V31.1623H237.895V13.3261H249.403V14.6295H239.099V21.2259H248.754V22.5292H239.099V29.8589H249.809ZM260.321 31.1623H255.335V13.3425H260.321C263.102 13.3425 265.185 14.0677 266.572 15.5173C267.957 16.9668 268.651 19.1632 268.651 22.1052C268.651 28.1432 265.874 31.1623 260.321 31.1623ZM265.908 16.6079C265.366 15.9622 264.64 15.471 263.732 15.1343C262.823 14.7977 261.677 14.6295 260.29 14.6295H256.541V29.8589H260.29C261.666 29.8589 262.809 29.6854 263.717 29.337C264.626 28.99 265.351 28.4825 265.894 27.8152C266.436 27.1465 266.818 26.3349 267.039 25.38C267.259 24.4236 267.371 23.3323 267.371 22.1052C267.371 20.9324 267.263 19.8846 267.046 18.9623C266.83 18.0393 266.452 17.2544 265.908 16.6079ZM143.763 57.107H141.956L137.438 40.9825L133.069 57.107H131.262L127 39.2714H128.279L132.166 55.3972L136.534 39.2714H138.343L142.86 55.3972L146.778 39.2714H148.058L143.763 57.107ZM164.758 57.107L162.739 51.3742H154.621C154.331 52.2744 154.014 53.2281 153.673 54.2328C153.332 55.2367 153.004 56.195 152.692 57.107H151.414C151.956 55.5654 152.49 54.0559 153.018 52.5791C153.545 51.1022 154.068 49.6338 154.592 48.1732C155.114 46.7127 155.639 45.2443 156.165 43.7673C156.692 42.2904 157.226 40.7861 157.77 39.2557H159.472L166.205 57.107H164.758ZM158.567 40.428L154.938 50.348H162.393L158.567 40.428ZM183.244 47.0492C182.969 47.4563 182.617 47.8047 182.191 48.0911C181.763 48.38 181.265 48.5881 180.692 48.7185C181.004 48.9795 181.258 49.2293 181.461 49.4681C181.661 49.7068 181.834 49.9626 181.98 50.234C182.125 50.5054 182.256 50.8035 182.372 51.1296C182.486 51.4551 182.62 51.8295 182.77 52.253L184.472 57.107H183.147L181.505 52.3671C181.345 51.9118 181.166 51.4825 180.971 51.0807C180.775 50.6789 180.546 50.3292 180.285 50.0304C180.024 49.731 179.726 49.4955 179.39 49.3213C179.053 49.1478 178.658 49.061 178.207 49.061H172.437V57.107H171.233V39.2714H178.658C179.351 39.2714 180.021 39.3392 180.668 39.475C181.317 39.6112 181.895 39.8527 182.401 40.2004C182.908 40.5474 183.312 41.0282 183.615 41.6414C183.915 42.2552 184.066 43.04 184.066 43.9956C184.066 44.5925 183.998 45.1489 183.862 45.6649C183.728 46.1803 183.521 46.6415 183.244 47.0492ZM181.723 41.3641C181.005 40.8377 179.933 40.5748 178.508 40.5748H172.437V47.7577H178.161C178.974 47.7577 179.672 47.6924 180.255 47.562C180.837 47.4321 181.317 47.2182 181.694 46.9187C182.071 46.62 182.349 46.2326 182.529 45.7543C182.71 45.2762 182.801 44.6903 182.801 43.9956C182.801 42.7687 182.441 41.8913 181.723 41.3641ZM202.545 55.8035V57.107H190.631V39.2714H202.139V40.5748H191.835V47.1719H201.49V48.474H191.835V55.8035H202.545ZM220.075 57.107V48.23H209.908V57.107H208.703V39.2714H209.908V46.9273H220.075V39.2714H221.295V57.107H220.075ZM242.245 51.9118C241.862 53.0521 241.328 54.0319 240.639 54.8511C239.952 55.6718 239.133 56.3065 238.185 56.7573C237.236 57.2073 236.188 57.4331 235.044 57.4331C233.9 57.4331 232.85 57.2073 231.895 56.7573C230.943 56.3065 230.121 55.6738 229.434 54.8597C228.745 54.0449 228.211 53.0676 227.829 51.9273C227.448 50.7878 227.258 49.5229 227.258 48.1328C227.258 46.7315 227.449 45.4667 227.837 44.3368C228.225 43.2075 228.764 42.2441 229.455 41.4464C230.15 40.6471 230.97 40.0314 231.919 39.5969C232.868 39.1632 233.909 38.9459 235.044 38.9459C236.168 38.9459 237.208 39.1632 238.162 39.5969C239.116 40.0314 239.936 40.6505 240.625 41.4536C241.312 42.2585 241.85 43.2239 242.236 44.3538C242.624 45.4829 242.817 46.7426 242.817 48.1328C242.817 49.5117 242.625 50.7714 242.245 51.9118ZM241.062 44.7446C240.735 43.7673 240.284 42.9447 239.706 42.2774C239.129 41.6087 238.446 41.1039 237.657 40.7614C236.87 40.4202 236.008 40.2487 235.074 40.2487C234.121 40.2487 233.244 40.4229 232.447 40.7699C231.647 41.1182 230.956 41.6257 230.376 42.2931C229.792 42.9611 229.338 43.783 229.012 44.7601C228.685 45.7381 228.523 46.8613 228.523 48.1328C228.523 49.4028 228.683 50.5346 229.004 51.5289C229.326 52.5217 229.775 53.3612 230.353 54.0449C230.93 54.7299 231.617 55.2471 232.416 55.6006C233.214 55.9537 234.085 56.1297 235.03 56.1297C235.974 56.1297 236.845 55.9537 237.642 55.6006C238.442 55.2471 239.132 54.7299 239.714 54.0449C240.296 53.3612 240.747 52.5217 241.068 51.5289C241.391 50.5346 241.552 49.4028 241.552 48.1328C241.552 46.8509 241.388 45.721 241.062 44.7446ZM261.07 52.921C260.878 53.8877 260.546 54.705 260.075 55.373C259.604 56.0403 258.96 56.5505 258.147 56.9034C257.334 57.2563 256.304 57.4331 255.06 57.4331C254.074 57.4331 253.234 57.3209 252.536 57.0984C251.838 56.8767 251.259 56.5752 250.797 56.195C250.336 55.8154 249.968 55.3698 249.698 54.8597C249.426 54.3495 249.221 53.8061 249.08 53.2308C248.94 52.6548 248.852 52.0579 248.816 51.4394C248.781 50.8197 248.764 50.217 248.764 49.6311V39.2714H249.968V49.5822C249.968 50.9391 250.081 52.0447 250.308 52.8961C250.533 53.75 250.865 54.4148 251.301 54.8916C251.738 55.3698 252.271 55.6953 252.898 55.8688C253.526 56.043 254.246 56.1297 255.06 56.1297C255.883 56.1297 256.613 56.043 257.252 55.8688C257.889 55.6953 258.422 55.3672 258.848 54.8844C259.276 54.4004 259.598 53.7356 259.819 52.8889C260.04 52.0416 260.15 50.9391 260.15 49.5822V39.2714H261.356V49.6311C261.356 50.8582 261.26 51.9547 261.07 52.921ZM270.112 45.6977C270.448 45.9742 270.893 46.2182 271.446 46.4301C271.997 46.6415 272.685 46.8404 273.508 47.0245C273.991 47.1333 274.488 47.2469 274.999 47.367C275.512 47.4869 276.011 47.6271 276.499 47.7903C276.985 47.9533 277.449 48.1544 277.892 48.393C278.334 48.6318 278.718 48.9247 279.044 49.2731C279.37 49.6201 279.631 50.0356 279.827 50.5191C280.023 51.0017 280.12 51.5751 280.12 52.2373C280.12 52.9973 279.972 53.6952 279.677 54.3299C279.381 54.9654 278.968 55.5133 278.442 55.9752C277.915 56.4363 277.286 56.7952 276.559 57.0508C275.83 57.3052 275.04 57.4331 274.186 57.4331C273.072 57.4331 272.098 57.3052 271.264 57.0508C270.43 56.7952 269.73 56.4311 269.162 55.9582C268.595 55.4872 268.161 54.9164 267.86 54.2485C267.559 53.5811 267.383 52.8296 267.334 51.9926H268.523C268.643 52.7962 268.87 53.4642 269.201 53.996C269.533 54.5288 269.942 54.9524 270.428 55.266C270.916 55.5824 271.471 55.8035 272.093 55.9346C272.714 56.0652 273.378 56.1297 274.081 56.1297C274.814 56.1297 275.475 56.0462 276.062 55.8774C276.649 55.7097 277.151 55.465 277.568 55.1447C277.984 54.8238 278.304 54.4388 278.525 53.9881C278.744 53.5374 278.855 53.0299 278.855 52.4656C278.855 51.8681 278.76 51.3657 278.568 50.9581C278.378 50.5509 278.057 50.1954 277.606 49.8915C277.154 49.588 276.559 49.3162 275.821 49.0767C275.083 48.8379 274.165 48.5939 273.072 48.3441C272.167 48.1268 271.394 47.877 270.745 47.5953C270.096 47.3122 269.562 46.984 269.14 46.6096C268.719 46.2351 268.407 45.8059 268.208 45.3226C268.005 44.8398 267.905 44.2775 267.905 43.6369C267.905 42.9422 268.041 42.3061 268.313 41.7314C268.583 41.156 268.967 40.6615 269.465 40.2487C269.962 39.8364 270.56 39.5161 271.256 39.2878C271.954 39.0601 272.725 38.9459 273.569 38.9459C274.413 38.9459 275.185 39.0516 275.887 39.2629C276.592 39.475 277.206 39.7816 277.733 40.1834C278.261 40.5852 278.687 41.0738 279.015 41.6498C279.34 42.2253 279.549 42.8769 279.638 43.6042H278.48C278.369 43.1267 278.188 42.6818 277.937 42.2689C277.686 41.8567 277.362 41.5012 276.965 41.2017C276.568 40.903 276.097 40.67 275.549 40.501C275.003 40.3335 274.377 40.2487 273.674 40.2487C272.198 40.2487 271.082 40.5416 270.323 41.1286C269.565 41.7151 269.185 42.5187 269.185 43.539C269.185 44.0061 269.256 44.4131 269.397 44.7601C269.537 45.1085 269.775 45.4203 270.112 45.6977ZM298.148 55.8035V57.107H286.234V39.2714H297.742V40.5748H287.439V47.1719H297.093V48.474H287.439V55.8035H298.148Z" fill="black"/>
</mask>
<g mask="url(#mask0_664_57760)">
<path d="M123 6.00012H377.591V36.551H123V6.00012Z" fill="#FBCB5C"/>
<path d="M123 36.551H377.591V67.102H123V36.551Z" fill="white"/>
</g>
</svg>
