<svg width="24" height="24" viewBox="0 0 24 24" fill="none" xmlns="http://www.w3.org/2000/svg">
<path d="M20 6L3 6" stroke="#212B36" stroke-width="1.5" stroke-linecap="round"/>
<path d="M10 16H3" stroke="#212B36" stroke-width="1.5" stroke-linecap="round"/>
<path d="M10 11H3" stroke="#212B36" stroke-width="1.5" stroke-linecap="round"/>
<path d="M18.7895 9.86472L19.1487 9.47914C19.7438 8.84029 20.7086 8.84029 21.3037 9.47914C21.8988 10.118 21.8988 11.1538 21.3037 11.7926L20.9445 12.1782M18.7895 9.86472C18.7895 9.86472 18.8344 10.6841 19.5079 11.407C20.1813 12.13 20.9445 12.1782 20.9445 12.1782M18.7895 9.86472L15.4875 13.4096C15.2639 13.6497 15.1521 13.7697 15.0559 13.9021C14.9425 14.0582 14.8452 14.2272 14.7658 14.4059C14.6986 14.5575 14.6485 14.7185 14.5485 15.0407L14.2283 16.072M20.9445 12.1782L17.6425 15.723C17.4189 15.9631 17.3071 16.0832 17.1838 16.1864C17.0383 16.3082 16.8809 16.4126 16.7144 16.4978C16.5733 16.5701 16.4232 16.6237 16.1232 16.7311L15.1625 17.0749M15.1625 17.0749L14.5409 17.2973C14.3932 17.3502 14.2304 17.3089 14.1204 17.1908C14.0103 17.0726 13.9719 16.8979 14.0211 16.7393L14.2283 16.072M15.1625 17.0749L14.2283 16.072" stroke="#212B36" stroke-width="1.5"/>
</svg>
