<svg width="14" height="14" viewBox="0 0 14 14" fill="none" xmlns="http://www.w3.org/2000/svg">
<circle cx="7" cy="7" r="7" fill="#B2B7BD"/>
<g clip-path="url(#clip0_2494_20802)">
<path d="M4.29302 9.99979C4.23507 9.99981 4.17842 9.98263 4.13023 9.95044C4.08204 9.91825 4.04448 9.87249 4.0223 9.81895C4.00013 9.76541 3.99432 9.70649 4.00563 9.64966C4.01694 9.59282 4.04485 9.54061 4.08584 9.49964L9.4999 4.08558C9.55485 4.03063 9.62938 3.99976 9.70709 3.99976C9.7848 3.99976 9.85932 4.03063 9.91427 4.08558C9.96922 4.14053 10.0001 4.21505 10.0001 4.29276C10.0001 4.37047 9.96922 4.445 9.91427 4.49995L4.50021 9.91401C4.47303 9.94125 4.44073 9.96285 4.40518 9.97757C4.36962 9.99229 4.33151 9.99985 4.29302 9.99979Z" fill="white"/>
<path d="M9.70719 9.99979C9.66871 9.99985 9.6306 9.99229 9.59504 9.97757C9.55948 9.96285 9.52719 9.94125 9.5 9.91401L4.08594 4.49995C4.03099 4.445 4.00012 4.37047 4.00012 4.29276C4.00012 4.21505 4.03099 4.14053 4.08594 4.08558C4.14089 4.03063 4.21542 3.99976 4.29313 3.99976C4.37084 3.99976 4.44537 4.03063 4.50032 4.08558L9.91438 9.49964C9.95536 9.54061 9.98327 9.59282 9.99458 9.64966C10.0059 9.70649 10.0001 9.76541 9.97791 9.81895C9.95573 9.87249 9.91817 9.91825 9.86999 9.95044C9.8218 9.98263 9.76514 9.99981 9.70719 9.99979Z" fill="white"/>
</g>
<defs>
<clipPath id="clip0_2494_20802">
<rect width="6" height="6" fill="white" transform="translate(4 4)"/>
</clipPath>
</defs>
</svg>
