<svg width="156" height="106" viewBox="0 0 156 106" fill="none" xmlns="http://www.w3.org/2000/svg">
<g opacity="0.4">
<path d="M13.8122 99.6043C15.4208 99.9139 16.5906 101.617 16.2982 103.32C16.0057 105.023 14.3971 106.262 12.7886 105.952C11.1801 105.643 10.0103 103.94 10.3028 102.236C10.5952 100.378 12.2037 99.2946 13.8122 99.6043Z" fill="#628497"/>
<path d="M13.8122 74.6761C15.4208 74.9858 16.5906 76.6889 16.2982 78.392C16.0057 80.0952 14.3971 81.3338 12.7886 81.0242C11.1801 80.7145 10.0103 79.0114 10.3028 77.3083C10.5952 75.6051 12.2037 74.3665 13.8122 74.6761Z" fill="#628497"/>
<path d="M13.8122 49.9032C15.4208 50.2128 16.5906 51.9159 16.2982 53.6191C16.0057 55.3222 14.3971 56.5609 12.7886 56.2512C11.1801 55.9416 10.0103 54.2385 10.3028 52.5353C10.5952 50.6774 12.2037 49.4387 13.8122 49.9032Z" fill="#628497"/>
<path d="M13.8122 24.9753C15.4208 25.285 16.5906 26.9882 16.2982 28.6913C16.0057 30.3945 14.3971 31.6332 12.7886 31.3235C11.1801 31.0138 10.0103 29.3107 10.3028 27.6075C10.5952 25.7495 12.2037 24.6657 13.8122 24.9753Z" fill="#628497"/>
<path d="M13.8122 0.0477012C15.4208 0.357364 16.5906 2.06055 16.2982 3.7637C16.0057 5.46685 14.3971 6.70543 12.7886 6.39576C11.1801 6.0861 10.0103 4.38301 10.3028 2.67986C10.5952 0.976711 12.2037 -0.261962 13.8122 0.0477012Z" fill="#628497"/>
<path d="M33.5534 99.6043C35.162 99.9139 36.3318 101.617 36.0394 103.32C35.7469 105.023 34.1383 106.262 32.5298 105.952C30.9213 105.643 29.7515 103.94 30.044 102.236C30.3364 100.378 31.9449 99.2946 33.5534 99.6043Z" fill="#628497"/>
<path d="M33.5534 74.6761C35.162 74.9858 36.3318 76.6889 36.0394 78.392C35.7469 80.0952 34.1383 81.3338 32.5298 81.0242C30.9213 80.7145 29.7515 79.0114 30.044 77.3083C30.3364 75.6051 31.9449 74.3665 33.5534 74.6761Z" fill="#628497"/>
<path d="M33.5534 49.9032C35.162 50.2128 36.3318 51.9159 36.0394 53.6191C35.7469 55.3222 34.1383 56.5609 32.5298 56.2512C30.9213 55.9416 29.7515 54.2385 30.044 52.5353C30.3364 50.6774 31.9449 49.4387 33.5534 49.9032Z" fill="#628497"/>
<path d="M33.5534 24.9753C35.162 25.285 36.3318 26.9882 36.0394 28.6913C35.7469 30.3945 34.1383 31.6332 32.5298 31.3235C30.9213 31.0138 29.7515 29.3107 30.044 27.6075C30.3364 25.7495 31.9449 24.6657 33.5534 24.9753Z" fill="#628497"/>
<path d="M33.5534 0.0477012C35.162 0.357364 36.3318 2.06055 36.0394 3.7637C35.7469 5.46685 34.1383 6.70543 32.5298 6.39576C30.9213 6.0861 29.7515 4.38301 30.044 2.67986C30.3364 0.976711 31.9449 -0.261962 33.5534 0.0477012Z" fill="#628497"/>
<path d="M53.4412 99.6043C55.0498 99.9139 56.2195 101.617 55.9271 103.32C55.6346 105.023 54.0261 106.262 52.4176 105.952C50.8091 105.643 49.6392 103.94 49.9317 102.236C50.0779 100.378 51.6865 99.2946 53.4412 99.6043Z" fill="#628497"/>
<path d="M53.4412 74.6761C55.0498 74.9858 56.2195 76.6889 55.9271 78.392C55.6346 80.0952 54.0261 81.3338 52.4176 81.0242C50.8091 80.7145 49.6392 79.0114 49.9317 77.3083C50.0779 75.6051 51.6865 74.3665 53.4412 74.6761Z" fill="#628497"/>
<path d="M53.4412 49.9032C55.0498 50.2128 56.2195 51.9159 55.9271 53.6191C55.6346 55.3222 54.0261 56.5609 52.4176 56.2512C50.8091 55.9416 49.6392 54.2385 49.9317 52.5353C50.0779 50.6774 51.6865 49.4387 53.4412 49.9032Z" fill="#628497"/>
<path d="M53.4412 24.9753C55.0498 25.285 56.2195 26.9882 55.9271 28.6913C55.6346 30.3945 54.0261 31.6332 52.4176 31.3235C50.8091 31.0138 49.6392 29.3107 49.9317 27.6075C50.0779 25.7495 51.6865 24.6657 53.4412 24.9753Z" fill="#628497"/>
<path d="M53.4412 0.0477012C55.0498 0.357364 56.2195 2.06055 55.9271 3.7637C55.6346 5.46685 54.0261 6.70543 52.4176 6.39576C50.8091 6.0861 49.6392 4.38301 49.9317 2.67986C50.0779 0.976711 51.6865 -0.261962 53.4412 0.0477012Z" fill="#628497"/>
<path d="M73.1815 99.6043C74.79 99.9139 75.9598 101.617 75.6673 103.32C75.3748 105.023 73.7664 106.262 72.1578 105.952C70.5493 105.643 69.3794 103.94 69.6719 102.236C69.9644 100.378 71.5729 99.2946 73.1815 99.6043Z" fill="#628497"/>
<path d="M73.1815 74.6761C74.79 74.9858 75.9598 76.6889 75.6673 78.392C75.3748 80.0952 73.7664 81.3338 72.1578 81.0242C70.5493 80.7145 69.3794 79.0114 69.6719 77.3083C69.9644 75.6051 71.5729 74.3665 73.1815 74.6761Z" fill="#628497"/>
<path d="M73.1815 49.9032C74.79 50.2128 75.9598 51.9159 75.6673 53.6191C75.3748 55.3222 73.7664 56.5609 72.1578 56.2512C70.5493 55.9416 69.3794 54.2385 69.6719 52.5353C69.9644 50.6774 71.5729 49.4387 73.1815 49.9032Z" fill="#628497"/>
<path d="M73.1815 24.9753C74.79 25.285 75.9598 26.9882 75.6673 28.6913C75.3748 30.3945 73.7664 31.6332 72.1578 31.3235C70.5493 31.0138 69.3794 29.3107 69.6719 27.6075C69.9644 25.7495 71.5729 24.6657 73.1815 24.9753Z" fill="#628497"/>
<path d="M73.1815 0.0477012C74.79 0.357364 75.9598 2.06055 75.6673 3.7637C75.3748 5.46685 73.7664 6.70543 72.1578 6.39576C70.5493 6.0861 69.3794 4.38301 69.6719 2.67986C69.9644 0.976711 71.5729 -0.261962 73.1815 0.0477012Z" fill="#628497"/>
<path d="M92.9227 99.6043C94.5312 99.9139 95.701 101.617 95.4085 103.32C95.116 105.023 93.5076 106.262 91.899 105.952C90.2905 105.643 89.1207 103.94 89.4131 102.236C89.7056 100.378 91.3141 99.2946 92.9227 99.6043Z" fill="#628497"/>
<path d="M92.9227 74.6761C94.5312 74.9858 95.701 76.6889 95.4085 78.392C95.116 80.0952 93.5076 81.3338 91.899 81.0242C90.2905 80.7145 89.1207 79.0114 89.4131 77.3083C89.7056 75.6051 91.3141 74.3665 92.9227 74.6761Z" fill="#628497"/>
<path d="M92.9227 49.9032C94.5312 50.2128 95.701 51.9159 95.4085 53.6191C95.116 55.3222 93.5076 56.5609 91.899 56.2512C90.2905 55.9416 89.1207 54.2385 89.4131 52.5353C89.7056 50.6774 91.3141 49.4387 92.9227 49.9032Z" fill="#628497"/>
<path d="M92.9227 24.9753C94.5312 25.285 95.701 26.9882 95.4085 28.6913C95.116 30.3945 93.5076 31.6332 91.899 31.3235C90.2905 31.0138 89.1207 29.3107 89.4131 27.6075C89.7056 25.7495 91.3141 24.6657 92.9227 24.9753Z" fill="#628497"/>
<path d="M92.9227 0.0477012C94.5312 0.357364 95.701 2.06055 95.4085 3.7637C95.116 5.46685 93.5076 6.70543 91.899 6.39576C90.2905 6.0861 89.1207 4.38301 89.4131 2.67986C89.7056 0.976711 91.3141 -0.261962 92.9227 0.0477012Z" fill="#628497"/>
<path d="M112.664 99.6043C114.272 99.9139 115.442 101.617 115.15 103.32C114.857 105.023 113.249 106.262 111.64 105.952C110.032 105.643 108.862 103.94 109.154 102.236C109.447 100.378 111.055 99.2946 112.664 99.6043Z" fill="#628497"/>
<path d="M115.296 77.9277C115.296 76.1319 113.921 74.6763 112.225 74.6763C110.529 74.6763 109.154 76.1319 109.154 77.9277C109.154 79.7234 110.529 81.1792 112.225 81.1792C113.921 81.1792 115.296 79.7234 115.296 77.9277Z" fill="#628497"/>
<path d="M115.238 52.6188C115.009 50.8396 113.461 49.5938 111.781 49.8362C110.1 50.0786 108.924 51.7175 109.153 53.4967C109.382 55.276 110.93 56.5217 112.61 56.2793C114.29 56.0369 115.467 54.3981 115.238 52.6188Z" fill="#628497"/>
<path d="M112.664 24.9753C114.272 25.285 115.442 26.9882 115.15 28.6913C114.857 30.3945 113.249 31.6332 111.64 31.3235C110.032 31.0138 108.862 29.3107 109.154 27.6075C109.447 25.7495 111.055 24.6657 112.664 24.9753Z" fill="#628497"/>
<path d="M112.664 0.0477012C114.272 0.357364 115.442 2.06055 115.15 3.7637C114.857 5.46685 113.249 6.70543 111.64 6.39576C110.032 6.0861 108.862 4.38301 109.154 2.67986C109.447 0.976711 111.055 -0.261962 112.664 0.0477012Z" fill="#628497"/>
<path d="M132.551 99.6043C134.159 99.9139 135.329 101.617 135.037 103.32C134.744 105.023 133.135 106.262 131.527 105.952C129.918 105.643 128.749 103.94 129.041 102.236C129.334 100.378 130.796 99.2946 132.551 99.6043Z" fill="#628497"/>
<path d="M135.037 77.9277C135.037 76.1319 133.662 74.6763 131.966 74.6763C130.27 74.6763 128.896 76.1319 128.896 77.9277C128.896 79.7234 130.27 81.1792 131.966 81.1792C133.662 81.1792 135.037 79.7234 135.037 77.9277Z" fill="#628497"/>
<path d="M134.978 52.6252C134.749 50.846 133.201 49.6001 131.521 49.8425C129.841 50.085 128.664 51.7239 128.893 53.5031C129.122 55.2823 130.67 56.5281 132.35 56.2857C134.031 56.0432 135.207 54.4044 134.978 52.6252Z" fill="#628497"/>
<path d="M132.551 24.9753C134.159 25.285 135.329 26.9882 135.037 28.6913C134.744 30.3945 133.135 31.6332 131.527 31.3235C129.918 31.0138 128.749 29.3107 129.041 27.6075C129.334 25.7495 130.796 24.6657 132.551 24.9753Z" fill="#628497"/>
<path d="M132.551 0.0477012C134.159 0.357364 135.329 2.06055 135.037 3.7637C134.744 5.46685 133.135 6.70543 131.527 6.39576C129.918 6.0861 128.749 4.38301 129.041 2.67986C129.334 0.976711 130.796 -0.261962 132.551 0.0477012Z" fill="#628497"/>
<path d="M152.292 99.6043C153.9 99.9139 155.07 101.617 154.778 103.32C154.485 105.023 152.877 106.262 151.268 105.952C149.66 105.643 148.49 103.94 148.782 102.236C149.075 100.378 150.683 99.2946 152.292 99.6043Z" fill="#628497"/>
<path d="M154.777 77.9277C154.777 76.1319 153.403 74.6763 151.707 74.6763C150.011 74.6763 148.636 76.1319 148.636 77.9277C148.636 79.7234 150.011 81.1792 151.707 81.1792C153.403 81.1792 154.777 79.7234 154.777 77.9277Z" fill="#628497"/>
<path d="M154.718 52.632C154.49 50.8528 152.942 49.607 151.261 49.8494C149.581 50.0918 148.404 51.7307 148.633 53.5099C148.862 55.2891 150.41 56.5349 152.09 56.2925C153.771 56.0501 154.947 54.4112 154.718 52.632Z" fill="#628497"/>
<path d="M152.292 24.9753C153.9 25.285 155.07 26.9882 154.778 28.6913C154.485 30.3945 152.877 31.6332 151.268 31.3235C149.66 31.0138 148.49 29.3107 148.782 27.6075C149.075 25.7495 150.683 24.6657 152.292 24.9753Z" fill="#628497"/>
<path d="M152.292 0.0477012C153.9 0.357364 155.07 2.06055 154.778 3.7637C154.485 5.46685 152.877 6.70543 151.268 6.39576C149.66 6.0861 148.49 4.38301 148.782 2.67986C149.075 0.976711 150.683 -0.261962 152.292 0.0477012Z" fill="#628497"/>
</g>
</svg>
