<svg width="24" height="24" viewBox="0 0 24 24" fill="none" xmlns="http://www.w3.org/2000/svg">
<g clip-path="url(#clip0_39_3942)">
<path d="M23.2969 16.9688H22.5469C22.5469 16.5687 22.5469 1.08028 22.5469 0.703125C22.5469 0.314812 22.2321 0 21.8438 0C21.2884 0 2.71158 0 2.15625 0C1.76794 0 1.45312 0.314812 1.45312 0.703125V9.14062V16.9688H0.703125C0.314812 16.9688 0 17.2836 0 17.6719V23.2969C0 23.6852 0.314812 24 0.703125 24H3.51562C3.90394 24 4.21875 23.6852 4.21875 23.2969V21.1875H9.89062V23.2969C9.89062 23.6852 10.2054 24 10.5938 24H13.4062C13.7946 24 14.1094 23.6852 14.1094 23.2969V21.1875H19.7812V23.2969C19.7812 23.6852 20.0961 24 20.4844 24H23.2969C23.6852 24 24 23.6852 24 23.2969C24 22.6163 24 18.3569 24 17.6719C24 17.2836 23.6852 16.9688 23.2969 16.9688ZM12.7031 16.9688V9.84375H14.8125V11.9531C14.8125 12.3414 15.1273 12.6562 15.5156 12.6562H18.3281C18.7164 12.6562 19.0312 12.3414 19.0312 11.9531V9.84375H21.1406V16.9688H12.7031ZM16.2188 9.84375H17.625V11.25H16.2188V9.84375ZM21.1406 8.4375H12.7031V1.40625H14.8125V3.51562C14.8125 3.90394 15.1273 4.21875 15.5156 4.21875H18.3281C18.7164 4.21875 19.0312 3.90394 19.0312 3.51562V1.40625H21.1406V8.4375ZM16.2188 1.40625H17.625V2.8125H16.2188V1.40625ZM6.375 1.40625H7.78125V2.8125H6.375V1.40625ZM4.96875 1.40625V3.51562C4.96875 3.90394 5.28356 4.21875 5.67188 4.21875H8.48438C8.87269 4.21875 9.1875 3.90394 9.1875 3.51562V1.40625H11.2969V8.4375H2.85938V1.40625H4.96875ZM6.375 9.84375H7.78125V11.25H6.375V9.84375ZM2.85938 9.84375H4.96875V11.9531C4.96875 12.3414 5.28356 12.6562 5.67188 12.6562H8.48438C8.87269 12.6562 9.1875 12.3414 9.1875 11.9531V9.84375H11.2969V16.9688H2.85938V9.84375ZM1.40625 18.375H22.5938V19.7812H1.40625V18.375ZM2.8125 22.5938H1.40625V21.1875H2.8125V22.5938ZM12.7031 22.5938H11.2969V21.1875H12.7031V22.5938ZM21.1875 22.5938V21.1875H22.5938V22.5938H21.1875Z" fill="#092839"/>
</g>
<defs>
<clipPath id="clip0_39_3942">
<rect width="24" height="24" fill="white"/>
</clipPath>
</defs>
</svg>
