<svg width="36" height="36" viewBox="0 0 36 36" fill="none" xmlns="http://www.w3.org/2000/svg">
<rect width="36" height="36" rx="5" fill="url(#paint0_linear_1063_11537)"/>
<path d="M25.362 32.5543H9.63804C8.67317 32.5543 7.74782 32.171 7.06556 31.4888C6.38329 30.8065 6 29.8812 6 28.9163V26.4627C6.00112 24.1792 6.90904 21.9896 8.52414 20.3753C10.1392 18.761 12.3293 17.8541 14.6128 17.8541H20.3872C22.6712 17.8541 24.8618 18.7614 26.477 20.3764C28.0922 21.9914 28.9997 24.1818 29 26.4659V28.9195C28.9992 29.8838 28.6155 30.8083 27.9333 31.4899C27.2512 32.1715 26.3263 32.5543 25.362 32.5543Z" fill="white"/>
<path d="M17.5003 16.253C20.8838 16.253 23.6268 13.5101 23.6268 10.1265C23.6268 6.74292 20.8838 4 17.5003 4C14.1167 4 11.3738 6.74292 11.3738 10.1265C11.3738 13.5101 14.1167 16.253 17.5003 16.253Z" fill="white"/>
<defs>
<linearGradient id="paint0_linear_1063_11537" x1="0" y1="18" x2="34.5" y2="18" gradientUnits="userSpaceOnUse">
<stop stop-color="#50AEE2" stop-opacity="0.71"/>
<stop offset="1" stop-color="#9ED4F2" stop-opacity="0.79"/>
</linearGradient>
</defs>
</svg>
