<svg width="24" height="24" viewBox="0 0 24 24" fill="none" xmlns="http://www.w3.org/2000/svg">
<path d="M18.875 15.6667C18.875 16.1736 18.4653 16.5833 17.9583 16.5833H16.125C15.6181 16.5833 15.2083 16.1736 15.2083 15.6667C15.2083 15.1598 15.6181 14.75 16.125 14.75H17.9583C18.4653 14.75 18.875 15.1598 18.875 15.6667ZM23 14.75V19.3333C23 21.3555 21.3555 23 19.3333 23H4.66667C2.6445 23 1 21.3555 1 19.3333V14.75C1 12.7278 2.6445 11.0833 4.66667 11.0833H5.58333V4.66667C5.58333 2.6445 7.22783 1 9.25 1H14.75C16.7722 1 18.4167 2.6445 18.4167 4.66667V11.0833H19.3333C21.3555 11.0833 23 12.7278 23 14.75ZM7.41667 11.0833H16.5833V4.66667C16.5833 3.65558 15.7611 2.83333 14.75 2.83333H9.25C8.23892 2.83333 7.41667 3.65558 7.41667 4.66667V11.0833ZM4.66667 21.1667H11.0833V12.9167H4.66667C3.65558 12.9167 2.83333 13.7389 2.83333 14.75V19.3333C2.83333 20.3444 3.65558 21.1667 4.66667 21.1667ZM21.1667 14.75C21.1667 13.7389 20.3444 12.9167 19.3333 12.9167H12.9167V21.1667H19.3333C20.3444 21.1667 21.1667 20.3444 21.1667 19.3333V14.75ZM7.875 14.75H6.04167C5.53475 14.75 5.125 15.1598 5.125 15.6667C5.125 16.1736 5.53475 16.5833 6.04167 16.5833H7.875C8.38192 16.5833 8.79167 16.1736 8.79167 15.6667C8.79167 15.1598 8.38192 14.75 7.875 14.75ZM13.8333 5.58333C13.8333 5.07642 13.4236 4.66667 12.9167 4.66667H11.0833C10.5764 4.66667 10.1667 5.07642 10.1667 5.58333C10.1667 6.09025 10.5764 6.5 11.0833 6.5H12.9167C13.4236 6.5 13.8333 6.09025 13.8333 5.58333Z" fill="black"/>
</svg>
