<svg width="24" height="24" viewBox="0 0 24 24" fill="none" xmlns="http://www.w3.org/2000/svg">
<path d="M6 5C6 2.79086 7.79086 1 10 1H14C16.2091 1 18 2.79086 18 5V12H6V5Z" fill="black"/>
<path d="M12.75 5.66667C13.2569 5.66667 13.6667 6.07642 13.6667 6.58333C13.6667 7.09025 13.2569 7.5 12.75 7.5H10.9167C10.4098 7.5 10 7.09025 10 6.58333C10 6.07642 10.4098 5.66667 10.9167 5.66667H12.75Z" fill="white"/>
<path d="M1 14C1 12.3431 2.34315 11 4 11H20C21.6569 11 23 12.3431 23 14V20C23 21.6569 21.6569 23 20 23H4C2.34315 23 1 21.6569 1 20V14Z" fill="black"/>
<path d="M17.75 14.6667C18.2569 14.6667 18.6667 15.0764 18.6667 15.5833C18.6667 16.0903 18.2569 16.5 17.75 16.5H15.9167C15.4098 16.5 15 16.0903 15 15.5833C15 15.0764 15.4098 14.6667 15.9167 14.6667H17.75Z" fill="white"/>
<path d="M7.75 14.6667C8.25692 14.6667 8.66667 15.0764 8.66667 15.5833C8.66667 16.0903 8.25692 16.5 7.75 16.5H5.91667C5.40975 16.5 5 16.0903 5 15.5833C5 15.0764 5.40975 14.6667 5.91667 14.6667H7.75Z" fill="white"/>
</svg>
