<svg width="22" height="22" viewBox="0 0 22 22" fill="none" xmlns="http://www.w3.org/2000/svg">
<path fill-rule="evenodd" clip-rule="evenodd" d="M5.5 0.75C2.87665 0.75 0.75 2.87665 0.75 5.5C0.75 8.12335 2.87665 10.25 5.5 10.25C8.12335 10.25 10.25 8.12335 10.25 5.5C10.25 2.87665 8.12335 0.75 5.5 0.75ZM2.25 5.5C2.25 3.70507 3.70507 2.25 5.5 2.25C7.29493 2.25 8.75 3.70507 8.75 5.5C8.75 7.29493 7.29493 8.75 5.5 8.75C3.70507 8.75 2.25 7.29493 2.25 5.5Z" fill="#092839"/>
<path fill-rule="evenodd" clip-rule="evenodd" d="M16.5 11.75C13.8766 11.75 11.75 13.8766 11.75 16.5C11.75 19.1234 13.8766 21.25 16.5 21.25C19.1234 21.25 21.25 19.1234 21.25 16.5C21.25 13.8766 19.1234 11.75 16.5 11.75ZM13.25 16.5C13.25 14.7051 14.7051 13.25 16.5 13.25C18.2949 13.25 19.75 14.7051 19.75 16.5C19.75 18.2949 18.2949 19.75 16.5 19.75C14.7051 19.75 13.25 18.2949 13.25 16.5Z" fill="#092839"/>
<path fill-rule="evenodd" clip-rule="evenodd" d="M11.75 5.5C11.75 2.87665 13.8766 0.75 16.5 0.75C19.1234 0.75 21.25 2.87665 21.25 5.5C21.25 8.12335 19.1234 10.25 16.5 10.25C13.8766 10.25 11.75 8.12335 11.75 5.5ZM16.5 2.25C14.7051 2.25 13.25 3.70507 13.25 5.5C13.25 7.29493 14.7051 8.75 16.5 8.75C18.2949 8.75 19.75 7.29493 19.75 5.5C19.75 3.70507 18.2949 2.25 16.5 2.25Z" fill="#092839"/>
<path fill-rule="evenodd" clip-rule="evenodd" d="M5.5 11.75C2.87665 11.75 0.75 13.8766 0.75 16.5C0.75 19.1234 2.87665 21.25 5.5 21.25C8.12335 21.25 10.25 19.1234 10.25 16.5C10.25 13.8766 8.12335 11.75 5.5 11.75ZM2.25 16.5C2.25 14.7051 3.70507 13.25 5.5 13.25C7.29493 13.25 8.75 14.7051 8.75 16.5C8.75 18.2949 7.29493 19.75 5.5 19.75C3.70507 19.75 2.25 18.2949 2.25 16.5Z" fill="#092839"/>
</svg>
