<svg width="199" height="176" viewBox="0 0 199 176" fill="none" xmlns="http://www.w3.org/2000/svg">
<path opacity="0.4" d="M89.3287 174.499C157.522 181.4 192.667 164.625 194.765 124.174C197.911 63.4961 144.911 70.0509 129.476 54.0592C114.041 38.0674 131.332 60.7937 101.606 27.655C81.7871 5.56224 55.3795 5.44878 22.3826 27.3155C-4.233 48.9776 -7.11159 77.3862 13.746 112.541C34.6036 147.694 59.7975 168.347 89.3287 174.499Z" fill="#E6EFFD"/>
<path d="M183.365 102.688H162.563C161.684 102.688 160.841 103.036 160.22 103.658C159.599 104.279 159.25 105.121 159.25 106C159.25 106.879 159.599 107.721 160.22 108.342C160.841 108.964 161.684 109.313 162.563 109.313H183.365C184.094 110.576 185.22 111.563 186.567 112.121C187.915 112.679 189.408 112.777 190.817 112.399C192.226 112.022 193.471 111.19 194.358 110.033C195.246 108.876 195.727 107.458 195.727 106C195.727 104.542 195.246 103.124 194.358 101.967C193.471 100.81 192.226 99.9782 190.817 99.6007C189.408 99.2233 187.915 99.3212 186.567 99.8793C185.22 100.437 184.094 101.425 183.365 102.688Z" fill="url(#paint0_linear_296_1887)"/>
<path d="M182.438 136.74V122.562C182.438 121.684 182.089 120.841 181.467 120.22C180.846 119.599 180.004 119.25 179.125 119.25H159.25C158.372 119.25 157.529 119.599 156.908 120.22C156.287 120.841 155.938 121.684 155.938 122.562C155.938 123.441 156.287 124.284 156.908 124.905C157.529 125.526 158.372 125.875 159.25 125.875H175.813V136.74C174.55 137.469 173.562 138.595 173.004 139.942C172.446 141.29 172.348 142.783 172.726 144.192C173.103 145.601 173.935 146.846 175.092 147.733C176.249 148.621 177.667 149.102 179.125 149.102C180.583 149.102 182.001 148.621 183.158 147.733C184.315 146.846 185.147 145.601 185.524 144.192C185.902 142.783 185.804 141.29 185.246 139.942C184.688 138.595 183.701 137.469 182.438 136.74Z" fill="url(#paint1_linear_296_1887)"/>
<path d="M102.938 33.125H92.0729C91.3437 31.862 90.2181 30.8749 88.8707 30.3168C87.5233 29.7587 86.0295 29.6608 84.6208 30.0382C83.2121 30.4157 81.9673 31.2474 81.0795 32.4045C80.1917 33.5615 79.7104 34.9791 79.7104 36.4375C79.7104 37.8959 80.1917 39.3135 81.0795 40.4705C81.9673 41.6276 83.2121 42.4593 84.6208 42.8368C86.0295 43.2142 87.5233 43.1163 88.8707 42.5582C90.2181 42.0001 91.3437 41.013 92.0729 39.75H99.6254V56.3125C99.6254 57.191 99.9743 58.0336 100.596 58.6548C101.217 59.276 102.059 59.625 102.938 59.625C103.816 59.625 104.659 59.276 105.28 58.6548C105.901 58.0336 106.25 57.191 106.25 56.3125V36.4375C106.25 35.559 105.901 34.7164 105.28 34.0952C104.659 33.474 103.816 33.125 102.938 33.125Z" fill="url(#paint2_linear_296_1887)"/>
<path d="M195.688 56.3125V43.0625C195.688 42.184 195.339 41.3414 194.717 40.7202C194.096 40.099 193.254 39.75 192.375 39.75H189.858C189.207 39.7495 188.572 39.5576 188.03 39.1983C187.488 38.839 187.064 38.3281 186.81 37.7294C186.81 37.2656 186.446 36.8019 186.247 36.3381C185.993 35.7349 185.924 35.07 186.048 34.4274C186.172 33.7848 186.483 33.1933 186.943 32.7275L188.731 30.9388C189.348 30.3181 189.695 29.4786 189.695 28.6034C189.695 27.7283 189.348 26.8888 188.731 26.2681L179.357 16.8937C178.736 16.2768 177.897 15.9305 177.022 15.9305C176.147 15.9305 175.307 16.2768 174.686 16.8937L172.898 18.6825C172.424 19.1624 171.814 19.4861 171.151 19.6105C170.488 19.7348 169.803 19.6537 169.188 19.3781L167.796 18.815C167.216 18.5466 166.726 18.116 166.385 17.5753C166.044 17.0345 165.867 16.4067 165.875 15.7675V13.25C165.875 12.3715 165.526 11.5289 164.905 10.9077C164.284 10.2865 163.441 9.9375 162.563 9.9375H149.313C148.434 9.9375 147.591 10.2865 146.97 10.9077C146.349 11.5289 146 12.3715 146 13.25V15.7675C146 16.4177 145.808 17.0534 145.448 17.5953C145.089 18.1372 144.578 18.5614 143.979 18.815L142.688 19.3781C142.084 19.6318 141.419 19.7011 140.777 19.5773C140.134 19.4535 139.543 19.1421 139.077 18.6825L137.288 16.8937C136.668 16.2768 135.828 15.9305 134.953 15.9305C134.078 15.9305 133.238 16.2768 132.618 16.8937L123.144 26.2681C122.527 26.8888 122.181 27.7283 122.181 28.6034C122.181 29.4786 122.527 30.3181 123.144 30.9388L124.933 32.7275C125.412 33.2015 125.736 33.8107 125.861 34.4737C125.985 35.1367 125.904 35.8218 125.628 36.4375C125.429 36.9013 125.231 37.365 125.065 37.8288C124.811 38.4275 124.387 38.9383 123.845 39.2976C123.303 39.657 122.668 39.8488 122.018 39.8494H119.5C118.622 39.8494 117.779 40.1984 117.158 40.8196C116.537 41.4408 116.188 42.2833 116.188 43.1619V56.4119C116.188 57.2904 116.537 58.133 117.158 58.7542C117.779 59.3754 118.622 59.7244 119.5 59.7244H122.018C122.668 59.7249 123.303 59.9168 123.845 60.2761C124.387 60.6354 124.811 61.1463 125.065 61.745C125.231 62.2087 125.429 62.6725 125.628 63.1362C125.882 63.7395 125.951 64.4044 125.827 65.0469C125.704 65.6895 125.392 66.2811 124.933 66.7469L123.144 68.5356C122.527 69.1563 122.181 69.9958 122.181 70.8709C122.181 71.7461 122.527 72.5856 123.144 73.2063L132.518 82.5806C133.139 83.1976 133.978 83.5439 134.853 83.5439C135.729 83.5439 136.568 83.1976 137.189 82.5806L138.978 80.7919C139.44 80.2953 140.044 79.9528 140.707 79.8106C141.371 79.6684 142.062 79.7334 142.688 79.9969L144.079 80.56C144.678 80.8136 145.188 81.2378 145.548 81.7797C145.907 82.3216 146.099 82.9573 146.099 83.6075V86.125C146.099 87.0035 146.448 87.8461 147.07 88.4673C147.691 89.0885 148.533 89.4375 149.412 89.4375H162.662C163.54 89.4375 164.383 89.0885 165.004 88.4673C165.625 87.8461 165.974 87.0035 165.974 86.125V83.6075C165.975 82.9573 166.167 82.3216 166.526 81.7797C166.885 81.2378 167.396 80.8136 167.995 80.56L169.386 79.9969C169.99 79.7432 170.654 79.6739 171.297 79.7977C171.94 79.9215 172.531 80.2329 172.997 80.6925L174.786 82.4812C175.406 83.0982 176.246 83.4445 177.121 83.4445C177.996 83.4445 178.836 83.0982 179.456 82.4812L188.831 73.1069C189.448 72.4862 189.794 71.6467 189.794 70.7716C189.794 69.8964 189.448 69.0569 188.831 68.4362L187.042 66.6475C186.545 66.185 186.203 65.5811 186.061 64.9176C185.918 64.2541 185.983 63.5629 186.247 62.9375C186.446 62.4737 186.644 62.01 186.81 61.5462C187.064 60.9475 187.488 60.4367 188.03 60.0774C188.572 59.718 189.207 59.5262 189.858 59.5256H192.375C193.237 59.526 194.064 59.1907 194.683 58.5908C195.301 57.9909 195.662 57.1737 195.688 56.3125Z" fill="url(#paint3_linear_296_1887)"/>
<path d="M155.938 66.25C165.085 66.25 172.5 58.8347 172.5 49.6875C172.5 40.5403 165.085 33.125 155.938 33.125C146.79 33.125 139.375 40.5403 139.375 49.6875C139.375 58.8347 146.79 66.25 155.938 66.25Z" fill="#4795EA"/>
<path d="M169.188 106C169.188 113.907 166.047 121.49 160.456 127.081C154.865 132.672 147.282 135.813 139.375 135.813H73.1252C65.2184 136.072 57.5325 133.179 51.7583 127.772C45.9842 122.364 42.5947 114.884 42.3355 106.977C42.0763 99.0704 44.9687 91.3845 50.3764 85.6104C55.7841 79.8362 63.264 76.4467 71.1708 76.1875C73.3199 68.5379 77.9106 61.8005 84.2435 57.0016C90.5764 52.2027 98.3044 49.6054 106.25 49.6054C114.196 49.6054 121.924 52.2027 128.257 57.0016C134.59 61.8005 139.18 68.5379 141.33 76.1875C148.893 76.6844 155.983 80.0433 161.158 85.5813C166.333 91.1193 169.204 98.4205 169.188 106Z" fill="url(#paint4_linear_296_1887)"/>
<path d="M112.875 89.4375H106.25C105.372 89.4375 104.529 89.7865 103.908 90.4077C103.287 91.0289 102.938 91.8715 102.938 92.75V112.625C102.938 113.504 103.287 114.346 103.908 114.967C104.529 115.589 105.372 115.938 106.25 115.938C107.129 115.938 107.971 115.589 108.592 114.967C109.214 114.346 109.563 113.504 109.563 112.625V109.312H112.875C115.511 109.312 118.038 108.266 119.902 106.402C121.766 104.538 122.813 102.011 122.813 99.375C122.813 96.7394 121.766 94.2118 119.902 92.3481C118.038 90.4845 115.511 89.4375 112.875 89.4375ZM112.875 102.688H109.563V96.0625H112.875C113.754 96.0625 114.596 96.4115 115.217 97.0327C115.839 97.6539 116.188 98.4965 116.188 99.375C116.188 100.254 115.839 101.096 115.217 101.717C114.596 102.339 113.754 102.688 112.875 102.688Z" fill="#B4CDE1"/>
<path d="M86.3751 89.4375C83.7395 89.4375 81.2118 90.4845 79.3482 92.3481C77.4845 94.2118 76.4376 96.7394 76.4376 99.375V112.625C76.4376 113.504 76.7866 114.346 77.4078 114.967C78.029 115.589 78.8715 115.938 79.7501 115.938C80.6286 115.938 81.4711 115.589 82.0924 114.967C82.7136 114.346 83.0626 113.504 83.0626 112.625V109.312H89.6876V112.625C89.6876 113.504 90.0366 114.346 90.6578 114.967C91.279 115.589 92.1215 115.938 93.0001 115.938C93.8786 115.938 94.7211 115.589 95.3424 114.967C95.9636 114.346 96.3126 113.504 96.3126 112.625V99.375C96.3126 96.7394 95.2656 94.2118 93.4019 92.3481C91.5383 90.4845 89.0106 89.4375 86.3751 89.4375ZM83.0626 102.688V99.375C83.0626 98.4965 83.4116 97.6539 84.0328 97.0327C84.654 96.4115 85.4965 96.0625 86.3751 96.0625C87.2536 96.0625 88.0961 96.4115 88.7174 97.0327C89.3386 97.6539 89.6876 98.4965 89.6876 99.375V102.688H83.0626Z" fill="#B4CDE1"/>
<path d="M132.75 115.938C131.872 115.938 131.029 115.589 130.408 114.967C129.787 114.346 129.438 113.504 129.438 112.625V92.75C129.438 91.8715 129.787 91.0289 130.408 90.4077C131.029 89.7865 131.872 89.4375 132.75 89.4375C133.629 89.4375 134.471 89.7865 135.092 90.4077C135.714 91.0289 136.063 91.8715 136.063 92.75V112.625C136.063 113.504 135.714 114.346 135.092 114.967C134.471 115.589 133.629 115.938 132.75 115.938Z" fill="#B4CDE1"/>
<defs>
<linearGradient id="paint0_linear_296_1887" x1="159.25" y1="106" x2="195.688" y2="106" gradientUnits="userSpaceOnUse">
<stop stop-color="#FE9661"/>
<stop offset="1" stop-color="#FFB369"/>
</linearGradient>
<linearGradient id="paint1_linear_296_1887" x1="155.938" y1="134.156" x2="185.75" y2="134.156" gradientUnits="userSpaceOnUse">
<stop stop-color="#FE9661"/>
<stop offset="1" stop-color="#FFB369"/>
</linearGradient>
<linearGradient id="paint2_linear_296_1887" x1="93.0004" y1="59.625" x2="93.0004" y2="29.8125" gradientUnits="userSpaceOnUse">
<stop stop-color="#FE9661"/>
<stop offset="1" stop-color="#FFB369"/>
</linearGradient>
<linearGradient id="paint3_linear_296_1887" x1="127.814" y1="77.8106" x2="184.061" y2="21.5644" gradientUnits="userSpaceOnUse">
<stop stop-color="#54A5FF"/>
<stop offset="1" stop-color="#8AD3FE"/>
</linearGradient>
<linearGradient id="paint4_linear_296_1887" x1="43.3127" y1="92.75" x2="169.188" y2="92.75" gradientUnits="userSpaceOnUse">
<stop stop-color="#D3E6F5"/>
<stop offset="1" stop-color="#F0F7FC"/>
</linearGradient>
</defs>
</svg>
