<svg width="112" height="23" viewBox="0 0 112 23" fill="none" xmlns="http://www.w3.org/2000/svg">
<rect width="112" height="23" fill="#7E7E7E"/>
<g id="1.0 Packing Slip" clip-path="url(#clip0_5657_6261)">
<rect width="1440" height="935" transform="translate(-773 -100)" fill="white"/>
<g id="Group 1144">
</g>
<rect id="Rectangle 162" x="-773" y="-100" width="1440" height="935" fill="#2C2C2C" fill-opacity="0.64"/>
<g id="Frame 547">
<rect width="384" height="576" transform="translate(-248 -50)" fill="white"/>
<rect id="Rectangle 310" x="-235.557" y="-37.557" width="359.114" height="551.114" fill="white" stroke="#DCE2F1" stroke-width="0.885956"/>
<g id="Group 1420">
<g id="Group 1255">
<g id="Group 1256">
<g id="Group 1372">
<g id="Group 1407">
<rect id="Rectangle 312" width="2.92812" height="22.6929" fill="#061822"/>
<rect id="Rectangle 313" x="5.12451" width="1.46406" height="22.6929" fill="#061822"/>
<rect id="Rectangle 314" x="8.78418" width="5.85624" height="22.6929" fill="#061822"/>
<rect id="Rectangle 316" x="19.7646" width="5.85624" height="22.6929" fill="#061822"/>
<rect id="Rectangle 322" x="42.4575" width="5.85624" height="22.6929" fill="#061822"/>
<rect id="Rectangle 315" x="16.8367" width="0.732029" height="22.6929" fill="#061822"/>
<rect id="Rectangle 323" x="53.438" width="2.92812" height="22.6929" fill="#061822"/>
<rect id="Rectangle 325" x="58.5625" width="2.92812" height="22.6929" fill="#061822"/>
<rect id="Rectangle 326" x="63.687" width="2.92812" height="22.6929" fill="#061822"/>
<rect id="Rectangle 327" x="68.8103" width="2.92812" height="22.6929" fill="#061822"/>
<rect id="Rectangle 328" x="73.9351" width="2.92812" height="22.6929" fill="#061822"/>
<rect id="Rectangle 329" x="79.0596" width="2.92812" height="22.6929" fill="#061822"/>
<rect id="Rectangle 330" x="84.1836" width="2.92812" height="22.6929" fill="#061822"/>
<rect id="Rectangle 331" x="89.3074" width="2.92812" height="22.6929" fill="#061822"/>
<rect id="Rectangle 332" x="94.4319" width="2.92812" height="22.6929" fill="#061822"/>
<rect id="Rectangle 324" x="50.51" width="0.732029" height="22.6929" fill="#061822"/>
<rect id="Rectangle 317" x="27.8176" width="0.732029" height="22.6929" fill="#061822"/>
<rect id="Rectangle 318" x="30.7449" width="0.732029" height="22.6929" fill="#061822"/>
<rect id="Rectangle 319" x="33.6733" width="0.732029" height="22.6929" fill="#061822"/>
<rect id="Rectangle 320" x="36.6018" width="0.732029" height="22.6929" fill="#061822"/>
<rect id="Rectangle 321" x="39.5291" width="0.732029" height="22.6929" fill="#061822"/>
<rect id="Rectangle 333" x="99.5566" width="0.732029" height="22.6929" fill="#061822"/>
<rect id="Rectangle 334" x="102.484" width="0.732029" height="22.6929" fill="#061822"/>
<rect id="Rectangle 335" x="105.412" width="0.732029" height="22.6929" fill="#061822"/>
<rect id="Rectangle 336" x="108.341" width="0.732029" height="22.6929" fill="#061822"/>
<rect id="Rectangle 337" x="111.268" width="0.732029" height="22.6929" fill="#061822"/>
</g>
</g>
</g>
</g>
</g>
</g>
</g>
<defs>
<clipPath id="clip0_5657_6261">
<rect width="1440" height="935" fill="white" transform="translate(-773 -100)"/>
</clipPath>
</defs>
</svg>
