<svg width="24" height="24" viewBox="0 0 24 24" fill="none" xmlns="http://www.w3.org/2000/svg">
<path d="M17.625 21C18.2666 20.4297 19.2334 20.4297 19.875 21C20.3109 21.3875 21 21.078 21 20.4948V3.50504C21 2.92181 20.3109 2.61236 19.875 2.99984C19.2334 3.57014 18.2666 3.57014 17.625 2.99984C16.9834 2.42954 16.0166 2.42954 15.375 2.99984C14.7334 3.57014 13.7666 3.57014 13.125 2.99984C12.4834 2.42954 11.5166 2.42954 10.875 2.99984C10.2334 3.57014 9.26659 3.57014 8.625 2.99984C7.98341 2.42954 7.01659 2.42954 6.375 2.99984C5.73341 3.57014 4.76659 3.57014 4.125 2.99984C3.68909 2.61236 3 2.92181 3 3.50504V20.4948C3 21.078 3.68909 21.3875 4.125 21C4.76659 20.4297 5.73341 20.4297 6.375 21C7.01659 21.5703 7.98341 21.5703 8.625 21C9.26659 20.4297 10.2334 20.4297 10.875 21C11.5166 21.5703 12.4834 21.5703 13.125 21C13.7666 20.4297 14.7334 20.4297 15.375 21C16.0166 21.5703 16.9834 21.5703 17.625 21Z" stroke="#092839" stroke-width="1.5"/>
<path d="M7.5 15.5H16.5" stroke="#092839" stroke-width="1.5" stroke-linecap="round"/>
<path d="M7.5 12H16.5" stroke="#092839" stroke-width="1.5" stroke-linecap="round"/>
<path d="M7.5 8.5H16.5" stroke="#092839" stroke-width="1.5" stroke-linecap="round"/>
</svg>
