<svg width="20" height="20" viewBox="0 0 20 20" fill="none" xmlns="http://www.w3.org/2000/svg">
<g clip-path="url(#clip0_262_2049)">
<circle cx="9.99935" cy="10.0001" r="5.83333" fill="white"/>
<path d="M2.42043 13.4527C2.53246 13.698 2.42449 13.9877 2.17914 14.0997C2.11339 14.1298 2.04445 14.144 1.97656 14.144C1.79129 14.144 1.61414 14.038 1.53211 13.8584C0.657418 11.9436 0.462457 9.75906 0.98316 7.70711C1.51109 5.62672 2.75566 3.77945 4.48765 2.50563C6.118 1.30656 8.04714 0.681837 10.0647 0.696563C11.6396 0.708751 13.2044 1.12942 14.5715 1.8966L14.3228 1.17477C14.235 0.919806 14.3705 0.641915 14.6254 0.554063C14.8802 0.466329 15.1583 0.60172 15.2461 0.856681L15.9691 2.9552C16.0175 3.09582 15.9992 3.25082 15.9194 3.37629C15.8396 3.5018 15.7069 3.58402 15.559 3.59977L13.2786 3.84203C13.0105 3.87078 12.77 3.67629 12.7415 3.40809C12.713 3.13996 12.9073 2.89945 13.1754 2.87098L14.1358 2.76895C11.2965 1.13641 7.76019 1.31113 5.06625 3.29234C1.9057 5.61691 0.792965 9.88992 2.42043 13.4527ZM18.4671 6.14176C18.355 5.89645 18.0652 5.78844 17.8201 5.90047C17.5748 6.0125 17.4668 6.30219 17.5788 6.54746C19.2062 10.1103 18.0935 14.3833 14.9329 16.7079C12.2389 18.6892 8.70257 18.8638 5.8634 17.2313L6.82379 17.1292C7.09195 17.1007 7.28625 16.8602 7.25773 16.5921C7.22925 16.3239 6.98839 16.1298 6.72062 16.1582L4.44019 16.4004C4.2923 16.4161 4.15961 16.4984 4.07976 16.6239C3.99996 16.7494 3.98164 16.9044 4.03011 17.045L4.75308 19.1435C4.82277 19.3458 5.01211 19.4729 5.21468 19.4729C5.26746 19.4729 5.32113 19.4642 5.37375 19.4461C5.62871 19.3582 5.76421 19.0804 5.67636 18.8254L5.42769 18.1036C6.79476 18.8707 8.35961 19.2914 9.93441 19.3036C9.95906 19.3038 9.98332 19.3039 10.0079 19.3039C11.9993 19.3038 13.9011 18.6789 15.5115 17.4945C17.2436 16.2207 18.4881 14.3734 19.0161 12.293C19.5367 10.2411 19.3418 8.0566 18.4671 6.14176ZM3.99855 10.0001C3.99855 6.69113 6.69062 3.9991 9.99961 3.9991C13.3086 3.9991 16.0006 6.69113 16.0006 10.0001C16.0006 13.3091 13.3086 16.0012 9.99961 16.0012C6.69062 16.0012 3.99855 13.3091 3.99855 10.0001ZM4.97511 10.0001C4.97511 12.7706 7.2291 15.0246 9.99961 15.0246C12.7701 15.0246 15.0241 12.7706 15.0241 10.0001C15.0241 7.22961 12.7701 4.97567 9.99961 4.97567C7.2291 4.97567 4.97511 7.22961 4.97511 10.0001ZM10.8857 11.8216C10.2049 12.1605 8.97863 11.9407 8.69898 11.4298C8.56949 11.1932 8.27269 11.1065 8.03621 11.2359C7.79964 11.3654 7.71289 11.6621 7.84234 11.8987C8.11742 12.4012 8.70179 12.7678 9.44558 12.9045C9.46734 12.9085 9.48902 12.9122 9.51086 12.9158V13.4925C9.51086 13.7621 9.72949 13.9807 9.99914 13.9807C10.2688 13.9807 10.4874 13.7621 10.4874 13.4925V12.9356C10.7925 12.8973 11.0785 12.8165 11.3207 12.696C11.8101 12.4526 12.1406 11.993 12.2048 11.4666C12.2812 10.84 11.9873 10.2975 11.3773 9.93918C10.9561 9.69184 10.5119 9.58602 10.0824 9.48371C9.93507 9.44863 9.79586 9.41547 9.65707 9.3768C9.22648 9.25668 8.9905 9.12172 8.86789 8.92543C8.74894 8.73508 8.77972 8.52277 8.95234 8.34297C9.19289 8.09238 9.75523 7.96344 10.2888 8.03598C10.7211 8.09488 11.0671 8.27524 11.1917 8.50664C11.3196 8.74406 11.6158 8.83281 11.8532 8.70492C12.0906 8.57703 12.1794 8.2809 12.0515 8.04344C11.7815 7.54231 11.2137 7.19281 10.4874 7.07817V6.50781C10.4874 6.23816 10.2688 6.01953 9.99914 6.01953C9.72949 6.01953 9.51086 6.23816 9.51086 6.50781V7.07426C8.99707 7.15301 8.54254 7.35973 8.24785 7.66664C7.76289 8.17188 7.68117 8.86906 8.03968 9.44285C8.37257 9.9759 8.93871 10.1902 9.39472 10.3174C9.55144 10.3611 9.70632 10.398 9.85613 10.4338C10.2323 10.5233 10.5876 10.608 10.8828 10.7813C11.2286 10.9845 11.2566 11.1739 11.2353 11.3485C11.2111 11.548 11.0803 11.7248 10.8857 11.8216Z" fill="#217E00"/>
</g>
<defs>
<clipPath id="clip0_262_2049">
<rect width="20" height="20" fill="white"/>
</clipPath>
</defs>
</svg>
