<svg width="20" height="20" viewBox="0 0 20 20" fill="none" xmlns="http://www.w3.org/2000/svg">
<path d="M13.3333 3.33334C15.1459 3.34343 16.1274 3.42381 16.7678 4.06413C17.5 4.79636 17.5 5.97487 17.5 8.3319V13.3319C17.5 15.6889 17.5 16.8674 16.7678 17.5997C16.0355 18.3319 14.857 18.3319 12.5 18.3319H7.5C5.14298 18.3319 3.96447 18.3319 3.23223 17.5997C2.5 16.8674 2.5 15.6889 2.5 13.3319V8.33189C2.5 5.97487 2.5 4.79636 3.23223 4.06413C3.87255 3.42381 4.85414 3.34343 6.66667 3.33334" stroke="#929799" stroke-width="1.25"/>
<path d="M7.5 11.1667L8.92857 12.5L12.5 9.16666" stroke="#929799" stroke-width="1.25" stroke-linecap="round" stroke-linejoin="round"/>
<path d="M6.66667 2.91666C6.66667 2.2263 7.22632 1.66666 7.91667 1.66666H12.0833C12.7737 1.66666 13.3333 2.2263 13.3333 2.91666V3.74999C13.3333 4.44035 12.7737 4.99999 12.0833 4.99999H7.91667C7.22632 4.99999 6.66667 4.44035 6.66667 3.74999V2.91666Z" stroke="#929799" stroke-width="1.25"/>
</svg>
