<svg width="25" height="24" viewBox="0 0 25 24" fill="none" xmlns="http://www.w3.org/2000/svg">
<g id="Line Duotone / Essentional, UI / Delivery">
<path id="Vector" d="M8.17985 15.2648C8.29015 15.6641 8.70323 15.8983 9.10249 15.788C9.50174 15.6777 9.73599 15.2646 9.62569 14.8654L8.17985 15.2648ZM6.7505 7.27458L7.47342 7.07486V7.07486L6.7505 7.27458ZM5.37728 5.92011L5.17677 6.64281L5.37728 5.92011ZM3.8741 4.72472C3.47496 4.61398 3.06162 4.84777 2.95088 5.24691C2.84014 5.64604 3.07394 6.05938 3.47307 6.17012L3.8741 4.72472ZM20.8622 15.7256C21.2631 15.6214 21.5037 15.212 21.3995 14.8111C21.2953 14.4102 20.8858 14.1696 20.4849 14.2738L20.8622 15.7256ZM10.8714 17.559C11.181 18.6796 10.5014 19.862 9.29747 20.1749L9.67476 21.6266C11.6518 21.1128 12.8599 19.124 12.3172 17.1595L10.8714 17.559ZM9.29747 20.1749C8.08575 20.4898 6.86981 19.7865 6.55759 18.6564L5.11175 19.0558C5.65187 21.0108 7.70554 22.1384 9.67476 21.6266L9.29747 20.1749ZM6.55759 18.6564C6.24799 17.5357 6.92759 16.3533 8.13148 16.0405L7.75419 14.5887C5.77714 15.1025 4.56903 17.0913 5.11175 19.0558L6.55759 18.6564ZM8.13148 16.0405C9.3432 15.7255 10.5591 16.4289 10.8714 17.559L12.3172 17.1595C11.7771 15.2045 9.72341 14.0769 7.75419 14.5887L8.13148 16.0405ZM9.62569 14.8654L7.47342 7.07486L6.02758 7.47429L8.17985 15.2648L9.62569 14.8654ZM5.57779 5.19741L3.8741 4.72472L3.47307 6.17012L5.17677 6.64281L5.57779 5.19741ZM7.47342 7.07486C7.2203 6.15862 6.49468 5.45179 5.57779 5.19741L5.17677 6.64281C5.60237 6.76089 5.91931 7.08238 6.02758 7.47429L7.47342 7.07486ZM11.7829 18.0851L20.8622 15.7256L20.4849 14.2738L11.4056 16.6334L11.7829 18.0851Z" fill="#092839"/>
<path id="Vector_2" d="M10.239 8.73049C9.75398 6.97492 9.51148 6.09714 9.92312 5.40562C10.3348 4.71409 11.2398 4.47889 13.0499 4.00849L14.9697 3.50955C16.7798 3.03915 17.6848 2.80394 18.3978 3.20319C19.1108 3.60244 19.3533 4.48023 19.8383 6.2358L20.3528 8.09786C20.8378 9.85343 21.0803 10.7312 20.6686 11.4227C20.257 12.1143 19.3519 12.3495 17.5419 12.8199L15.622 13.3188C13.8119 13.7892 12.9069 14.0244 12.1939 13.6252C11.4809 13.2259 11.2384 12.3481 10.7534 10.5926L10.239 8.73049Z" stroke="#092839" stroke-width="1.5"/>
</g>
</svg>
