<svg width="20" height="20" viewBox="0 0 20 20" fill="none" xmlns="http://www.w3.org/2000/svg">
<path d="M3.11807 17.1288C4.11776 18.3333 5.97835 18.3333 9.69952 18.3333H10.3005C14.0217 18.3333 15.8823 18.3333 16.882 17.1288M3.11807 17.1288C2.11839 15.9242 2.46127 14.0955 3.14704 10.4381C3.63473 7.8371 3.87857 6.53661 4.80432 5.7683M3.11807 17.1288C3.11807 17.1288 3.11807 17.1288 3.11807 17.1288ZM16.882 17.1288C17.8816 15.9242 17.5388 14.0955 16.853 10.4381C16.3653 7.8371 16.1215 6.53661 15.1957 5.7683M16.882 17.1288C16.882 17.1288 16.882 17.1288 16.882 17.1288ZM15.1957 5.7683C14.27 5 12.9468 5 10.3005 5H9.69952C7.05322 5 5.73007 5 4.80432 5.7683M15.1957 5.7683C15.1957 5.7683 15.1957 5.7683 15.1957 5.7683ZM4.80432 5.7683C4.80432 5.7683 4.80432 5.7683 4.80432 5.7683Z" stroke="#929799" stroke-width="1.5"/>
<path d="M8.33334 11.9167C8.76726 12.3072 9.01054 12.5261 9.44445 12.9167L11.6667 10.4167" stroke="#929799" stroke-width="1.5" stroke-linecap="round" stroke-linejoin="round"/>
<path d="M7.5 4.99999V4.16666C7.5 2.78594 8.61929 1.66666 10 1.66666C11.3807 1.66666 12.5 2.78594 12.5 4.16666V4.99999" stroke="#929799" stroke-width="1.5" stroke-linecap="round"/>
</svg>
