<svg width="25" height="24" viewBox="0 0 25 24" fill="none" xmlns="http://www.w3.org/2000/svg">
<g clip-path="url(#clip0_5628_872)">
<path d="M18.126 14.2686C16.4579 14.2686 15.1008 15.6256 15.1008 17.2938C15.1008 18.9619 16.4579 20.319 18.126 20.319C19.7945 20.319 21.1513 18.9619 21.1513 17.2938C21.1513 15.6256 19.7942 14.2686 18.126 14.2686ZM18.126 18.8064C17.2919 18.8064 16.6134 18.128 16.6134 17.2938C16.6134 16.4596 17.2919 15.7812 18.126 15.7812C18.9602 15.7812 19.6387 16.4596 19.6387 17.2938C19.6387 18.128 18.9602 18.8064 18.126 18.8064Z" fill="#929799"/>
<path d="M7.78987 14.2686C6.12173 14.2686 4.76465 15.6256 4.76465 17.2938C4.76465 18.9619 6.12173 20.319 7.78987 20.319C9.45801 20.319 10.8151 18.9619 10.8151 17.2938C10.8151 15.6256 9.45801 14.2686 7.78987 14.2686ZM7.78987 18.8064C6.95568 18.8064 6.27726 18.128 6.27726 17.2938C6.27726 16.4596 6.95568 15.7812 7.78987 15.7812C8.62382 15.7812 9.30248 16.4596 9.30248 17.2938C9.30248 18.128 8.62405 18.8064 7.78987 18.8064Z" fill="#929799"/>
<path d="M20.1632 5.60984C20.0347 5.35447 19.7732 5.19336 19.4874 5.19336H15.5042V6.70597H19.0209L21.0804 10.8021L22.4321 10.1224L20.1632 5.60984Z" fill="#929799"/>
<path d="M15.8572 16.5635H10.1345V18.0761H15.8572V16.5635Z" fill="#929799"/>
<path d="M5.52092 16.5635H2.8991C2.48135 16.5635 2.14282 16.9021 2.14282 17.3198C2.14282 17.7375 2.4814 18.076 2.8991 18.076H5.52096C5.93871 18.076 6.27724 17.7375 6.27724 17.3198C6.27724 16.902 5.93867 16.5635 5.52092 16.5635Z" fill="#929799"/>
<path d="M23.8412 11.9395L22.3536 10.0235C22.2107 9.83896 21.9901 9.73105 21.7564 9.73105H16.2606V4.43695C16.2606 4.0192 15.922 3.68066 15.5043 3.68066H2.89923C2.48148 3.68066 2.14294 4.01924 2.14294 4.43695C2.14294 4.85465 2.48152 5.19323 2.89923 5.19323H14.748V10.4873C14.748 10.9051 15.0865 11.2436 15.5042 11.2436H21.386L22.4874 12.6624V16.5629H20.395C19.9772 16.5629 19.6387 16.9015 19.6387 17.3192C19.6387 17.737 19.9773 18.0755 20.395 18.0755H23.2437C23.6615 18.0755 24 17.7369 24.0001 17.3192V12.4034C24.0001 12.2354 23.9441 12.0721 23.8412 11.9395Z" fill="#929799"/>
<path d="M5.47065 12.7314H1.99163C1.57388 12.7314 1.23535 13.07 1.23535 13.4877C1.23535 13.9055 1.57393 14.244 1.99163 14.244H5.4706C5.88835 14.244 6.22688 13.9054 6.22688 13.4877C6.22693 13.07 5.88835 12.7314 5.47065 12.7314Z" fill="#929799"/>
<path d="M7.21008 9.75586H0.756281C0.338578 9.75586 0 10.0944 0 10.5122C0 10.9299 0.338578 11.2685 0.756281 11.2685H7.21008C7.62783 11.2685 7.96636 10.9299 7.96636 10.5122C7.96636 10.0945 7.62783 9.75586 7.21008 9.75586Z" fill="#929799"/>
<path d="M8.44543 6.78125H1.99163C1.57388 6.78125 1.23535 7.11983 1.23535 7.53753C1.23535 7.95528 1.57393 8.29381 1.99163 8.29381H8.44543C8.86318 8.29381 9.20171 7.95523 9.20171 7.53753C9.20176 7.11983 8.86318 6.78125 8.44543 6.78125Z" fill="#929799"/>
</g>
<defs>
<clipPath id="clip0_5628_872">
<rect width="23.9808" height="24" fill="white" transform="translate(0.207153)"/>
</clipPath>
</defs>
</svg>
