<svg width="24" height="24" viewBox="0 0 24 24" fill="none" xmlns="http://www.w3.org/2000/svg">
<path d="M15.5777 3.38197L17.5777 4.43152C19.7294 5.56066 20.8052 6.12523 21.4026 7.13974C22 8.15425 22 9.41667 22 11.9415V12.0585C22 14.5833 22 15.8458 21.4026 16.8603C20.8052 17.8748 19.7294 18.4393 17.5777 19.5685L15.5777 20.618C13.8221 21.5393 12.9443 22 12 22C11.0557 22 10.1779 21.5393 8.42229 20.618L6.42229 19.5685C4.27063 18.4393 3.19479 17.8748 2.5974 16.8603C2 15.8458 2 14.5833 2 12.0585V11.9415C2 9.41667 2 8.15425 2.5974 7.13974C3.19479 6.12523 4.27063 5.56066 6.42229 4.43152L8.42229 3.38197C10.1779 2.46066 11.0557 2 12 2C12.9443 2 13.8221 2.46066 15.5777 3.38197Z" stroke="#FFFFFF" stroke-width="1.5" stroke-linecap="round"/>
<path d="M21 7.5L12 12M12 12L3 7.5M12 12V21.5" stroke="#FFFFFF" stroke-width="1.5" stroke-linecap="round"/>
<path d="M9.3479 13.7389C9.43056 13.7389 9.50951 13.7778 9.56524 13.8455L9.92332 14.2803L9.95875 14.3333C10.0288 14.4636 10.0091 14.6348 9.90417 14.741C9.82592 14.8201 9.71994 14.8422 9.62508 14.8121C9.49805 16.0241 8.64228 17 7.55843 17C7.00518 17 6.50614 16.742 6.1371 16.3291L6.06481 16.2442L6.02987 16.1911C5.96053 16.0602 5.98113 15.8889 6.08683 15.7834C6.19254 15.678 6.34829 15.6736 6.45832 15.7638L6.50237 15.8079L6.55503 15.87C6.82362 16.1706 7.17638 16.3482 7.55843 16.3482C8.27563 16.3482 8.90641 15.7079 9.03098 14.8211C8.94719 14.8342 8.859 14.8092 8.79162 14.741C8.67171 14.6196 8.66347 14.4133 8.77295 14.2803L9.05253 14.5632L8.99029 14.5L8.77295 14.2803L9.13104 13.8455L9.17652 13.8004C9.22607 13.761 9.28587 13.7389 9.3479 13.7389ZM7.44162 12C8.03646 12 8.56798 12.2981 8.94338 12.7659L9.01614 12.862L9.0487 12.9172C9.11114 13.0521 9.08153 13.2215 8.97066 13.3201C8.85979 13.4186 8.70441 13.4137 8.59917 13.3169L8.55705 13.2696L8.50391 13.1996C8.22915 12.8569 7.85196 12.6518 7.44162 12.6518C6.72454 12.6518 6.09331 13.2918 5.96859 14.1783C6.0525 14.1651 6.14094 14.1907 6.20843 14.259C6.32834 14.3804 6.33658 14.5867 6.2271 14.7197L5.86901 15.1545C5.81332 15.2221 5.73476 15.2611 5.65215 15.2611C5.56949 15.2611 5.49054 15.2222 5.43481 15.1545L5.07673 14.7197L5.0413 14.6667C4.97128 14.5364 4.99092 14.3652 5.09588 14.259C5.17397 14.1801 5.27977 14.1575 5.37449 14.1874C5.50169 12.9756 6.35791 12 7.44162 12Z" fill="#FFFFFF"/>
<path d="M9.43167 13.6484C9.51369 13.6678 9.5876 13.7154 9.6426 13.7822L10 14.2168L10.0069 14.2246L10.042 14.2773L10.0469 14.2861L10.0752 14.3506C10.1213 14.484 10.1035 14.6379 10.0215 14.7559L9.97561 14.8115C9.90086 14.8871 9.80544 14.9223 9.70999 14.9229C9.55425 16.0461 8.78634 16.9735 7.77053 17.0879L7.55862 17.0996C6.97269 17.0996 6.44754 16.8263 6.06253 16.3955L6.06057 16.3936L5.98831 16.3086L5.98049 16.2998L6.06481 16.2442L6.1371 16.3291C6.45999 16.6903 6.88238 16.9332 7.35354 16.9883L7.55843 17C8.64228 17 9.49805 16.0241 9.62508 14.8121C9.69615 14.8346 9.77364 14.8281 9.84085 14.79L9.90417 14.741C9.99606 14.648 10.0223 14.5053 9.98049 14.3838L9.95875 14.3333L9.92332 14.2803L9.56524 13.8455C9.52352 13.7949 9.46877 13.7603 9.4092 13.7461L9.3479 13.7389C9.28587 13.7389 9.22607 13.761 9.17652 13.8004L9.13104 13.8455L8.77295 14.2803C8.66347 14.4133 8.67171 14.6196 8.79162 14.741C8.859 14.8092 8.94719 14.8342 9.03098 14.8211C8.90641 15.7079 8.27563 16.3482 7.55843 16.3482L7.55862 16.248C8.18392 16.2479 8.75905 15.7086 8.91213 14.9141C8.87126 14.9055 8.83114 14.8919 8.79397 14.8691L8.72073 14.8115C8.56426 14.6531 8.55407 14.3887 8.69534 14.2168L9.05374 13.7822L9.06057 13.7744L9.10647 13.7295L9.11428 13.7217C9.18025 13.6692 9.26176 13.6388 9.34768 13.6387L9.43167 13.6484ZM6.57913 15.7432L6.62893 15.8037C6.88148 16.0862 7.20937 16.248 7.55862 16.248L7.55843 16.3482L7.41702 16.3398C7.08974 16.3018 6.79013 16.1331 6.55503 15.87L6.50237 15.8079L6.45832 15.7638L6.52932 15.6934L6.57913 15.7432ZM6.07229 15.666C6.19094 15.5845 6.34029 15.5789 6.46292 15.6465L6.52151 15.6865L6.52932 15.6934L6.45832 15.7638C6.34829 15.6736 6.19254 15.678 6.08683 15.7834L6.05081 15.8262C5.97725 15.9314 5.96927 16.0767 6.02987 16.1911L6.06481 16.2442L5.98147 16.2988L5.94631 16.2461L5.94143 16.2383C5.8528 16.071 5.87788 15.8513 6.01663 15.7129L6.07229 15.666ZM7.67483 11.9141C8.13286 11.9717 8.5437 12.1976 8.86721 12.5293L9.02151 12.7031L9.02346 12.7051L9.09573 12.8018L9.10256 12.8105L9.01614 12.862L8.94338 12.7659C8.61483 12.3566 8.1666 12.077 7.66116 12.0137L7.44162 12C6.35791 12 5.50169 12.9756 5.37449 14.1874C5.27977 14.1575 5.17397 14.1801 5.09588 14.259L5.06057 14.3018C4.98747 14.4075 4.98003 14.5527 5.0413 14.6667L5.07673 14.7197L5.43481 15.1545C5.47654 15.2051 5.53128 15.2397 5.59085 15.2539L5.65215 15.2611C5.71412 15.2611 5.77382 15.2388 5.82327 15.1992L5.86901 15.1545L6.2271 14.7197C6.32265 14.6034 6.32828 14.4311 6.24807 14.3086L6.20843 14.259C6.14094 14.1907 6.0525 14.1651 5.96859 14.1783C6.09331 13.2918 6.72454 12.6518 7.44162 12.6518L7.59378 12.6611C7.94457 12.705 8.2635 12.8998 8.50391 13.1996L8.55705 13.2696L8.59917 13.3169C8.69112 13.4015 8.82141 13.416 8.92678 13.3525L8.97066 13.3201C9.06781 13.2337 9.10231 13.093 9.06741 12.9688L9.0487 12.9172L9.01614 12.862L9.10256 12.8105L9.13479 12.8662L9.13967 12.875L9.16409 12.9414C9.20222 13.0773 9.17562 13.2294 9.08694 13.3418L9.03713 13.3945C8.88699 13.528 8.67342 13.5215 8.53128 13.3906L8.52444 13.3838L8.48245 13.3359L8.47756 13.3301L8.42385 13.2598C8.19751 12.9788 7.90172 12.8009 7.58108 12.7607L7.44143 12.752C6.81624 12.7521 6.23925 13.2908 6.08596 14.085C6.15609 14.0995 6.22366 14.1322 6.27932 14.1885L6.33108 14.2529C6.42088 14.3892 6.42834 14.571 6.35061 14.7148L6.30471 14.7832L5.94631 15.2178C5.8915 15.2844 5.8181 15.3321 5.73635 15.3516L5.65237 15.3613C5.56621 15.3613 5.48421 15.3311 5.41799 15.2783L5.35745 15.2178L5.00003 14.7832L4.99319 14.7754L4.95803 14.7227L4.95315 14.7139C4.86366 14.5473 4.88689 14.3277 5.02444 14.1885L5.11038 14.123C5.16617 14.0914 5.2275 14.0768 5.28909 14.0762C5.45579 12.8764 6.32229 11.9005 7.44143 11.9004L7.67483 11.9141Z" fill="#FFFFFF"/>
</svg>
