<svg width="26" height="16" viewBox="0 0 26 16" fill="none" xmlns="http://www.w3.org/2000/svg">
<path d="M23.3199 6.84517L22.6984 4.35915C22.8683 4.32306 22.9958 4.17231 22.9958 3.9917V3.59087C22.9958 2.72059 22.2878 2.01259 21.4175 2.01259H18.5867V1.1858C18.5867 0.757555 18.2383 0.40918 17.81 0.40918H3.37994C2.95169 0.40918 2.60331 0.757555 2.60331 1.1858V8.00002C2.60331 8.20754 2.77155 8.37582 2.97911 8.37582C3.18663 8.37582 3.35491 8.20759 3.35491 8.00002V1.1858C3.35491 1.17198 3.36611 1.16077 3.37994 1.16077H17.81C17.8238 1.16077 17.835 1.17198 17.835 1.1858V8.00012C17.835 8.20763 18.0033 8.37592 18.2108 8.37592C18.4183 8.37592 18.5866 8.20768 18.5866 8.00012V7.57412H23.0195C23.0199 7.57412 23.0202 7.57421 23.0205 7.57421C23.0209 7.57421 23.0212 7.57416 23.0215 7.57416C23.567 7.57454 24.0302 7.93257 24.1893 8.42593H23.0208C22.8133 8.42593 22.645 8.59416 22.645 8.80173V9.60338C22.645 10.2526 23.1732 10.7808 23.8225 10.7808H24.2484V12.4343H23.2658C22.943 11.5022 22.057 10.8309 21.0166 10.8309C19.9762 10.8309 19.0902 11.5022 18.7675 12.4343H18.5865V9.60334C18.5865 9.39582 18.4183 9.22754 18.2107 9.22754C18.0032 9.22754 17.8349 9.39577 17.8349 9.60334V12.4342H10.0383C9.71552 11.5022 8.82953 10.8308 7.78914 10.8308C6.74875 10.8308 5.86272 11.5022 5.53998 12.4342H3.37994C3.36611 12.4342 3.35491 12.423 3.35491 12.4091V11.5824H4.9833C5.19081 11.5824 5.35909 11.4142 5.35909 11.2066C5.35909 10.999 5.19086 10.8308 4.9833 10.8308H1.3758C1.16828 10.8308 1 10.999 1 11.2066C1 11.4142 1.16823 11.5824 1.3758 11.5824H2.60336V12.4091C2.60336 12.8374 2.95173 13.1858 3.37998 13.1858H5.40986C5.40977 13.1941 5.4092 13.2024 5.4092 13.2108C5.4092 14.5231 6.47688 15.5907 7.78914 15.5907C9.10141 15.5907 10.1691 14.5231 10.1691 13.2108C10.1691 13.2024 10.1685 13.1941 10.1684 13.1858H18.6373C18.6372 13.1941 18.6367 13.2024 18.6367 13.2108C18.6367 14.5231 19.7043 15.5907 21.0166 15.5907C22.3289 15.5907 23.3965 14.5231 23.3965 13.2108C23.3965 13.2024 23.396 13.1941 23.3959 13.1858H24.6242C24.8317 13.1858 25 13.0175 25 12.81V8.80163C25 7.81201 24.2698 6.98977 23.3199 6.84517ZM18.5867 2.76413H21.4175C21.8734 2.76413 22.2443 3.13501 22.2443 3.59087V3.6159H18.5867V2.76413ZM18.5867 6.82257V4.36745H21.9258L22.5396 6.82257H18.5867ZM7.78914 14.8393C6.89125 14.8393 6.16075 14.1088 6.16075 13.2109C6.16075 12.3129 6.89125 11.5825 7.78914 11.5825C8.68703 11.5825 9.41753 12.3129 9.41753 13.2109C9.41753 14.1088 8.68703 14.8393 7.78914 14.8393ZM21.0167 14.8393C20.1188 14.8393 19.3883 14.1088 19.3883 13.2109C19.3883 12.3129 20.1188 11.5825 21.0167 11.5825C21.9146 11.5825 22.6451 12.3129 22.6451 13.2109C22.6451 14.1088 21.9146 14.8393 21.0167 14.8393ZM24.2485 10.0292H23.8225C23.5877 10.0292 23.3966 9.83818 23.3966 9.60334V9.17743H24.2484V10.0292H24.2485Z" fill="#FF0000" stroke="#FF0000" stroke-width="0.4"/>
<circle cx="10.8327" cy="6.16669" r="4.16669" fill="white"/>
<path fill-rule="evenodd" clip-rule="evenodd" d="M10.8324 2.521C12.8456 2.521 14.4783 4.15366 14.4783 6.16687C14.4783 8.18008 12.8456 9.81274 10.8324 9.81274C8.81919 9.81274 7.18652 8.18008 7.18652 6.16687C7.18652 4.15366 8.81919 2.521 10.8324 2.521ZM10.4418 6.4806V4.60412C10.4418 4.38899 10.6173 4.21352 10.8324 4.21352C11.0475 4.21352 11.223 4.39062 11.223 4.60412V6.4806C11.223 6.69409 11.0475 6.87119 10.8324 6.87119C10.6173 6.87119 10.4418 6.69572 10.4418 6.4806ZM10.8307 7.29012C11.0752 7.29012 11.2734 7.48839 11.2734 7.73282C11.2734 7.97729 11.0752 8.17555 10.8307 8.17555C10.5863 8.17555 10.388 7.97729 10.388 7.73282C10.388 7.48839 10.5863 7.29012 10.8307 7.29012Z" fill="#FF0000"/>
</svg>
