<svg width="20" height="20" viewBox="0 0 20 20" fill="none" xmlns="http://www.w3.org/2000/svg">
<path d="M7.5 11.8613L12.5 11.8613M12.5 11.8613L10.4167 9.77671M12.5 11.8613L10.4167 13.9458" stroke="#929799" stroke-width="1.3" stroke-linecap="round" stroke-linejoin="round"/>
<path d="M17.0832 5.83333V10.8333C17.0832 13.976 17.0832 15.5474 16.1069 16.5237C15.1306 17.5 13.5592 17.5 10.4165 17.5H9.58317C6.44047 17.5 4.86913 17.5 3.89281 16.5237C2.9165 15.5474 2.9165 13.976 2.9165 10.8333V5.83333" stroke="#929799" stroke-width="1.3" stroke-linecap="round"/>
<path d="M1.6665 4.16667C1.6665 3.38099 1.6665 2.98816 1.91058 2.74408C2.15466 2.5 2.5475 2.5 3.33317 2.5H16.6665C17.4522 2.5 17.845 2.5 18.0891 2.74408C18.3332 2.98816 18.3332 3.38099 18.3332 4.16667C18.3332 4.95234 18.3332 5.34518 18.0891 5.58926C17.845 5.83333 17.4522 5.83333 16.6665 5.83333H3.33317C2.5475 5.83333 2.15466 5.83333 1.91058 5.58926C1.6665 5.34518 1.6665 4.95234 1.6665 4.16667Z" stroke="#929799" stroke-width="1.3"/>
</svg>
