<svg width="17" height="18" viewBox="0 0 17 18" fill="none" xmlns="http://www.w3.org/2000/svg">
<path fill-rule="evenodd" clip-rule="evenodd" d="M2.52196 1.80743C3.13576 1.69468 3.88691 1.67312 4.78819 1.6681L4.79515 2.91808C3.8839 2.92315 3.238 2.94682 2.74779 3.03686C2.27545 3.12362 2.00205 3.26294 1.79918 3.46582C1.56854 3.69645 1.41817 4.02026 1.33596 4.63174C1.25133 5.2612 1.25 6.09546 1.25 7.29164V12.2916C1.25 13.4878 1.25133 14.3221 1.33596 14.9515C1.41817 15.563 1.56854 15.8868 1.79918 16.1175C2.02981 16.3481 2.35362 16.4985 2.9651 16.5807C3.59456 16.6653 4.42882 16.6666 5.625 16.6666H10.625C11.8212 16.6666 12.6554 16.6653 13.2849 16.5807C13.8964 16.4985 14.2202 16.3481 14.4508 16.1175C14.6815 15.8868 14.8318 15.563 14.914 14.9515C14.9987 14.3221 15 13.4878 15 12.2916V7.29164C15 6.09546 14.9987 5.2612 14.914 4.63174C14.8318 4.02026 14.6815 3.69645 14.4508 3.46582C14.2479 3.26294 13.9746 3.12362 13.5022 3.03686C13.012 2.94682 12.3661 2.92315 11.4549 2.91808L11.4618 1.6681C12.3631 1.67312 13.1142 1.69468 13.728 1.80743C14.3597 1.92346 14.8973 2.14449 15.3347 2.58193C15.8363 3.08353 16.0521 3.71509 16.1529 4.46518C16.25 5.18766 16.25 6.10627 16.25 7.24594V12.3373C16.25 13.477 16.25 14.3956 16.1529 15.1181C16.0521 15.8682 15.8363 16.4998 15.3347 17.0014C14.8331 17.5029 14.2016 17.7187 13.4515 17.8195C12.729 17.9167 11.8104 17.9167 10.6707 17.9166H5.57927C4.43961 17.9167 3.52101 17.9167 2.79854 17.8195C2.04845 17.7187 1.41689 17.5029 0.915292 17.0014C0.413695 16.4998 0.19795 15.8682 0.0971033 15.1181C-3.05995e-05 14.3956 -1.67115e-05 13.477 4.5465e-07 12.3374V7.24591C-1.67115e-05 6.10626 -3.05995e-05 5.18766 0.0971033 4.46518C0.19795 3.71509 0.413695 3.08353 0.915292 2.58193C1.35273 2.14449 1.8903 1.92346 2.52196 1.80743Z" fill="#092839"/>
<path fill-rule="evenodd" clip-rule="evenodd" d="M6.25 10.625C6.25 10.2798 6.52982 10 6.875 10H12.2917C12.6368 10 12.9167 10.2798 12.9167 10.625C12.9167 10.9702 12.6368 11.25 12.2917 11.25H6.875C6.52982 11.25 6.25 10.9702 6.25 10.625Z" fill="#092839"/>
<path fill-rule="evenodd" clip-rule="evenodd" d="M3.3335 10.625C3.3335 10.2798 3.61332 10 3.9585 10H4.37516C4.72034 10 5.00016 10.2798 5.00016 10.625C5.00016 10.9702 4.72034 11.25 4.37516 11.25H3.9585C3.61332 11.25 3.3335 10.9702 3.3335 10.625Z" fill="#092839"/>
<path fill-rule="evenodd" clip-rule="evenodd" d="M3.3335 7.70837C3.3335 7.3632 3.61332 7.08337 3.9585 7.08337H4.37516C4.72034 7.08337 5.00016 7.3632 5.00016 7.70837C5.00016 8.05355 4.72034 8.33337 4.37516 8.33337H3.9585C3.61332 8.33337 3.3335 8.05355 3.3335 7.70837Z" fill="#092839"/>
<path fill-rule="evenodd" clip-rule="evenodd" d="M3.3335 13.5417C3.3335 13.1966 3.61332 12.9167 3.9585 12.9167H4.37516C4.72034 12.9167 5.00016 13.1966 5.00016 13.5417C5.00016 13.8869 4.72034 14.1667 4.37516 14.1667H3.9585C3.61332 14.1667 3.3335 13.8869 3.3335 13.5417Z" fill="#092839"/>
<path fill-rule="evenodd" clip-rule="evenodd" d="M6.25 7.70837C6.25 7.3632 6.52982 7.08337 6.875 7.08337H12.2917C12.6368 7.08337 12.9167 7.3632 12.9167 7.70837C12.9167 8.05355 12.6368 8.33337 12.2917 8.33337H6.875C6.52982 8.33337 6.25 8.05355 6.25 7.70837Z" fill="#092839"/>
<path fill-rule="evenodd" clip-rule="evenodd" d="M6.25 13.5417C6.25 13.1966 6.52982 12.9167 6.875 12.9167H12.2917C12.6368 12.9167 12.9167 13.1966 12.9167 13.5417C12.9167 13.8869 12.6368 14.1667 12.2917 14.1667H6.875C6.52982 14.1667 6.25 13.8869 6.25 13.5417Z" fill="#092839"/>
<path fill-rule="evenodd" clip-rule="evenodd" d="M4.1665 1.875C4.1665 0.839466 5.00597 0 6.0415 0H10.2082C11.2437 0 12.0832 0.839466 12.0832 1.875V2.70833C12.0832 3.74387 11.2437 4.58333 10.2082 4.58333H6.0415C5.00597 4.58333 4.1665 3.74387 4.1665 2.70833V1.875ZM6.0415 1.25C5.69633 1.25 5.4165 1.52982 5.4165 1.875V2.70833C5.4165 3.05351 5.69633 3.33333 6.0415 3.33333H10.2082C10.5533 3.33333 10.8332 3.05351 10.8332 2.70833V1.875C10.8332 1.52982 10.5533 1.25 10.2082 1.25H6.0415Z" fill="#092839"/>
</svg>
