<svg width="24" height="24" viewBox="0 0 24 24" fill="none" xmlns="http://www.w3.org/2000/svg">
<path d="M15.3659 3.38197L17.3387 4.43152C19.4611 5.56066 20.5223 6.12523 21.1116 7.13974C21.7009 8.15425 21.7009 9.41667 21.7009 11.9415V12.0585C21.7009 14.5833 21.7009 15.8458 21.1116 16.8603C20.5223 17.8748 19.4611 18.4393 17.3387 19.5685L15.3659 20.618C13.6342 21.5393 12.7683 22 11.8369 22C10.9055 22 10.0396 21.5393 8.30784 20.618L6.33505 19.5685C4.21265 18.4393 3.15144 17.8748 2.56217 16.8603C1.9729 15.8458 1.9729 14.5833 1.9729 12.0585V11.9415C1.9729 9.41667 1.9729 8.15425 2.56217 7.13974C3.15144 6.12523 4.21265 5.56066 6.33505 4.43152L8.30784 3.38197C10.0396 2.46066 10.9055 2 11.8369 2C12.7683 2 13.6342 2.46066 15.3659 3.38197Z" stroke="#092839" stroke-width="1.5" stroke-linecap="round"/>
<path d="M20.7144 7.5L16.7688 9.5M11.8368 12L2.95923 7.5M11.8368 12V21.5M11.8368 12C11.8368 12 14.5422 10.6287 16.2756 9.75C16.4682 9.65237 16.7688 9.5 16.7688 9.5M16.7688 9.5V13M16.7688 9.5L7.39803 4.5" stroke="#092839" stroke-width="1.5" stroke-linecap="round"/>
</svg>
