<svg width="25" height="24" viewBox="0 0 25 24" fill="none" xmlns="http://www.w3.org/2000/svg">
<path d="M2.34717 12V6.94975C2.34717 6.06722 2.34717 5.62595 2.41652 5.25839C2.72181 3.64031 3.98748 2.37464 5.60555 2.06935C5.97312 2 6.41438 2 7.29692 2C7.68359 2 7.87693 2 8.06274 2.01738C8.86382 2.09229 9.62369 2.40704 10.2431 2.92051C10.3868 3.03961 10.5235 3.17633 10.7969 3.44975L11.3472 4C12.1629 4.81578 12.5708 5.22367 13.0593 5.49543C13.3276 5.64471 13.6122 5.7626 13.9075 5.84678C14.4451 6 15.0219 6 16.1756 6H16.5493C19.1816 6 20.4978 6 21.3533 6.76946C21.432 6.84024 21.5069 6.91514 21.5777 6.99383C22.3472 7.84935 22.3472 9.16554 22.3472 11.7979V14C22.3472 17.7712 22.3472 19.6569 21.1756 20.8284C20.004 22 18.1184 22 14.3472 22H10.3472C6.57593 22 4.69031 22 3.51874 20.8284C2.86556 20.1752 2.57654 19.3001 2.44866 18" stroke="#092839" stroke-width="1.5" stroke-linecap="round"/>
<path d="M2.34717 15C8.79082 15 6.90352 15 13.3472 15M13.3472 15L9.22217 12M13.3472 15L9.22217 18" stroke="#092839" stroke-width="1.5" stroke-linecap="round" stroke-linejoin="round"/>
</svg>
