<svg width="24" height="24" viewBox="0 0 24 24" fill="none" xmlns="http://www.w3.org/2000/svg">
<g clip-path="url(#clip0_4546_13641)">
<path d="M23.1788 6.49486L17.0645 0.141469C16.9774 0.0510937 16.8573 0 16.7319 0H7.61891C6.59906 0 5.76932 0.829406 5.76932 1.84884V8.3077H2.07618C1.31315 8.3077 0.692383 8.92828 0.692383 9.69113V16.6166C0.692383 17.3794 1.31315 18 2.07618 18H5.76932V22.1544C5.76932 23.172 6.59906 24 7.61891 24H21.4582C22.4781 24 23.3078 23.1725 23.3078 22.1554V6.81492C23.3078 6.69558 23.2615 6.58088 23.1788 6.49486ZM16.8463 1.24598L21.8656 6.46153H16.8463V1.24598ZM2.07618 17.0769C1.82212 17.0769 1.61549 16.8705 1.61549 16.6166V9.69113C1.61549 9.4373 1.82216 9.23077 2.07618 9.23077H14.5394C14.7935 9.23077 15.0001 9.4373 15.0001 9.69113V16.6166C15.0001 16.8705 14.7934 17.0769 14.5394 17.0769H2.07618ZM22.3847 22.1554C22.3847 22.6635 21.969 23.0769 21.4581 23.0769H7.61891C7.10802 23.0769 6.69238 22.6631 6.69238 22.1544V18H14.5394C15.3024 18 15.9232 17.3794 15.9232 16.6166V9.69113C15.9232 8.92828 15.3024 8.3077 14.5394 8.3077H6.69238V1.84884C6.69238 1.33833 7.10802 0.923062 7.61891 0.923062H15.9231V6.92306C15.9231 7.17797 16.1298 7.38459 16.3847 7.38459H22.3847V22.1554Z" fill="white"/>
<path d="M6.20994 11.7137C6.05671 11.5145 5.86649 11.3851 5.63933 11.3256C5.49149 11.2859 5.17419 11.2661 4.68739 11.2661H3.40283V15.2307H4.20332V13.7352H4.72527C5.08766 13.7352 5.36441 13.7162 5.55552 13.6783C5.69614 13.6477 5.83452 13.5851 5.97064 13.4904C6.10677 13.3957 6.21899 13.2655 6.30735 13.0996C6.39571 12.9338 6.43986 12.7291 6.43986 12.4858C6.43982 12.1702 6.36318 11.9129 6.20994 11.7137ZM5.52439 12.8049C5.46402 12.8932 5.38063 12.9581 5.27422 12.9996C5.16782 13.0411 4.95693 13.0618 4.64141 13.0618H4.20332V11.9368H4.59003C4.8785 11.9368 5.0705 11.9458 5.16604 11.9638C5.29583 11.9873 5.40313 12.0459 5.48783 12.1396C5.57258 12.2334 5.61496 12.3524 5.61496 12.4966C5.615 12.6138 5.58477 12.7165 5.52439 12.8049Z" fill="white"/>
<path d="M10.2881 12.3492C10.2015 12.0959 10.0753 11.8818 9.90946 11.7069C9.74361 11.532 9.54435 11.4103 9.3118 11.3418C9.13874 11.2913 8.88721 11.2661 8.5573 11.2661H7.09424V15.2307H8.60057C8.89625 15.2307 9.13241 15.2027 9.30908 15.1468C9.54529 15.0711 9.73279 14.9656 9.87158 14.8304C10.0555 14.6519 10.197 14.4185 10.2962 14.13C10.3773 13.8938 10.4179 13.6125 10.4179 13.2862C10.4179 12.9148 10.3746 12.6025 10.2881 12.3492ZM9.50919 13.9772C9.4551 14.1548 9.38525 14.2824 9.29961 14.3599C9.21397 14.4374 9.10625 14.4924 8.97646 14.5248C8.87732 14.5501 8.71593 14.5627 8.49238 14.5627H7.89472V11.9368H8.25439C8.58069 11.9368 8.79979 11.9494 8.91154 11.9747C9.06116 12.0071 9.18468 12.0693 9.28204 12.1613C9.37939 12.2533 9.4551 12.3812 9.50919 12.5453C9.56329 12.7093 9.59033 12.9446 9.59033 13.2511C9.59033 13.5576 9.56329 13.7996 9.50919 13.9772Z" fill="white"/>
<path d="M13.8199 11.9368V11.2661H11.1021V15.2307H11.9025V13.5459H13.5576V12.8752H11.9025V11.9368H13.8199Z" fill="white"/>
</g>
<defs>
<clipPath id="clip0_4546_13641">
<rect width="24" height="24" fill="white"/>
</clipPath>
</defs>
</svg>
