<svg width="20" height="20" viewBox="0 0 20 20" fill="none" xmlns="http://www.w3.org/2000/svg">
<g clip-path="url(#clip0_2730_31639)">
<path d="M10.8333 2.08334V4.16668C10.8333 6.13086 10.8333 7.11295 11.4435 7.72315C12.0537 8.33334 13.0358 8.33334 15 8.33334H18.3333" stroke="#929799" stroke-width="1.5"/>
<path d="M12.8311 3.37803L12.3295 3.93558H12.3295L12.8311 3.37803ZM16.1312 6.34711L15.6295 6.90466L16.1312 6.34711ZM18.0504 8.46174L17.3653 8.76695L17.3653 8.76695L18.0504 8.46174ZM2.6433 17.357L3.17354 16.8266L3.17354 16.8266L2.6433 17.357ZM17.3622 17.357L16.8319 16.8266L16.8319 16.8266L17.3622 17.357ZM15.2425 10.7143L15.6585 10.0902L15.6585 10.0902L15.2425 10.7143ZM18.1006 10.7143L17.6847 10.0902L18.1006 10.7143ZM8.09734 10.7143L7.68141 10.0902L8.09734 10.7143ZM10.2409 10.7143L10.6568 10.0902L10.2409 10.7143ZM5.23926 10.7143L4.82333 11.3384L5.23926 10.7143ZM3.09571 10.7143L2.67977 10.0902H2.67977L3.09571 10.7143ZM15.2425 14.0476L15.6585 13.4235H15.6585L15.2425 14.0476ZM18.1006 14.0476L18.5165 14.6717V14.6717L18.1006 14.0476ZM13.099 14.0476L12.683 13.4235L13.099 14.0476ZM10.2409 14.0476L10.6568 13.4235L10.2409 14.0476ZM8.09734 14.0476L7.68141 13.4235L8.09734 14.0476ZM13.099 10.7143L12.683 10.0902L13.099 10.7143ZM5.23926 14.0476L4.82333 14.6717V14.6717L5.23926 14.0476ZM3.09571 14.0476L2.67977 13.4235H2.67977L3.09571 14.0476ZM2.57387 14.3954L2.9898 15.0195H2.9898L2.57387 14.3954ZM1.89856 15.9291L2.62812 15.7551H2.62812L1.89856 15.9291ZM18.3097 14.1648L19.0591 14.1958V14.1958L18.3097 14.1648ZM18.3332 10.2727L19.0831 10.2589V10.2589L18.3332 10.2727ZM1.8453 15.0606L2.54331 15.335L2.54331 15.335L1.8453 15.0606ZM1.67178 10.2017L2.41718 10.1187L2.41718 10.1187L1.67178 10.2017ZM2.88315 10.8498L3.22753 11.5161L3.22753 11.5161L2.88315 10.8498ZM11.6699 17.5833H8.33551V19.0833H11.6699V17.5833ZM2.41667 9.94973V8.33332H0.916667V9.94973H2.41667ZM12.3295 3.93558L15.6295 6.90466L16.6328 5.78956L13.3327 2.82048L12.3295 3.93558ZM15.6295 6.90466C16.766 7.92713 17.1569 8.29921 17.3653 8.76695L18.7354 8.15652C18.367 7.32944 17.6707 6.72338 16.6328 5.78956L15.6295 6.90466ZM8.36035 2.41666C9.68838 2.41666 10.1585 2.42823 10.5754 2.58817L11.1126 1.18768C10.376 0.905084 9.57482 0.916656 8.36035 0.916656V2.41666ZM13.3327 2.82048C12.4344 2.01224 11.8492 1.47024 11.1126 1.18768L10.5754 2.58817C10.9924 2.74814 11.3474 3.05203 12.3295 3.93558L13.3327 2.82048ZM8.33551 17.5833C6.74246 17.5833 5.62309 17.5817 4.77665 17.468C3.95176 17.3571 3.49927 17.1522 3.17354 16.8266L2.11305 17.8874C2.76395 18.5381 3.58571 18.8214 4.57684 18.9546C5.54642 19.0849 6.78485 19.0833 8.33551 19.0833V17.5833ZM11.6699 19.0833C13.2206 19.0833 14.459 19.0849 15.4286 18.9546C16.4197 18.8214 17.2415 18.5381 17.8924 17.8874L16.8319 16.8266C16.5062 17.1522 16.0537 17.3571 15.2288 17.468C14.3824 17.5817 13.263 17.5833 11.6699 17.5833V19.0833ZM2.41667 8.33332C2.41667 6.74077 2.41826 5.62182 2.53205 4.77572C2.64294 3.95122 2.84785 3.49897 3.17354 3.17338L2.11305 2.11255C1.46212 2.76327 1.17871 3.58486 1.04544 4.57578C0.915073 5.54511 0.916667 6.78318 0.916667 8.33332H2.41667ZM8.36035 0.916656C6.80133 0.916656 5.55695 0.915078 4.58349 1.04532C3.58906 1.17837 2.76454 1.46128 2.11305 2.11255L3.17354 3.17338C3.49868 2.84835 3.95255 2.6431 4.78241 2.53207C5.63325 2.41823 6.75908 2.41666 8.36035 2.41666V0.916656ZM14.8266 11.3384C15.9438 12.083 17.3993 12.083 18.5165 11.3384L17.6847 10.0902C17.0712 10.499 16.2719 10.499 15.6585 10.0902L14.8266 11.3384ZM8.51327 11.3384C8.91041 11.0737 9.42783 11.0737 9.82497 11.3384L10.6568 10.0902C9.75593 9.48977 8.58231 9.48977 7.68141 10.0902L8.51327 11.3384ZM4.82333 11.3384C5.94057 12.083 7.39603 12.083 8.51327 11.3384L7.68141 10.0902C7.06793 10.499 6.26867 10.499 5.65519 10.0902L4.82333 11.3384ZM3.51164 11.3384C3.90877 11.0737 4.4262 11.0737 4.82333 11.3384L5.65519 10.0902C4.7543 9.48977 3.58067 9.48977 2.67977 10.0902L3.51164 11.3384ZM14.8266 14.6717C15.9438 15.4163 17.3993 15.4163 18.5165 14.6717L17.6847 13.4235C17.0712 13.8324 16.2719 13.8324 15.6585 13.4235L14.8266 14.6717ZM13.5149 14.6717C13.912 14.407 14.4295 14.407 14.8266 14.6717L15.6585 13.4235C14.7576 12.8231 13.5839 12.8231 12.683 13.4235L13.5149 14.6717ZM9.82497 14.6717C10.9422 15.4163 12.3977 15.4163 13.5149 14.6717L12.683 13.4235C12.0696 13.8324 11.2703 13.8324 10.6568 13.4235L9.82497 14.6717ZM8.51327 14.6717C8.91041 14.407 9.42783 14.407 9.82497 14.6717L10.6568 13.4235C9.75593 12.8231 8.58231 12.8231 7.68141 13.4235L8.51327 14.6717ZM13.5149 11.3384C13.912 11.0737 14.4295 11.0737 14.8266 11.3384L15.6585 10.0902C14.7576 9.48977 13.5839 9.48977 12.683 10.0902L13.5149 11.3384ZM4.82333 14.6717C5.94057 15.4163 7.39603 15.4163 8.51327 14.6717L7.68141 13.4235C7.06793 13.8324 6.26867 13.8324 5.65519 13.4235L4.82333 14.6717ZM9.82497 11.3384C10.9422 12.083 12.3977 12.083 13.5149 11.3384L12.683 10.0902C12.0696 10.499 11.2703 10.499 10.6568 10.0902L9.82497 11.3384ZM3.51164 14.6717C3.90877 14.407 4.4262 14.407 4.82333 14.6717L5.65519 13.4235C4.7543 12.8231 3.58067 12.8231 2.67977 13.4235L3.51164 14.6717ZM2.9898 15.0195L3.51164 14.6717L2.67977 13.4235L2.15794 13.7713L2.9898 15.0195ZM1.169 16.103C1.33545 16.8012 1.62044 17.395 2.11305 17.8874L3.17354 16.8266C2.92242 16.5756 2.74685 16.2533 2.62812 15.7551L1.169 16.103ZM17.5604 14.1337C17.496 15.686 17.2851 16.3736 16.8319 16.8266L17.8924 17.8874C18.7872 16.9929 18.994 15.7662 19.0591 14.1958L17.5604 14.1337ZM19.0831 10.2589C19.0678 9.42977 19.0127 8.77881 18.7354 8.15652L17.3653 8.76695C17.5104 9.0928 17.5684 9.47971 17.5834 10.2866L19.0831 10.2589ZM18.5165 11.3384C18.8731 11.1007 19.0912 10.6961 19.0831 10.2589L17.5834 10.2866C17.5818 10.2036 17.623 10.1313 17.6847 10.0902L18.5165 11.3384ZM2.15794 13.7713C1.96179 13.902 1.7589 14.0357 1.59898 14.1729C1.41985 14.3265 1.2529 14.5176 1.14729 14.7862L2.54331 15.335C2.53341 15.3602 2.5198 15.3592 2.57554 15.3114C2.6505 15.2471 2.76405 15.1699 2.9898 15.0195L2.15794 13.7713ZM2.62812 15.7551C2.6026 15.6481 2.58356 15.568 2.56901 15.4984C2.55462 15.4295 2.54811 15.387 2.54539 15.3586C2.54291 15.3325 2.54441 15.3259 2.54391 15.33C2.54322 15.3358 2.5417 15.3391 2.54331 15.335L1.14729 14.7862C0.948992 15.2907 1.08477 15.7496 1.169 16.103L2.62812 15.7551ZM18.5165 14.6717C18.1011 14.9486 17.5394 14.6402 17.5604 14.1337L19.0591 14.1958C19.0892 13.4695 18.2833 13.0246 17.6847 13.4235L18.5165 14.6717ZM0.916667 9.94973C0.916667 10.0612 0.915387 10.1859 0.92638 10.2847L2.41718 10.1187C2.41869 10.1324 2.41776 10.1326 2.41721 10.098C2.41669 10.0654 2.41667 10.0209 2.41667 9.94973H0.916667ZM2.67977 10.0902C2.62052 10.1297 2.58351 10.1543 2.55602 10.172C2.52691 10.1907 2.52661 10.1898 2.53876 10.1835L3.22753 11.5161C3.31581 11.4704 3.41883 11.4002 3.51164 11.3384L2.67977 10.0902ZM0.92638 10.2847C1.04925 11.3887 2.24111 12.0259 3.22753 11.5161L2.53876 10.1835C2.48636 10.2106 2.42361 10.1766 2.41718 10.1187L0.92638 10.2847Z" fill="#929799"/>
</g>
<defs>
<clipPath id="clip0_2730_31639">
<rect width="20" height="20" fill="white"/>
</clipPath>
</defs>
</svg>
