<svg width="20" height="20" viewBox="0 0 20 20" fill="none" xmlns="http://www.w3.org/2000/svg">
<g clip-path="url(#clip0_262_2056)">
<circle cx="9.99935" cy="10.0001" r="5.83333" fill="white"/>
<path d="M2.42043 13.4525C2.53246 13.6978 2.42449 13.9875 2.17914 14.0995C2.11339 14.1295 2.04445 14.1437 1.97656 14.1437C1.79129 14.1437 1.61414 14.0378 1.53211 13.8582C0.657418 11.9434 0.462457 9.75882 0.98316 7.70687C1.51109 5.62648 2.75566 3.77921 4.48765 2.50538C6.118 1.30632 8.04714 0.681593 10.0647 0.696319C11.6396 0.708507 13.2044 1.12917 14.5715 1.89636L14.3228 1.17452C14.235 0.919561 14.3705 0.641671 14.6254 0.553819C14.8802 0.466085 15.1583 0.601475 15.2461 0.856436L15.9691 2.95495C16.0175 3.09558 15.9992 3.25058 15.9194 3.37605C15.8396 3.50155 15.7069 3.58378 15.559 3.59952L13.2786 3.84179C13.0105 3.87054 12.77 3.67605 12.7415 3.40784C12.713 3.13972 12.9073 2.89921 13.1754 2.87073L14.1358 2.7687C11.2965 1.13616 7.76019 1.31089 5.06625 3.2921C1.9057 5.61667 0.792965 9.88968 2.42043 13.4525ZM18.4671 6.14151C18.355 5.8962 18.0652 5.78819 17.8201 5.90023C17.5748 6.01226 17.4668 6.30194 17.5788 6.54722C19.2062 10.11 18.0935 14.3831 14.9329 16.7076C12.2389 18.6889 8.70257 18.8635 5.8634 17.231L6.82379 17.129C7.09195 17.1005 7.28625 16.86 7.25773 16.5919C7.22925 16.3237 6.98839 16.1295 6.72062 16.1579L4.44019 16.4002C4.2923 16.4159 4.15961 16.4982 4.07976 16.6237C3.99996 16.7491 3.98164 16.9042 4.03011 17.0448L4.75308 19.1432C4.82277 19.3456 5.01211 19.4726 5.21468 19.4726C5.26746 19.4726 5.32113 19.464 5.37375 19.4459C5.62871 19.358 5.76421 19.0801 5.67636 18.8251L5.42769 18.1033C6.79476 18.8704 8.35961 19.2912 9.93441 19.3034C9.95906 19.3035 9.98332 19.3036 10.0079 19.3036C11.9993 19.3035 13.9011 18.6787 15.5115 17.4943C17.2436 16.2205 18.4881 14.3732 19.0161 12.2928C19.5367 10.2409 19.3418 8.05636 18.4671 6.14151ZM3.99855 9.99987C3.99855 6.69089 6.69062 3.99886 9.99961 3.99886C13.3086 3.99886 16.0006 6.69089 16.0006 9.99987C16.0006 13.3089 13.3086 16.0009 9.99961 16.0009C6.69062 16.0009 3.99855 13.3089 3.99855 9.99987ZM4.97511 9.99987C4.97511 12.7704 7.2291 15.0244 9.99961 15.0244C12.7701 15.0244 15.0241 12.7704 15.0241 9.99987C15.0241 7.22937 12.7701 4.97542 9.99961 4.97542C7.2291 4.97542 4.97511 7.22937 4.97511 9.99987ZM10.8857 11.8214C10.2049 12.1602 8.97863 11.9405 8.69898 11.4296C8.56949 11.1929 8.27269 11.1063 8.03621 11.2357C7.79964 11.3652 7.71289 11.6619 7.84234 11.8985C8.11742 12.401 8.70179 12.7676 9.44558 12.9042C9.46734 12.9082 9.48902 12.912 9.51086 12.9156V13.4922C9.51086 13.7619 9.72949 13.9805 9.99914 13.9805C10.2688 13.9805 10.4874 13.7619 10.4874 13.4922V12.9354C10.7925 12.8971 11.0785 12.8163 11.3207 12.6957C11.8101 12.4523 12.1406 11.9928 12.2048 11.4664C12.2812 10.8398 11.9873 10.2973 11.3773 9.93894C10.9561 9.69159 10.5119 9.58577 10.0824 9.48347C9.93507 9.44839 9.79586 9.41523 9.65707 9.37655C9.22648 9.25644 8.9905 9.12148 8.86789 8.92519C8.74894 8.73483 8.77972 8.52253 8.95234 8.34273C9.19289 8.09214 9.75523 7.96319 10.2888 8.03573C10.7211 8.09464 11.0671 8.27499 11.1917 8.5064C11.3196 8.74382 11.6158 8.83257 11.8532 8.70468C12.0906 8.57679 12.1794 8.28065 12.0515 8.04319C11.7815 7.54206 11.2137 7.19257 10.4874 7.07792V6.50757C10.4874 6.23792 10.2688 6.01929 9.99914 6.01929C9.72949 6.01929 9.51086 6.23792 9.51086 6.50757V7.07401C8.99707 7.15276 8.54254 7.35948 8.24785 7.6664C7.76289 8.17163 7.68117 8.86882 8.03968 9.44261C8.37257 9.97565 8.93871 10.19 9.39472 10.3172C9.55144 10.3609 9.70632 10.3978 9.85613 10.4335C10.2323 10.5231 10.5876 10.6077 10.8828 10.781C11.2286 10.9842 11.2566 11.1737 11.2353 11.3482C11.2111 11.5477 11.0803 11.7246 10.8857 11.8214Z" fill="#FF0000"/>
<circle cx="9.99969" cy="9.99994" r="4.16669" fill="white"/>
<path fill-rule="evenodd" clip-rule="evenodd" d="M9.99939 6.35425C12.0126 6.35425 13.6453 7.98691 13.6453 10.0001C13.6453 12.0133 12.0126 13.646 9.99939 13.646C7.98618 13.646 6.35352 12.0133 6.35352 10.0001C6.35352 7.98691 7.98618 6.35425 9.99939 6.35425ZM9.60879 10.3139V8.43737C9.60879 8.22224 9.78427 8.04677 9.99939 8.04677C10.2145 8.04677 10.39 8.22388 10.39 8.43737V10.3139C10.39 10.5273 10.2145 10.7044 9.99939 10.7044C9.78427 10.7044 9.60879 10.529 9.60879 10.3139ZM9.9977 11.1234C10.2422 11.1234 10.4404 11.3216 10.4404 11.5661C10.4404 11.8105 10.2422 12.0088 9.9977 12.0088C9.75327 12.0088 9.555 11.8105 9.555 11.5661C9.555 11.3216 9.75327 11.1234 9.9977 11.1234Z" fill="#FF0000"/>
</g>
<defs>
<clipPath id="clip0_262_2056">
<rect width="20" height="20" fill="white"/>
</clipPath>
</defs>
</svg>
