<svg width="20" height="20" viewBox="0 0 20 20" fill="none" xmlns="http://www.w3.org/2000/svg">
<path d="M13.3333 3.33476C15.1459 3.34485 16.1274 3.42523 16.7678 4.06555C17.5 4.79778 17.5 5.97629 17.5 8.33331V13.3333C17.5 15.6903 17.5 16.8688 16.7678 17.6011C16.0355 18.3333 14.857 18.3333 12.5 18.3333H7.5C5.14298 18.3333 3.96447 18.3333 3.23223 17.6011C2.5 16.8688 2.5 15.6903 2.5 13.3333V8.33331C2.5 5.97629 2.5 4.79778 3.23223 4.06555C3.87255 3.42523 4.85414 3.34485 6.66667 3.33476" stroke="#929799" stroke-width="1.25"/>
<path d="M8.75 11.6667L14.1667 11.6667" stroke="#929799" stroke-width="1.25" stroke-linecap="round"/>
<path d="M5.8335 11.6667H6.25016" stroke="#929799" stroke-width="1.25" stroke-linecap="round"/>
<path d="M5.8335 8.75H6.25016" stroke="#929799" stroke-width="1.25" stroke-linecap="round"/>
<path d="M5.8335 14.5833H6.25016" stroke="#929799" stroke-width="1.25" stroke-linecap="round"/>
<path d="M8.75 8.75H14.1667" stroke="#929799" stroke-width="1.25" stroke-linecap="round"/>
<path d="M8.75 14.5833H14.1667" stroke="#929799" stroke-width="1.25" stroke-linecap="round"/>
<path d="M6.6665 2.91667C6.6665 2.22632 7.22615 1.66667 7.9165 1.66667H12.0832C12.7735 1.66667 13.3332 2.22632 13.3332 2.91667V3.75C13.3332 4.44036 12.7735 5 12.0832 5H7.9165C7.22615 5 6.6665 4.44036 6.6665 3.75V2.91667Z" stroke="#929799" stroke-width="1.25"/>
</svg>
