<svg width="20" height="20" viewBox="0 0 20 20" fill="none" xmlns="http://www.w3.org/2000/svg">
<g clip-path="url(#clip0_2730_31635)">
<path d="M7.5 7.5L12.5 12.5M12.5 12.5L12.5 8.75M12.5 12.5L8.75 12.5" stroke="#929799" stroke-width="1.5" stroke-linecap="round" stroke-linejoin="round"/>
<path d="M1.66667 9.99999C1.66667 6.07162 1.66667 4.10743 2.88706 2.88704C4.10745 1.66666 6.07163 1.66666 10 1.66666C13.9284 1.66666 15.8926 1.66666 17.1129 2.88704C18.3333 4.10743 18.3333 6.07162 18.3333 9.99999C18.3333 13.9284 18.3333 15.8925 17.1129 17.1129C15.8926 18.3333 13.9284 18.3333 10 18.3333C6.07163 18.3333 4.10745 18.3333 2.88706 17.1129C1.66667 15.8925 1.66667 13.9284 1.66667 9.99999Z" stroke="#929799" stroke-width="1.5"/>
</g>
<defs>
<clipPath id="clip0_2730_31635">
<rect width="20" height="20" fill="white"/>
</clipPath>
</defs>
</svg>
