<svg width="25" height="24" viewBox="0 0 25 24" fill="none" xmlns="http://www.w3.org/2000/svg">
<path d="M16.0665 4.05365L15.5648 4.61112L16.0665 4.05365ZM20.0253 7.61654L19.5236 8.17402L20.0253 7.61654ZM22.3276 10.1541L21.6425 10.4592V10.4592L22.3276 10.1541ZM3.84516 20.8284L4.37549 20.2981H4.37549L3.84516 20.8284ZM21.502 20.8284L20.9717 20.2981L20.9717 20.2981L21.502 20.8284ZM14.6736 21.25H10.6736V22.75H14.6736V21.25ZM3.42358 14V10H1.92358V14H3.42358ZM21.9236 13.5629V14H23.4236V13.5629H21.9236ZM15.5648 4.61112L19.5236 8.17402L20.527 7.05907L16.5682 3.49618L15.5648 4.61112ZM23.4236 13.5629C23.4236 11.8745 23.4387 10.8055 23.0127 9.84897L21.6425 10.4592C21.9084 11.0565 21.9236 11.742 21.9236 13.5629H23.4236ZM19.5236 8.17402C20.877 9.3921 21.3765 9.86199 21.6425 10.4592L23.0127 9.84897C22.5867 8.89241 21.782 8.18853 20.527 7.05907L19.5236 8.17402ZM10.7034 2.75C12.2852 2.75 12.8821 2.76158 13.4141 2.96573L13.9515 1.5653C13.0997 1.23842 12.1716 1.25 10.7034 1.25V2.75ZM16.5682 3.49618C15.4823 2.51878 14.8032 1.89214 13.9515 1.5653L13.4141 2.96573C13.9462 3.16993 14.3951 3.55836 15.5648 4.61112L16.5682 3.49618ZM10.6736 21.25C8.76676 21.25 7.4121 21.2484 6.38443 21.1102C5.37834 20.975 4.7987 20.7213 4.37549 20.2981L3.31483 21.3588C4.06319 22.1071 5.01214 22.4392 6.18456 22.5969C7.33541 22.7516 8.80917 22.75 10.6736 22.75V21.25ZM1.92358 14C1.92358 15.8644 1.92199 17.3382 2.07672 18.489C2.23435 19.6614 2.56646 20.6104 3.31483 21.3588L4.37549 20.2981C3.95228 19.8749 3.69861 19.2952 3.56334 18.2892C3.42518 17.2615 3.42358 15.9068 3.42358 14H1.92358ZM14.6736 22.75C16.538 22.75 18.0118 22.7516 19.1626 22.5969C20.335 22.4392 21.284 22.1071 22.0323 21.3588L20.9717 20.2981C20.5485 20.7213 19.9688 20.975 18.9627 21.1102C17.9351 21.2484 16.5804 21.25 14.6736 21.25V22.75ZM21.9236 14C21.9236 15.9068 21.922 17.2615 21.7838 18.2892C21.6486 19.2952 21.3949 19.8749 20.9717 20.2981L22.0323 21.3588C22.7807 20.6104 23.1128 19.6614 23.2704 18.489C23.4252 17.3382 23.4236 15.8644 23.4236 14H21.9236ZM3.42358 10C3.42358 8.09318 3.42518 6.73851 3.56334 5.71085C3.69861 4.70476 3.95228 4.12511 4.37549 3.7019L3.31483 2.64124C2.56646 3.38961 2.23435 4.33855 2.07672 5.51098C1.92199 6.66182 1.92358 8.13558 1.92358 10H3.42358ZM10.7034 1.25C8.82896 1.25 7.348 1.24842 6.19245 1.40307C5.0159 1.56054 4.06377 1.8923 3.31483 2.64124L4.37549 3.7019C4.79811 3.27928 5.37955 3.02525 6.39143 2.88982C7.42433 2.75158 8.7867 2.75 10.7034 2.75V1.25Z" fill="#1C274C"/>
<path d="M13.6736 2.5V5C13.6736 7.35702 13.6736 8.53553 14.4058 9.26777C15.1381 10 16.3166 10 18.6736 10H22.6736" stroke="#1C274C" stroke-width="1.5"/>
<path d="M6.67358 16.5L8.00692 18L10.6736 15" stroke="#1C274C" stroke-width="1.5" stroke-linecap="round" stroke-linejoin="round"/>
</svg>
