<svg width="24" height="24" viewBox="0 0 24 24" fill="none" xmlns="http://www.w3.org/2000/svg">
<g clip-path="url(#clip0_236_2207)">
<path d="M22.3199 10.8452L21.6984 8.35915C21.8683 8.32306 21.9958 8.17231 21.9958 7.9917V7.59087C21.9958 6.72059 21.2878 6.01259 20.4175 6.01259H17.5867V5.1858C17.5867 4.75755 17.2383 4.40918 16.81 4.40918H2.37994C1.95169 4.40918 1.60331 4.75755 1.60331 5.1858V12C1.60331 12.2075 1.77155 12.3758 1.97911 12.3758C2.18663 12.3758 2.35491 12.2076 2.35491 12V5.1858C2.35491 5.17198 2.36611 5.16077 2.37994 5.16077H16.81C16.8238 5.16077 16.835 5.17198 16.835 5.1858V12.0001C16.835 12.2076 17.0033 12.3759 17.2108 12.3759C17.4183 12.3759 17.5866 12.2077 17.5866 12.0001V11.5741H22.0195C22.0199 11.5741 22.0202 11.5742 22.0205 11.5742C22.0209 11.5742 22.0212 11.5742 22.0215 11.5742C22.567 11.5745 23.0302 11.9326 23.1893 12.4259H22.0208C21.8133 12.4259 21.645 12.5942 21.645 12.8017V13.6034C21.645 14.2526 22.1732 14.7808 22.8225 14.7808H23.2484V16.4343H22.2658C21.943 15.5022 21.057 14.8309 20.0166 14.8309C18.9762 14.8309 18.0902 15.5022 17.7675 16.4343H17.5865V13.6033C17.5865 13.3958 17.4183 13.2275 17.2107 13.2275C17.0032 13.2275 16.8349 13.3958 16.8349 13.6033V16.4342H9.0383C8.71552 15.5022 7.82953 14.8308 6.78914 14.8308C5.74875 14.8308 4.86272 15.5022 4.53998 16.4342H2.37994C2.36611 16.4342 2.35491 16.423 2.35491 16.4091V15.5824H3.9833C4.19081 15.5824 4.35909 15.4142 4.35909 15.2066C4.35909 14.999 4.19086 14.8308 3.9833 14.8308H0.375797C0.168281 14.8308 0 14.999 0 15.2066C0 15.4142 0.168234 15.5824 0.375797 15.5824H1.60336V16.4091C1.60336 16.8374 1.95173 17.1858 2.37998 17.1858H4.40986C4.40977 17.1941 4.4092 17.2024 4.4092 17.2108C4.4092 18.5231 5.47688 19.5907 6.78914 19.5907C8.10141 19.5907 9.16908 18.5231 9.16908 17.2108C9.16908 17.2024 9.16852 17.1941 9.16842 17.1858H17.6373C17.6372 17.1941 17.6367 17.2024 17.6367 17.2108C17.6367 18.5231 18.7043 19.5907 20.0166 19.5907C21.3289 19.5907 22.3965 18.5231 22.3965 17.2108C22.3965 17.2024 22.396 17.1941 22.3959 17.1858H23.6242C23.8317 17.1858 24 17.0175 24 16.81V12.8016C24 11.812 23.2698 10.9898 22.3199 10.8452ZM17.5867 6.76413H20.4175C20.8734 6.76413 21.2443 7.13501 21.2443 7.59087V7.6159H17.5867V6.76413ZM17.5867 10.8226V8.36745H20.9258L21.5396 10.8226H17.5867ZM6.78914 18.8393C5.89125 18.8393 5.16075 18.1088 5.16075 17.2109C5.16075 16.3129 5.89125 15.5825 6.78914 15.5825C7.68703 15.5825 8.41753 16.3129 8.41753 17.2109C8.41753 18.1088 7.68703 18.8393 6.78914 18.8393ZM20.0167 18.8393C19.1188 18.8393 18.3883 18.1088 18.3883 17.2109C18.3883 16.3129 19.1188 15.5825 20.0167 15.5825C20.9146 15.5825 21.6451 16.3129 21.6451 17.2109C21.6451 18.1088 20.9146 18.8393 20.0167 18.8393ZM23.2485 14.0292H22.8225C22.5877 14.0292 22.3966 13.8382 22.3966 13.6033V13.1774H23.2484V14.0292H23.2485Z" fill="#217E00" stroke="#217E00" stroke-width="0.4"/>
<path d="M6.78914 16.4342C6.36089 16.4342 6.01251 16.7826 6.01251 17.2108C6.01251 17.6391 6.36089 17.9875 6.78914 17.9875C7.21739 17.9875 7.56576 17.6391 7.56576 17.2108C7.56576 16.7826 7.21739 16.4342 6.78914 16.4342Z" fill="#217E00"/>
<path d="M20.0167 16.4342C19.5885 16.4342 19.2401 16.7826 19.2401 17.2108C19.2401 17.6391 19.5885 17.9875 20.0167 17.9875C20.445 17.9875 20.7933 17.6391 20.7933 17.2108C20.7933 16.7826 20.445 16.4342 20.0167 16.4342Z" fill="#217E00"/>
<path d="M15.6075 14.8309H9.99582C9.78831 14.8309 9.62003 14.9992 9.62003 15.2067C9.62003 15.4143 9.78826 15.5825 9.99582 15.5825H15.6075C15.815 15.5825 15.9833 15.4143 15.9833 15.2067C15.9833 14.9992 15.8151 14.8309 15.6075 14.8309Z" fill="#217E00"/>
<path d="M5.98749 13.2275H1.17746C0.969948 13.2275 0.801666 13.3958 0.801666 13.6033C0.801666 13.8109 0.969901 13.9791 1.17746 13.9791H5.98749C6.19501 13.9791 6.36329 13.8109 6.36329 13.6033C6.36329 13.3958 6.19501 13.2275 5.98749 13.2275Z" fill="#217E00"/>
<path d="M13.0674 8.1267C12.9207 7.97998 12.6827 7.97998 12.536 8.12674L9.19416 11.4685L7.4557 9.73006C7.30894 9.58329 7.071 9.58329 6.92428 9.73006C6.77752 9.87682 6.77752 10.1147 6.92428 10.2615L8.92847 12.2657C9.00183 12.3391 9.09802 12.3757 9.19416 12.3757C9.2903 12.3757 9.38653 12.3391 9.45985 12.2657L13.0673 8.65816C13.2141 8.51135 13.2141 8.27346 13.0674 8.1267Z" fill="#217E00" stroke="#217E00" stroke-width="0.4"/>
</g>
<defs>
<clipPath id="clip0_236_2207">
<rect width="24" height="24" fill="white"/>
</clipPath>
</defs>
</svg>
