<svg width="25" height="24" viewBox="0 0 25 24" fill="none" xmlns="http://www.w3.org/2000/svg">
<path fill-rule="evenodd" clip-rule="evenodd" d="M12.6172 1.25H12.73C14.5678 1.24998 16.0234 1.24997 17.1626 1.40314C18.335 1.56076 19.284 1.89288 20.0323 2.64124C20.7807 3.38961 21.1128 4.33856 21.2704 5.51098C21.3732 6.27504 21.407 7.18144 21.4181 8.25H21.6736C22.6401 8.25 23.4236 9.0335 23.4236 10V11C23.4236 11.5508 23.1642 12.0695 22.7236 12.4L21.4211 13.3768C21.4138 14.6093 21.3849 15.6375 21.2704 16.489C21.1128 17.6614 20.7807 18.6104 20.0323 19.3588C19.8425 19.5486 19.6397 19.7117 19.4236 19.852V21C19.4236 21.9665 18.6401 22.75 17.6736 22.75H16.1736C15.2071 22.75 14.4236 21.9665 14.4236 21V20.7445C13.8989 20.75 13.3352 20.75 12.73 20.75H12.6172C12.012 20.75 11.4482 20.75 10.9236 20.7445V21C10.9236 21.9665 10.1401 22.75 9.17358 22.75H7.67358C6.70709 22.75 5.92358 21.9665 5.92358 21V19.852C5.7075 19.7117 5.50471 19.5486 5.31483 19.3588C4.56646 18.6104 4.23435 17.6614 4.07672 16.489C3.96224 15.6375 3.93333 14.6093 3.92604 13.3768L2.62358 12.4C2.18292 12.0695 1.92358 11.5508 1.92358 11V10C1.92358 9.0335 2.70709 8.25 3.67358 8.25H3.92904C3.94017 7.18144 3.97399 6.27504 4.07672 5.51098C4.23435 4.33856 4.56646 3.38961 5.31483 2.64124C6.06319 1.89288 7.01214 1.56076 8.18456 1.40314C9.32377 1.24997 10.7794 1.24998 12.6172 1.25ZM3.92359 9.75H3.67358C3.53551 9.75 3.42358 9.86193 3.42358 10V11C3.42358 11.0787 3.46063 11.1528 3.52358 11.2L3.92358 11.5L3.92358 9.94359C3.92358 9.87858 3.92358 9.81405 3.92359 9.75ZM5.42931 13.75C5.4402 14.7836 5.47179 15.6082 5.56334 16.2892C5.69861 17.2952 5.95228 17.8749 6.37549 18.2981C6.7987 18.7213 7.37834 18.975 8.38443 19.1102C9.4121 19.2484 10.7668 19.25 12.6736 19.25C14.5804 19.25 15.9351 19.2484 16.9627 19.1102C17.9688 18.975 18.5485 18.7213 18.9717 18.2981C19.3949 17.8749 19.6486 17.2952 19.7838 16.2892C19.8754 15.6082 19.907 14.7836 19.9179 13.75H5.42931ZM19.9236 12.25H5.4236C5.42359 12.1677 5.42358 12.0844 5.42358 12V10C5.42358 8.1173 5.42514 6.77287 5.55817 5.75H19.789C19.922 6.77287 19.9236 8.1173 19.9236 10V12C19.9236 12.0844 19.9236 12.1677 19.9236 12.25ZM21.4236 11.5L21.8236 11.2C21.8865 11.1528 21.9236 11.0787 21.9236 11V10C21.9236 9.86193 21.8117 9.75 21.6736 9.75H21.4236C21.4236 9.81405 21.4236 9.87858 21.4236 9.94359V11.5ZM19.3746 4.25C19.2618 4.03672 19.1284 3.85859 18.9717 3.7019C18.5485 3.27869 17.9688 3.02502 16.9627 2.88976C15.9351 2.75159 14.5804 2.75 12.6736 2.75C10.7668 2.75 9.4121 2.75159 8.38443 2.88976C7.37834 3.02502 6.7987 3.27869 6.37549 3.7019C6.2188 3.85859 6.08535 4.03672 5.97255 4.25H19.3746ZM7.42358 20.4605V21C7.42358 21.1381 7.53551 21.25 7.67358 21.25H9.17358C9.31166 21.25 9.42358 21.1381 9.42358 21V20.7042C8.97424 20.6815 8.56203 20.6476 8.18456 20.5969C7.91957 20.5612 7.666 20.5167 7.42358 20.4605ZM15.9236 20.7042V21C15.9236 21.1381 16.0355 21.25 16.1736 21.25H17.6736C17.8117 21.25 17.9236 21.1381 17.9236 21V20.4605C17.6812 20.5167 17.4276 20.5612 17.1626 20.5969C16.7851 20.6476 16.3729 20.6815 15.9236 20.7042ZM6.92358 16C6.92358 15.5858 7.25937 15.25 7.67358 15.25H9.17358C9.5878 15.25 9.92358 15.5858 9.92358 16C9.92358 16.4142 9.5878 16.75 9.17358 16.75H7.67358C7.25937 16.75 6.92358 16.4142 6.92358 16ZM15.4236 16C15.4236 15.5858 15.7594 15.25 16.1736 15.25H17.6736C18.0878 15.25 18.4236 15.5858 18.4236 16C18.4236 16.4142 18.0878 16.75 17.6736 16.75H16.1736C15.7594 16.75 15.4236 16.4142 15.4236 16Z" fill="#061822"/>
</svg>
