<svg width="13" height="13" viewBox="0 0 13 13" fill="none" xmlns="http://www.w3.org/2000/svg">
<path d="M4.85576 9.74998C4.72434 10.6687 3.93421 11.375 2.97913 11.375C2.02404 11.375 1.23391 10.6687 1.10249 9.74998H0.541626V3.24998C0.541626 2.95083 0.784141 2.70831 1.08329 2.70831H8.66663C8.96579 2.70831 9.20829 2.95083 9.20829 3.24998V4.33331H10.8333L12.4583 6.53015V9.74998H11.3558C11.2243 10.6687 10.4342 11.375 9.47913 11.375C8.52406 11.375 7.73393 10.6687 7.60247 9.74998H4.85576ZM8.12496 3.79165H1.62496V8.15233C1.96906 7.80117 2.44865 7.58331 2.97913 7.58331C3.7354 7.58331 4.38825 8.02613 4.69252 8.66665H7.76573C7.85656 8.47544 7.97849 8.30178 8.12496 8.15233V3.79165ZM9.20829 7.04165H11.375V6.88727L10.2871 5.41665H9.20829V7.04165ZM9.47913 10.2916C9.83289 10.2916 10.1338 10.0656 10.2454 9.74998C10.2753 9.66526 10.2916 9.5741 10.2916 9.47915C10.2916 9.03043 9.92784 8.66665 9.47913 8.66665C9.03041 8.66665 8.66663 9.03043 8.66663 9.47915C8.66663 9.5741 8.68293 9.66526 8.71288 9.74998C8.82441 10.0656 9.12536 10.2916 9.47913 10.2916ZM3.79163 9.47915C3.79163 9.03043 3.42786 8.66665 2.97913 8.66665C2.53039 8.66665 2.16663 9.03043 2.16663 9.47915C2.16663 9.5741 2.18292 9.66526 2.21286 9.74998C2.3244 10.0656 2.62536 10.2916 2.97913 10.2916C3.33289 10.2916 3.63385 10.0656 3.74539 9.74998C3.77533 9.66526 3.79163 9.5741 3.79163 9.47915Z" fill="#796E0C"/>
</svg>
