<svg width="20" height="20" viewBox="0 0 20 20" fill="none" xmlns="http://www.w3.org/2000/svg">
<path d="M10.8337 18.3328C14.2129 18.3268 15.9824 18.2438 17.1133 17.1129C18.3337 15.8925 18.3337 13.9284 18.3337 9.99999C18.3337 6.07162 18.3337 4.10743 17.1133 2.88704C15.8929 1.66666 13.9287 1.66666 10.0003 1.66666C6.07196 1.66666 4.10778 1.66666 2.88739 2.88704C1.75653 4.0179 1.67357 5.78743 1.66748 9.16666" stroke="#929799" stroke-width="1.25" stroke-linecap="round"/>
<path d="M14.1667 5.83333L10 10M10 10H13.125M10 10V6.875" stroke="#929799" stroke-width="1.25" stroke-linecap="round" stroke-linejoin="round"/>
<path d="M1.66669 15C1.66669 13.4286 1.66669 12.643 2.15484 12.1548C2.643 11.6667 3.42867 11.6667 5.00002 11.6667C6.57137 11.6667 7.35704 11.6667 7.8452 12.1548C8.33335 12.643 8.33335 13.4286 8.33335 15C8.33335 16.5713 8.33335 17.357 7.8452 17.8452C7.35704 18.3333 6.57137 18.3333 5.00002 18.3333C3.42867 18.3333 2.643 18.3333 2.15484 17.8452C1.66669 17.357 1.66669 16.5713 1.66669 15Z" stroke="#929799" stroke-width="1.25"/>
</svg>
