<svg width="24" height="24" viewBox="0 0 24 24" fill="none" xmlns="http://www.w3.org/2000/svg">
<path d="M12 8V12L14.5 14.5" stroke="#1C274C" stroke-width="1.5" stroke-linecap="round" stroke-linejoin="round"/>
<path d="M5.6042 5.60423L5.07387 5.0739L5.07387 5.0739L5.6042 5.60423ZM4.33782 6.87061L3.58783 6.87438C3.5899 7.28565 3.92279 7.61854 4.33405 7.6206L4.33782 6.87061ZM6.8796 7.6334C7.29381 7.63548 7.63128 7.30138 7.63336 6.88717C7.63545 6.47297 7.30135 6.1355 6.88714 6.13341L6.8796 7.6334ZM5.07502 4.32129C5.07294 3.90708 4.73547 3.57299 4.32126 3.57507C3.90705 3.57715 3.57296 3.91462 3.57504 4.32883L5.07502 4.32129ZM3.82667 10.785C3.88292 10.3746 3.59584 9.99636 3.18547 9.94011C2.77509 9.88386 2.39681 10.1709 2.34056 10.5813L3.82667 10.785ZM18.332 5.66819L18.8623 5.13786C15.0421 1.31767 8.86879 1.27898 5.07387 5.0739L5.6042 5.60423L6.13453 6.13456C9.33364 2.93546 14.5572 2.95404 17.8016 6.19852L18.332 5.66819ZM5.66816 18.332L5.13783 18.8623C8.95802 22.6825 15.1313 22.7212 18.9262 18.9263L18.3959 18.396L17.8656 17.8656C14.6665 21.0647 9.44297 21.0461 6.19849 17.8017L5.66816 18.332ZM18.3959 18.396L18.9262 18.9263C22.7212 15.1314 22.6825 8.95805 18.8623 5.13786L18.332 5.66819L17.8016 6.19852C21.0461 9.443 21.0647 14.6665 17.8656 17.8656L18.3959 18.396ZM5.6042 5.60423L5.07387 5.0739L3.80749 6.34028L4.33782 6.87061L4.86815 7.40094L6.13453 6.13456L5.6042 5.60423ZM4.33782 6.87061L4.33405 7.6206L6.8796 7.6334L6.88337 6.8834L6.88714 6.13341L4.34159 6.12062L4.33782 6.87061ZM4.33782 6.87061L5.08781 6.86684L5.07502 4.32129L4.32503 4.32506L3.57504 4.32883L3.58783 6.87438L4.33782 6.87061ZM3.08362 10.6832L2.34056 10.5813C1.93913 13.51 2.87398 16.5985 5.13783 18.8623L5.66816 18.332L6.19849 17.8017C4.27792 15.8811 3.48669 13.2653 3.82667 10.785L3.08362 10.6832Z" fill="#1C274C"/>
</svg>
