<svg width="25" height="24" viewBox="0 0 25 24" fill="none" xmlns="http://www.w3.org/2000/svg">
<path fill-rule="evenodd" clip-rule="evenodd" d="M13.9848 4.3322C13.1439 3.57443 11.8767 3.57443 11.0358 4.3322L5.1174 9.66553C4.64359 10.0925 4.37249 10.7045 4.37249 11.3472V21.25H5.85209L5.85209 15.948C5.85206 15.0495 5.85204 14.3003 5.93092 13.7055C6.01417 13.0777 6.19732 12.5109 6.64659 12.0555C7.09587 11.6 7.65496 11.4143 8.27422 11.3299C8.86091 11.2499 9.59994 11.25 10.4862 11.25H14.5344C15.4206 11.25 16.1597 11.2499 16.7464 11.3299C17.3656 11.4143 17.9247 11.6 18.374 12.0555C18.8233 12.5109 19.0064 13.0777 19.0897 13.7055C19.1685 14.3003 19.1685 15.0495 19.1685 15.948V21.25H20.6481V11.3472C20.6481 10.7045 20.377 10.0925 19.9032 9.66553L13.9848 4.3322ZM22.1277 21.25V11.3472C22.1277 10.2761 21.6759 9.25605 20.8862 8.54442L14.9678 3.21109C13.5663 1.94813 11.4543 1.94813 10.0528 3.21109L4.13441 8.54442C3.34472 9.25605 2.89289 10.2761 2.89289 11.3472V21.25H2.64629C2.23771 21.25 1.90649 21.5858 1.90649 22C1.90649 22.4142 2.23771 22.75 2.64629 22.75H22.3743C22.7829 22.75 23.1141 22.4142 23.1141 22C23.1141 21.5858 22.7829 21.25 22.3743 21.25H22.1277ZM17.6889 21.25V16C17.6889 15.036 17.6873 14.3884 17.6233 13.9054C17.5621 13.4439 17.4563 13.2464 17.3277 13.1161C17.1992 12.9858 17.0044 12.8786 16.5492 12.8165C16.0727 12.7516 15.434 12.75 14.4831 12.75H10.5375C9.58659 12.75 8.94783 12.7516 8.47137 12.8165C8.01618 12.8786 7.82137 12.9858 7.69283 13.1161C7.56428 13.2464 7.45852 13.4439 7.39732 13.9054C7.33326 14.3884 7.33169 15.036 7.33169 16V21.25H17.6889ZM9.79769 9.00001C9.79769 8.58579 10.1289 8.25001 10.5375 8.25001H14.4831C14.8917 8.25001 15.2229 8.58579 15.2229 9.00001C15.2229 9.41422 14.8917 9.75001 14.4831 9.75001H10.5375C10.1289 9.75001 9.79769 9.41422 9.79769 9.00001ZM8.81129 15.5C8.81129 15.0858 9.14251 14.75 9.55109 14.75H15.4695C15.8781 14.75 16.2093 15.0858 16.2093 15.5C16.2093 15.9142 15.8781 16.25 15.4695 16.25H9.55109C9.14251 16.25 8.81129 15.9142 8.81129 15.5ZM8.81129 18.5C8.81129 18.0858 9.14251 17.75 9.55109 17.75H15.4695C15.8781 17.75 16.2093 18.0858 16.2093 18.5C16.2093 18.9142 15.8781 19.25 15.4695 19.25H9.55109C9.14251 19.25 8.81129 18.9142 8.81129 18.5Z" fill="#092839"/>
</svg>
