<svg width="24" height="24" viewBox="0 0 24 24" fill="none" xmlns="http://www.w3.org/2000/svg">
<path d="M5.48924 16.466V15.5068L7.33694 13.5074H5.54859V12.4751H8.91116V13.4262L7.04168 15.4392H9.01133V16.4662L5.48924 16.466ZM10.149 16.466V12.4748H11.7911C12.154 12.4748 12.4418 12.4961 12.6539 12.5387C12.8662 12.581 13.0436 12.6491 13.1863 12.743C13.3704 12.8677 13.5079 13.022 13.5983 13.2063C13.6884 13.3907 13.7337 13.6093 13.7337 13.862C13.7337 14.3082 13.602 14.6501 13.3381 14.8877C13.0744 15.1252 12.6942 15.2441 12.1973 15.2441H11.4305V16.466H10.149ZM11.4305 14.2687H11.8425C12.1097 14.2687 12.2885 14.2389 12.3792 14.1795C12.4693 14.1199 12.5146 14.0142 12.5146 13.8622C12.5146 13.709 12.4711 13.6023 12.3844 13.5427C12.2975 13.4831 12.1172 13.4535 11.8425 13.4535H11.4305V14.2687ZM14.8033 16.466V12.4748H16.0848V15.4064H17.8271V16.4657L14.8033 16.466ZM20.4644 0H18.7324H4.45746H1.00173C0.449527 0 0 0.449527 0 1.00173V9.73032V19.2192V22.9983C0 23.5505 0.449527 24 1.00173 24H22.2713C22.8235 24 23.273 23.5505 23.273 22.9983V19.2192V9.73032V3.13292L20.4644 0ZM14.141 4.77901H15.2469C15.5927 4.77901 15.8729 4.46722 15.8729 4.08231V0.751299H17.9811V5.5511C17.9811 5.68934 17.8686 5.80153 17.7307 5.80153H7.49521V0.751299H13.5149V4.08231C13.5149 4.46722 13.7951 4.77901 14.141 4.77901ZM6.74391 0.751299V5.80153H5.45919C5.3207 5.80153 5.20876 5.68934 5.20876 5.5511V0.751299H6.74391ZM0.751299 10.4819H22.5217V18.4682H0.751299V10.4819ZM22.5217 22.9983C22.5217 23.1363 22.4093 23.2487 22.2713 23.2487H1.00173C0.863744 23.2487 0.751299 23.1363 0.751299 22.9983V19.2192H22.5217V22.9983ZM0.751299 9.73058V1.00173C0.751299 0.863744 0.863744 0.751299 1.00173 0.751299H4.45746V5.5511C4.45746 6.10355 4.90648 6.55283 5.45919 6.55283H17.7307C18.2829 6.55283 18.7324 6.10355 18.7324 5.5511V0.751299H20.1288L22.5217 3.42016V9.73032L0.751299 9.73058Z" fill="white"/>
</svg>
