<svg width="47" height="49" viewBox="0 0 47 49" fill="none" xmlns="http://www.w3.org/2000/svg">
<path d="M24.6599 20.4456L12.596 24.2156C12.3252 24.3002 12.1743 24.5885 12.2589 24.8593C12.3435 25.1302 12.6317 25.281 12.9025 25.1964L24.9664 21.4263C25.2372 21.3417 25.3882 21.0536 25.3036 20.7828C25.219 20.5119 24.9307 20.3609 24.6599 20.4456Z" fill="#E7EBF6"/>
<path d="M25.7893 24.0628L13.7254 27.8328C13.4546 27.9174 13.3036 28.2055 13.3882 28.4763C13.4729 28.7472 13.7611 28.8982 14.0319 28.8135L26.0958 25.0435C26.3666 24.9589 26.5176 24.6706 26.4329 24.3998C26.3483 24.1289 26.0601 23.9781 25.7893 24.0628Z" fill="#E7EBF6"/>
<path d="M26.9196 27.679L14.8558 31.449C14.585 31.5336 14.434 31.8219 14.5187 32.0927C14.6033 32.3636 14.8915 32.5144 15.1623 32.4298L27.2261 28.6597C27.497 28.5751 27.648 28.287 27.5634 28.0161C27.4787 27.7453 27.1905 27.5943 26.9196 27.679Z" fill="#E7EBF6"/>
<path d="M28.0495 31.2963L15.9857 35.0664C15.7148 35.151 15.5639 35.4392 15.6485 35.71C15.7331 35.9809 16.0213 36.1318 16.2922 36.0472L28.356 32.2771C28.6268 32.1925 28.7778 31.9043 28.6932 31.6335C28.6086 31.3626 28.3203 31.2117 28.0495 31.2963Z" fill="#E7EBF6"/>
<path d="M35.9293 29.6812C32.6304 30.7122 29.1075 28.867 28.0766 25.5681C27.0456 22.2691 28.891 18.7463 32.1899 17.7154C35.4888 16.6845 39.0114 18.5297 40.0423 21.8287C41.0733 25.1276 39.2282 28.6503 35.9293 29.6812ZM40.1939 28.4494C40.5618 29.6267 40.0467 30.9132 38.9691 31.5086C38.9529 31.5174 38.9367 31.5261 38.9202 31.5348L38.3573 29.5964C38.5002 29.4921 38.6397 29.3826 38.7754 29.2675C39.2508 28.8645 39.669 28.4069 40.0244 27.9007L40.1933 28.4476L40.1939 28.4494ZM38.0621 32.2646C38.4741 33.5831 37.7816 34.9872 36.5097 35.4758L35.0916 30.9223C35.4766 30.8667 35.8587 30.7799 36.2358 30.662C36.6589 30.5298 37.0646 30.362 37.4509 30.1597L38.059 32.2547L38.0621 32.2646ZM34.0984 39.9494C32.7262 40.3783 31.2606 39.6108 30.8317 38.2385L30.437 36.9757L14.9895 41.8031L7.06624 16.4493L21.4656 11.9494L23.3946 18.1223L29.422 16.2387L29.8863 17.7115C29.6997 17.8418 29.5187 17.9808 29.3438 18.1291C28.624 18.7391 28.0362 19.4737 27.5966 20.3131C27.1569 21.1524 26.8877 22.0539 26.7961 22.9928C26.7011 23.9652 26.8021 24.9347 27.0958 25.8746C27.3895 26.8144 27.8586 27.6689 28.4903 28.4142C29.1003 29.134 29.8349 29.7218 30.6742 30.1613C31.5135 30.6008 32.4151 30.8701 33.3541 30.9617C33.5826 30.984 33.8106 30.9954 34.0385 30.9961L35.8092 36.6829C36.2381 38.0553 35.4706 39.5206 34.0984 39.9494ZM15.9598 45.8534L15.954 45.8553C14.912 46.208 13.9225 46.1712 13.0932 45.7491C12.3937 45.393 11.8483 44.7837 11.4963 43.9714L29.7628 38.263L29.8509 38.5449C30.1405 39.4717 30.7737 40.2302 31.634 40.6807C31.6646 40.6967 31.6954 40.7123 31.7261 40.7275L15.9598 45.8534ZM9.31904 12.0312L23.4242 7.62324L24.9028 12.3546L21.8466 10.7538L10.07 14.4341L9.31904 12.0312ZM11.4507 8.21593L25.8746 3.70834L27.2039 7.9617L24.0993 6.33575L12.0408 10.1041L11.4507 8.21593ZM34.1878 16.4019L32.393 10.68L29.4821 9.15502L33.7479 7.82191L36.5747 16.8488C35.9927 16.6346 35.387 16.4959 34.7651 16.4349C34.5724 16.4161 34.3798 16.4052 34.1878 16.4019ZM30.765 10.987L26.0143 12.4664L24.5316 7.72201L30.765 10.987ZM27.0817 4.12606L32.7047 7.07139L28.4205 8.41023L27.0817 4.12606ZM30.7939 17.1728L30.14 15.0978L26.7395 13.3169L31.6623 11.784L33.1293 16.4604C32.7096 16.5149 32.2937 16.6064 31.8834 16.7346C31.5057 16.8527 31.1422 16.9989 30.7939 17.1728ZM22.6653 12.3426L25.3363 13.7417L25.3397 13.7526L25.3506 13.7492L28.5615 15.4311L24.0692 16.835L22.6653 12.3426ZM41.0231 21.5222C40.7294 20.5823 40.2603 19.7278 39.6286 18.9825C39.117 18.379 38.5178 17.8682 37.8427 17.4597L34.525 6.8646L26.231 2.52044L10.1634 7.54169L11.06 10.4106L8.03175 11.357L9.08916 14.7406L5.77894 15.7751L14.0087 42.1097L10.1836 43.305L10.3368 43.7954C10.5423 44.4531 10.8448 45.0342 11.2359 45.5227C11.6249 46.0087 12.093 46.393 12.627 46.6648C13.1598 46.936 13.744 47.088 14.3635 47.1169C14.9436 47.1438 15.5435 47.0617 16.1486 46.8726C16.1923 46.8589 16.2362 46.8447 16.28 46.8299L34.4185 40.9327L34.4165 40.9266C35.3379 40.6353 36.092 40.0038 36.5406 39.1473C36.9779 38.3125 37.0741 37.361 36.8149 36.4588C37.6701 36.149 38.3686 35.5401 38.7935 34.729C39.1488 34.0507 39.2788 33.2952 39.1758 32.5514C39.2747 32.5078 39.3717 32.46 39.4659 32.408C40.1886 32.0088 40.7587 31.366 41.0719 30.5978C41.3894 29.8191 41.4258 28.9478 41.1749 28.1439L40.7213 26.6736C41.0441 25.9532 41.2461 25.1917 41.3229 24.4039C41.4178 23.4316 41.3168 22.462 41.0231 21.5222Z" fill="#E7EBF6"/>
<path d="M35.6902 25.5146C35.5789 25.7568 35.3763 25.9579 35.0829 26.1176L34.4468 24.082C34.8008 24.0836 35.0839 24.132 35.2954 24.2274C35.5073 24.3228 35.6554 24.5052 35.7396 24.7748C35.8181 25.0257 35.8013 25.2725 35.6902 25.5146ZM33.4252 22.8863C33.1144 22.8713 32.8711 22.8222 32.6956 22.7392C32.5199 22.6565 32.3941 22.4926 32.3176 22.2479C32.2372 21.9906 32.25 21.7759 32.356 21.6032C32.4617 21.4308 32.6326 21.2651 32.8689 21.1063L33.4252 22.8863ZM35.8057 23.0605C35.5747 22.9525 35.3319 22.8906 35.077 22.875C34.8223 22.8595 34.4861 22.8591 34.0692 22.8737L33.465 20.9405C33.895 20.9454 34.2218 21.1257 34.4449 21.481C34.6374 21.7813 34.8855 21.8841 35.1891 21.7892C35.3502 21.7389 35.4697 21.6394 35.5474 21.491C35.6251 21.3426 35.6399 21.1909 35.5915 21.036C35.5479 20.8966 35.4618 20.7552 35.3337 20.6115C35.2055 20.468 35.0471 20.339 34.8582 20.2245C34.6166 20.072 34.3616 19.9817 34.0924 19.9537C33.8237 19.9253 33.5181 19.9462 33.176 20.0156L33.0191 19.5136C32.9398 19.2597 32.8006 19.1637 32.6025 19.2256C32.4073 19.2866 32.3504 19.4472 32.4317 19.7074L32.5857 20.2001C31.9617 20.4563 31.5335 20.8078 31.3006 21.2546C31.068 21.7016 31.0348 22.1914 31.2012 22.7241C31.3291 23.1331 31.5203 23.4406 31.7752 23.6467C32.0301 23.8527 32.3191 23.9826 32.6418 24.0365C32.9648 24.0903 33.3518 24.1097 33.8027 24.0945L34.4781 26.2556C34.252 26.2616 34.0589 26.2285 33.8985 26.1561C33.7383 26.0837 33.6061 25.9899 33.5019 25.8746C33.3979 25.7591 33.2643 25.5875 33.1012 25.3595C33.0274 25.2534 32.9319 25.1828 32.8156 25.1478C32.6993 25.1127 32.5715 25.117 32.4321 25.1606C32.2585 25.2148 32.1323 25.3198 32.0533 25.4753C31.9746 25.6308 31.9584 25.783 32.0049 25.9317C32.0678 26.1331 32.1752 26.3248 32.3272 26.5069C32.4793 26.689 32.6764 26.8485 32.9182 26.9854C33.1598 27.1224 33.4367 27.2136 33.7483 27.2591C34.0601 27.3044 34.4036 27.2906 34.7787 27.2176L35.1709 28.4724C35.2154 28.6149 35.2706 28.7132 35.3369 28.7673C35.4031 28.8215 35.492 28.8311 35.6036 28.7962C35.7244 28.7585 35.7896 28.6922 35.7992 28.5974C35.8086 28.5027 35.7849 28.3638 35.7278 28.1811L35.3661 27.0238C35.7974 26.8483 36.1437 26.6125 36.405 26.3166C36.6663 26.0207 36.8315 25.6928 36.901 25.3326C36.9702 24.9726 36.9499 24.6159 36.8395 24.2627C36.7514 23.9809 36.6182 23.7376 36.4407 23.5329C36.2626 23.3283 36.0509 23.171 35.8057 23.0605Z" fill="#E7EBF6"/>
</svg>
