<svg width="14" height="13" viewBox="0 0 14 13" fill="none" xmlns="http://www.w3.org/2000/svg">
<path d="M7.00073 8.99316C6.60933 8.99316 6.28125 9.32125 6.28125 9.71264C6.28125 10.104 6.60933 10.4321 7.00073 10.4321C7.37774 10.4321 7.72021 10.104 7.70294 9.72991C7.72021 9.31837 7.395 8.99316 7.00073 8.99316Z" fill="#AD7419"/>
<path d="M13.6593 11.5433C14.1112 10.7634 14.114 9.83384 13.6651 9.0568L9.15826 1.25189C8.71218 0.466222 7.90637 0 7.0027 0C6.09904 0 5.29322 0.4691 4.84714 1.24902L0.334571 9.06256C-0.114383 9.84823 -0.111505 10.7835 0.343205 11.5635C0.79216 12.3347 1.5951 12.7981 2.49301 12.7981H11.4951C12.3959 12.7981 13.2046 12.329 13.6593 11.5433ZM12.6808 10.9792C12.4304 11.4109 11.9873 11.6671 11.4922 11.6671H2.49013C2.00088 11.6671 1.56056 11.4167 1.31594 10.9936C1.06844 10.5648 1.06556 10.0526 1.31306 9.62087L5.82563 1.81021C6.07026 1.3814 6.5077 1.12814 7.0027 1.12814C7.49482 1.12814 7.93515 1.38428 8.17977 1.81309L12.6895 9.62375C12.9312 10.0439 12.9283 10.5504 12.6808 10.9792Z" fill="#AD7419"/>
<path d="M6.82106 3.94268C6.47859 4.04052 6.26562 4.35134 6.26562 4.72835C6.28289 4.9557 6.29728 5.18593 6.31455 5.41329C6.36347 6.27954 6.4124 7.12853 6.46132 7.99478C6.47859 8.28833 6.70595 8.50129 6.99949 8.50129C7.29304 8.50129 7.52327 8.27394 7.53766 7.97751C7.53766 7.79908 7.53766 7.63504 7.55493 7.45373C7.58659 6.89829 7.62112 6.34286 7.65278 5.78742C7.67005 5.42768 7.7017 5.06794 7.71897 4.7082C7.71897 4.57869 7.7017 4.46358 7.65278 4.34846C7.50601 4.02613 7.16353 3.86209 6.82106 3.94268Z" fill="#AD7419"/>
</svg>
