<svg width="18" height="18" viewBox="0 0 18 18" fill="none" xmlns="http://www.w3.org/2000/svg">
<path d="M9 5.25V9.75" stroke="#092839" stroke-width="1.5" stroke-linecap="round"/>
<circle cx="9" cy="12" r="0.75" fill="#092839"/>
<path d="M5.88231 2.85159C7.40385 1.95053 8.16462 1.5 9 1.5C9.83538 1.5 10.5962 1.95053 12.1177 2.85159L12.6323 3.15634C14.1538 4.0574 14.9146 4.50793 15.3323 5.25C15.75 5.99207 15.75 6.89313 15.75 8.69524V9.30476C15.75 11.1069 15.75 12.0079 15.3323 12.75C14.9146 13.4921 14.1538 13.9426 12.6323 14.8437L12.1177 15.1484C10.5962 16.0495 9.83538 16.5 9 16.5C8.16462 16.5 7.40385 16.0495 5.88231 15.1484L5.36769 14.8437C3.84615 13.9426 3.08538 13.4921 2.66769 12.75C2.25 12.0079 2.25 11.1069 2.25 9.30476V8.69524C2.25 6.89313 2.25 5.99207 2.66769 5.25C3.08538 4.50793 3.84615 4.0574 5.36769 3.15634L5.88231 2.85159Z" stroke="#092839" stroke-width="1.5"/>
</svg>
