<svg width="18" height="18" viewBox="0 0 18 18" fill="none" xmlns="http://www.w3.org/2000/svg">
<path fill-rule="evenodd" clip-rule="evenodd" d="M8.99935 0.666504C4.39698 0.666504 0.666016 4.39746 0.666016 8.99984C0.666016 13.6022 4.39698 17.3332 8.99935 17.3332C13.6017 17.3332 17.3327 13.6022 17.3327 8.99984C17.3327 6.7897 16.4547 4.67008 14.8919 3.10728C13.3291 1.54448 11.2095 0.666504 8.99935 0.666504ZM9.83268 12.3332C9.83268 12.7934 9.45959 13.1665 8.99935 13.1665C8.53911 13.1665 8.16602 12.7934 8.16602 12.3332V8.1665C8.16602 7.70627 8.53911 7.33317 8.99935 7.33317C9.45959 7.33317 9.83268 7.70627 9.83268 8.1665V12.3332ZM8.16602 5.6665C8.16602 6.12674 8.53911 6.49984 8.99935 6.49984C9.45959 6.49984 9.83268 6.12674 9.83268 5.6665C9.83268 5.20627 9.45959 4.83317 8.99935 4.83317C8.53911 4.83317 8.16602 5.20627 8.16602 5.6665Z" fill="#FF0000"/>
</svg>
