<svg width="24" height="24" viewBox="0 0 24 24" fill="none" xmlns="http://www.w3.org/2000/svg">
<path d="M22 22H2" stroke="white" stroke-width="1.5" stroke-linecap="round"/>
<path d="M20 22V11" stroke="white" stroke-width="1.5" stroke-linecap="round"/>
<path d="M4 22V11" stroke="white" stroke-width="1.5" stroke-linecap="round"/>
<path d="M16.5278 2H7.4722C6.26938 2 5.66797 2 5.18467 2.2987C4.70136 2.5974 4.4324 3.13531 3.89449 4.21114L2.49087 7.75929C2.16658 8.57905 1.88285 9.54525 2.42873 10.2375C2.79495 10.7019 3.36263 11 3.99997 11C5.10454 11 5.99997 10.1046 5.99997 9C5.99997 10.1046 6.8954 11 7.99997 11C9.10454 11 9.99997 10.1046 9.99997 9C9.99997 10.1046 10.8954 11 12 11C13.1045 11 14 10.1046 14 9C14 10.1046 14.8954 11 16 11C17.1045 11 18 10.1046 18 9C18 10.1046 18.8954 11 20 11C20.6373 11 21.205 10.7019 21.5713 10.2375C22.1172 9.54525 21.8334 8.57905 21.5092 7.75929L20.1055 4.21114C19.5676 3.13531 19.2987 2.5974 18.8154 2.2987C18.3321 2 17.7307 2 16.5278 2Z" stroke="white" stroke-width="1.5" stroke-linejoin="round"/>
<path d="M9.5 21.5V18.5C9.5 17.5654 9.5 17.0981 9.70096 16.75C9.83261 16.522 10.022 16.3326 10.25 16.201C10.5981 16 11.0654 16 12 16C12.9346 16 13.4019 16 13.75 16.201C13.978 16.3326 14.1674 16.522 14.299 16.75C14.5 17.0981 14.5 17.5654 14.5 18.5V21.5" stroke="white" stroke-width="1.5" stroke-linecap="round"/>
</svg>
