<svg width="14" height="14" viewBox="0 0 14 14" fill="none" xmlns="http://www.w3.org/2000/svg">
<path fill-rule="evenodd" clip-rule="evenodd" d="M11.6871 2.3875C10.9371 1.6375 9.73711 1.6375 8.98711 2.3875L7.78711 3.5875L6.66211 2.5375L7.93711 1.2625C9.28711 -0.0875 11.3871 -0.0875 12.7371 1.2625L12.8121 1.3375C14.1621 2.6875 14.1621 4.7875 12.8121 6.1375L11.5371 7.4125L10.4871 6.3625L11.7621 5.0875C12.5121 4.3375 12.5121 3.2125 11.6871 2.3875Z" fill="#E83131"/>
<path fill-rule="evenodd" clip-rule="evenodd" d="M2.4625 11.6876C3.2125 12.4376 4.4125 12.4376 5.1625 11.6876L6.4375 10.4126L7.4125 11.5376L6.1375 12.8126C4.7875 14.1626 2.6875 14.1626 1.3375 12.8126L1.2625 12.7376C-0.0875 11.3876 -0.0875 9.2876 1.2625 7.9376L2.5375 6.6626L3.5875 7.7126L2.3125 8.9876C1.5625 9.7376 1.5625 10.8626 2.4625 11.6876Z" fill="#E83131"/>
<path fill-rule="evenodd" clip-rule="evenodd" d="M4.33711 3.13721L10.8621 9.73721L9.81211 10.7872L3.28711 4.18721L4.33711 3.13721Z" fill="#E83131"/>
</svg>
