<svg width="88" height="57" viewBox="0 0 88 57" fill="none" xmlns="http://www.w3.org/2000/svg">
<path d="M35.7404 55.9326L0 49.8088V13.9276L35.7404 1.6792V55.9326Z" fill="#FCCC5D"/>
<path d="M2.06123 48.292L35.7404 54.0622V2.64576L2.06123 14.1877V48.292ZM36.771 56.4911C36.7175 56.4911 36.6639 56.4866 36.6103 56.4777L0.869841 50.3539C0.368961 50.2673 0 49.7996 0 49.2483V13.3671C0 12.8792 0.291321 12.4473 0.720058 12.2996L36.4605 0.0519676C36.7738 -0.0554543 37.1153 0.00571823 37.3805 0.216831C37.6457 0.4272 37.8017 0.762894 37.8017 1.11948V55.3721C37.8017 55.6996 37.6697 56.0107 37.4409 56.2226C37.2527 56.3971 37.015 56.4911 36.771 56.4911Z" fill="#393536"/>
<path d="M72.5139 49.2491L36.7734 55.373V1.11954L72.5139 13.3679V49.2491Z" fill="#D48519"/>
<path d="M37.8034 2.64576V54.0622L71.4826 48.292V14.1869L37.8034 2.64576ZM36.7728 56.4911C36.5289 56.4911 36.2912 56.3971 36.1029 56.2226C35.8741 56.01 35.7422 55.6989 35.7422 55.3721V1.11873C35.7422 0.762146 35.8982 0.427197 36.1634 0.216084C36.4279 0.00571442 36.7701 -0.0547104 37.0834 0.0519638L72.8238 12.2996C73.2525 12.4465 73.5439 12.8792 73.5439 13.3671V49.2483C73.5439 49.7989 73.1749 50.2673 72.674 50.3531L36.9336 56.4769C36.88 56.4866 36.8264 56.4911 36.7728 56.4911Z" fill="#393536"/>
<path d="M12.5586 18.5532L23.2145 15.9034V29.3991L12.5586 30.4726V18.5532Z" fill="#393536"/>
<path d="M12.5586 34.6391L23.2145 33.9163V53.1239L12.5586 51.0583V34.6391Z" fill="#393536"/>
<path d="M47.4766 4.69275V41.6825L52.8722 40.8455V6.90908L47.4766 4.69275Z" fill="#393536"/>
<path d="M61.2656 9.19345V40.0497L65.34 39.6491V10.9107L61.2656 9.19345Z" fill="#393536"/>
</svg>
