<svg width="108" height="27" viewBox="0 0 108 27" fill="none" xmlns="http://www.w3.org/2000/svg">
<path d="M17.1085 26.6667L0 23.7471V6.63991L17.1085 0.800233V26.6667Z" fill="#FCCC5D"/>
<path d="M0.986686 23.0241L17.1085 25.7752V1.26127L0.986686 6.76413V23.0241ZM17.6018 26.9332C17.5762 26.9332 17.5505 26.9311 17.5249 26.9268L0.416382 24.0072C0.176617 23.9659 0 23.7429 0 23.4801V6.37289C0 6.14029 0.139452 5.93436 0.344682 5.86394L17.4532 0.0246162C17.6031 -0.0265997 17.7666 0.00256516 17.8936 0.103219C18.0205 0.203516 18.0952 0.363566 18.0952 0.533574V26.3997C18.0952 26.5559 18.032 26.7042 17.9225 26.8052C17.8324 26.8884 17.7186 26.9332 17.6018 26.9332Z" fill="#393536"/>
<path d="M34.7103 23.4801L17.6018 26.3998V0.533266L34.7103 6.37294V23.4801Z" fill="#D48519"/>
<path d="M18.0953 1.26151V25.7754L34.2171 23.0243V6.76402L18.0953 1.26151ZM17.602 26.9335C17.4852 26.9335 17.3714 26.8887 17.2813 26.8054C17.1718 26.7041 17.1086 26.5558 17.1086 26.4V0.533463C17.1086 0.363454 17.1833 0.203761 17.3103 0.103107C17.4369 0.00280949 17.6007 -0.0259999 17.7506 0.0248603L34.8591 5.86418C35.0644 5.93425 35.2038 6.14053 35.2038 6.37314V23.4803C35.2038 23.7428 35.0272 23.9662 34.7874 24.0071L17.6789 26.9267C17.6533 26.9313 17.6276 26.9335 17.602 26.9335Z" fill="#393536"/>
<path d="M6.01172 8.84586L11.1126 7.58253V14.0169L6.01172 14.5287V8.84586Z" fill="#393536"/>
<path d="M6.01172 16.5148L11.1126 16.1702V25.3279L6.01172 24.343V16.5148Z" fill="#393536"/>
<path d="M22.7261 2.23772V19.8734L25.3089 19.4744V3.29441L22.7261 2.23772Z" fill="#393536"/>
<path d="M29.3281 4.3832V19.0946L31.2785 18.9036V5.20194L29.3281 4.3832Z" fill="#393536"/>
<mask id="mask0_779_5198" style="mask-type:alpha" maskUnits="userSpaceOnUse" x="43" y="5" width="65" height="17">
<path d="M48.8944 11.9239L48.1367 9.76978H45.087C44.9773 10.1084 44.8584 10.4665 44.7302 10.8436C44.602 11.2212 44.4796 11.5813 44.3624 11.9239H43.8814C44.0851 11.3445 44.2864 10.7772 44.4842 10.2224C44.682 9.66809 44.8787 9.11595 45.0754 8.56752C45.2714 8.01877 45.4687 7.46713 45.6665 6.91236C45.8649 6.35752 46.0657 5.7924 46.2693 5.21749H46.9086L49.438 11.9239H48.8944ZM46.5692 5.6579L45.2059 9.38427H48.0062L46.5692 5.6579ZM52.9681 11.9239H51.0954V5.22954H52.9681C54.013 5.22954 54.7956 5.502 55.3159 6.04654C55.8369 6.59109 56.0974 7.41619 56.0974 8.52141C56.0974 10.7897 55.0543 11.9239 52.9681 11.9239ZM55.0676 6.45627C54.864 6.21367 54.5913 6.02916 54.2502 5.90269C53.9079 5.77621 53.4775 5.71304 52.9571 5.71304H51.5479V11.4342H52.9571C53.4734 11.4342 53.9027 11.369 54.2438 11.2382C54.5855 11.1078 54.8582 10.9172 55.0618 10.6665C55.2655 10.4153 55.4088 10.1104 55.4917 9.75165C55.5747 9.39237 55.6165 8.98239 55.6165 8.52141C55.6165 8.08081 55.5758 7.68721 55.4946 7.34072C55.4134 6.99398 55.2713 6.69912 55.0676 6.45627ZM60.5552 11.9239H59.9727L57.5454 5.22339H58.049L60.2668 11.312L62.4847 5.22339H62.983L60.5552 11.9239ZM69.0646 11.9239L68.307 9.76978H65.2572C65.1475 10.1084 65.0286 10.4665 64.9004 10.8436C64.7722 11.2212 64.6498 11.5813 64.5326 11.9239H64.0516C64.2553 11.3445 64.4566 10.7772 64.6544 10.2224C64.8522 9.66809 65.0489 9.11595 65.2456 8.56752C65.4417 8.01877 65.6389 7.46713 65.8367 6.91236C66.0351 6.35752 66.2359 5.7924 66.4389 5.21749H67.0788L69.6082 11.9239H69.0646ZM66.7394 5.6579L65.3755 9.38427H68.1764L66.7394 5.6579ZM75.4531 11.9239L71.6729 5.80488V11.9239H71.2204V5.22339H71.8423L75.5941 11.3303V5.22339H76.0466V11.9239H75.4531ZM82.5812 6.45627C82.4687 6.28324 82.3265 6.1323 82.1571 6.00363C81.9877 5.87502 81.7922 5.77402 81.5712 5.70074C81.3508 5.62747 81.1141 5.59045 80.8617 5.59045C80.5032 5.59045 80.1777 5.65394 79.8853 5.78017C79.5929 5.90683 79.3441 6.09334 79.1387 6.34015C78.9327 6.58714 78.7744 6.89492 78.663 7.26424C78.5516 7.63332 78.4959 8.06268 78.4959 8.55202C78.4959 9.04167 78.5516 9.47323 78.663 9.8462C78.7744 10.2197 78.9327 10.5329 79.1387 10.7853C79.3441 11.0384 79.5906 11.2303 79.8795 11.3607C80.1684 11.4916 80.4898 11.5568 80.8443 11.5568C81.3798 11.5568 81.8212 11.4271 82.1682 11.1681C82.5157 10.9091 82.7303 10.5307 82.8133 10.033H83.2832C83.2379 10.351 83.1451 10.6355 83.0059 10.8865C82.8661 11.1377 82.6909 11.3485 82.4797 11.5197C82.2685 11.6913 82.0249 11.8217 81.7493 11.9113C81.4743 12.001 81.1761 12.0459 80.8559 12.0459C80.4185 12.0459 80.0246 11.9633 79.6759 11.7984C79.3267 11.633 79.0302 11.3994 78.7848 11.0975C78.5394 10.7956 78.3509 10.4297 78.2192 9.99915C78.0869 9.56878 78.0213 9.08653 78.0213 8.55202C78.0213 8.02197 78.0869 7.54486 78.2192 7.12039C78.3509 6.69617 78.5406 6.33425 78.7877 6.03406C79.0348 5.73431 79.3325 5.504 79.6817 5.34296C80.0304 5.18173 80.422 5.10086 80.8559 5.10086C81.1535 5.10086 81.4378 5.14791 81.7075 5.24202C81.9767 5.33587 82.2192 5.46724 82.4345 5.63656C82.6497 5.80589 82.8301 6.00758 82.9775 6.24209C83.1248 6.47685 83.2263 6.73494 83.2832 7.01625H82.8133C82.7721 6.81625 82.6949 6.63005 82.5812 6.45627ZM89.8405 11.4342V11.9239H85.3647V5.22339H89.6879V5.71304H85.8172V8.1911H89.4443V8.68069H85.8172V11.4342H89.8405ZM93.7895 11.9239H91.9162V5.22954H93.7895C94.8343 5.22954 95.6169 5.502 96.1379 6.04654C96.6583 6.59109 96.9187 7.41619 96.9187 8.52141C96.9187 10.7897 95.8756 11.9239 93.7895 11.9239ZM95.8884 6.45627C95.6848 6.21367 95.4121 6.02916 95.071 5.90269C94.7293 5.77621 94.2988 5.71304 93.7779 5.71304H92.3693V11.4342H93.7779C94.2948 11.4342 94.7241 11.369 95.0652 11.2382C95.4069 11.1078 95.679 10.9172 95.8832 10.6665C96.0868 10.4153 96.2301 10.1104 96.3131 9.75165C96.396 9.39237 96.4378 8.98239 96.4378 8.52141C96.4378 8.08081 96.3972 7.68721 96.316 7.34072C96.2348 6.99398 96.0926 6.69912 95.8884 6.45627ZM50.0025 21.6704H49.3237L47.6262 15.613L45.985 21.6704H45.3063L43.7051 14.9702H44.1854L45.6456 21.0282L47.2868 14.9702H47.9662L49.6631 21.0282L51.1349 14.9702H51.6158L50.0025 21.6704ZM57.8894 21.6704L57.1312 19.5169H54.0814C53.9723 19.855 53.8534 20.2133 53.7252 20.5907C53.597 20.9679 53.474 21.3278 53.3568 21.6704H52.8765C53.0801 21.0913 53.2808 20.5243 53.4792 19.9695C53.6771 19.4147 53.8737 18.863 54.0704 18.3143C54.2665 17.7656 54.4637 17.214 54.6615 16.6592C54.8594 16.1043 55.0601 15.5392 55.2643 14.9643H55.9036L58.433 21.6704H57.8894ZM55.5637 15.4047L54.2003 19.1313H57.0012L55.5637 15.4047ZM64.8343 17.8921C64.731 18.045 64.5987 18.1759 64.4386 18.2835C64.2779 18.392 64.0905 18.4702 63.8753 18.5192C63.9925 18.6172 64.0882 18.7111 64.1642 18.8008C64.2396 18.8904 64.3046 18.9865 64.3591 19.0885C64.4136 19.1904 64.463 19.3024 64.5065 19.4249C64.5494 19.5472 64.5999 19.6879 64.6561 19.847L65.2955 21.6704H64.7977L64.181 19.8898C64.1207 19.7188 64.0534 19.5575 63.9803 19.4066C63.9066 19.2556 63.8207 19.1243 63.7227 19.012C63.6247 18.8995 63.5127 18.8111 63.3862 18.7456C63.2598 18.6805 63.1112 18.6478 62.9418 18.6478H60.7745V21.6704H60.3219V14.9702H63.1112C63.3717 14.9702 63.6235 14.9957 63.8666 15.0467C64.1102 15.0979 64.3272 15.1886 64.5175 15.3192C64.7078 15.4496 64.8598 15.6302 64.9735 15.8605C65.086 16.0911 65.1429 16.386 65.1429 16.7449C65.1429 16.9692 65.1174 17.1782 65.0663 17.372C65.0158 17.5656 64.9381 17.7389 64.8343 17.8921ZM64.2628 15.7563C63.9931 15.5586 63.5904 15.4599 63.055 15.4599H60.7745V18.1582H62.9244C63.2302 18.1582 63.4924 18.1337 63.7111 18.0847C63.9298 18.0359 64.1102 17.9555 64.2518 17.8431C64.3933 17.7308 64.4978 17.5853 64.5656 17.4056C64.6335 17.226 64.6678 17.0059 64.6678 16.7449C64.6678 16.284 64.5326 15.9544 64.2628 15.7563ZM72.0848 21.1808V21.6704H67.609V14.9702H71.9322V15.4599H68.0616V17.9382H71.6886V18.4273H68.0616V21.1808H72.0848ZM78.6705 21.6704V18.3357H74.8509V21.6704H74.3984V14.9702H74.8509V17.8463H78.6705V14.9702H79.1288V21.6704H78.6705ZM86.999 19.7188C86.8551 20.1472 86.6544 20.5152 86.3956 20.823C86.1375 21.1313 85.83 21.3698 85.4738 21.5391C85.117 21.7082 84.7237 21.793 84.2938 21.793C83.8639 21.793 83.4694 21.7082 83.1109 21.5391C82.7529 21.3698 82.4443 21.132 82.1862 20.8262C81.9274 20.5201 81.7267 20.153 81.5834 19.7246C81.4401 19.2965 81.3687 18.8214 81.3687 18.2992C81.3687 17.7727 81.4407 17.2976 81.5863 16.8731C81.7319 16.4489 81.9344 16.087 82.1943 15.7873C82.4553 15.487 82.7634 15.2557 83.1196 15.0925C83.4764 14.9296 83.8674 14.8479 84.2938 14.8479C84.7161 14.8479 85.1066 14.9296 85.4651 15.0925C85.8236 15.2557 86.1317 15.4883 86.3904 15.79C86.6486 16.0924 86.8504 16.455 86.9955 16.8795C87.1411 17.3037 87.2136 17.7769 87.2136 18.2992C87.2136 18.8172 87.1417 19.2904 86.999 19.7188ZM86.5546 17.0263C86.4316 16.6592 86.2622 16.3501 86.0452 16.0994C85.8283 15.8483 85.5718 15.6586 85.2754 15.5299C84.9795 15.4018 84.6558 15.3373 84.3048 15.3373C83.9469 15.3373 83.6174 15.4028 83.318 15.5331C83.0175 15.664 82.7582 15.8547 82.54 16.1053C82.3207 16.3563 82.1502 16.6651 82.0278 17.0321C81.9048 17.3995 81.8439 17.8215 81.8439 18.2992C81.8439 18.7763 81.9042 19.2014 82.0249 19.5749C82.1455 19.9479 82.3144 20.2633 82.5313 20.5201C82.7483 20.7775 83.0065 20.9718 83.3064 21.1046C83.6063 21.2372 83.9335 21.3033 84.2886 21.3033C84.643 21.3033 84.9702 21.2372 85.2696 21.1046C85.5701 20.9718 85.8294 20.7775 86.0481 20.5201C86.2668 20.2633 86.4362 19.9479 86.5569 19.5749C86.6782 19.2014 86.7385 18.7763 86.7385 18.2992C86.7385 17.8176 86.677 17.3931 86.5546 17.0263ZM94.0708 20.0979C93.9989 20.4611 93.8742 20.7681 93.6972 21.0191C93.5203 21.2698 93.2784 21.4614 92.9726 21.594C92.6675 21.7265 92.2805 21.793 91.8129 21.793C91.4428 21.793 91.1272 21.7508 90.865 21.6672C90.6028 21.5839 90.3852 21.4707 90.2118 21.3278C90.0383 21.1852 89.9002 21.0179 89.7987 20.8262C89.6966 20.6346 89.6194 20.4304 89.5667 20.2143C89.5139 19.9979 89.4808 19.7737 89.4675 19.5413C89.4541 19.3085 89.4477 19.0821 89.4477 18.862V14.9702H89.9002V18.8436C89.9002 19.3534 89.9426 19.7687 90.0279 20.0886C90.1126 20.4093 90.2373 20.6591 90.4009 20.8382C90.5651 21.0179 90.7652 21.1401 91.0008 21.2053C91.2369 21.2708 91.5072 21.3033 91.8129 21.3033C92.1222 21.3033 92.3966 21.2708 92.6367 21.2053C92.8758 21.1401 93.0759 21.0169 93.236 20.8355C93.3967 20.6537 93.518 20.4039 93.6009 20.0859C93.6839 19.7675 93.7251 19.3534 93.7251 18.8436V14.9702H94.1782V18.862C94.1782 19.323 94.1422 19.7349 94.0708 20.0979ZM97.4675 17.3843C97.594 17.4882 97.7611 17.5799 97.9688 17.6595C98.1759 17.7389 98.434 17.8136 98.7433 17.8828C98.9248 17.9237 99.1117 17.9663 99.3037 18.0114C99.4963 18.0565 99.6837 18.1092 99.867 18.1705C100.05 18.2317 100.224 18.3072 100.39 18.3969C100.556 18.4866 100.701 18.5966 100.823 18.7275C100.945 18.8579 101.044 19.014 101.117 19.1956C101.191 19.3769 101.227 19.5923 101.227 19.8411C101.227 20.1266 101.172 20.3888 101.061 20.6272C100.95 20.8659 100.795 21.0718 100.597 21.2453C100.399 21.4185 100.163 21.5533 99.8896 21.6494C99.6158 21.7449 99.3188 21.793 98.9979 21.793C98.5797 21.793 98.2136 21.7449 97.9003 21.6494C97.5871 21.5533 97.3243 21.4166 97.1108 21.2389C96.8979 21.062 96.7348 20.8475 96.6217 20.5966C96.5086 20.3459 96.4424 20.0636 96.4239 19.7492H96.8706C96.9158 20.051 97.0011 20.302 97.1253 20.5017C97.25 20.7019 97.4037 20.861 97.5865 20.9788C97.7698 21.0977 97.9781 21.1808 98.2119 21.23C98.4451 21.2791 98.6945 21.3033 98.9585 21.3033C99.2341 21.3033 99.4824 21.2719 99.7028 21.2085C99.9233 21.1455 100.112 21.0536 100.268 20.9333C100.425 20.8127 100.545 20.6681 100.628 20.4988C100.711 20.3295 100.752 20.1388 100.752 19.9268C100.752 19.7024 100.716 19.5137 100.644 19.3605C100.573 19.2076 100.452 19.074 100.283 18.9598C100.113 18.8458 99.8896 18.7437 99.6123 18.6537C99.335 18.564 98.9904 18.4724 98.5797 18.3785C98.2397 18.2969 97.9491 18.203 97.7054 18.0972C97.4617 17.9909 97.261 17.8676 97.1026 17.7269C96.9443 17.5862 96.8271 17.425 96.7522 17.2434C96.6762 17.0621 96.6385 16.8508 96.6385 16.6102C96.6385 16.3492 96.6896 16.1102 96.7917 15.8944C96.8932 15.6782 97.0377 15.4924 97.2245 15.3373C97.4113 15.1824 97.6358 15.0621 97.8974 14.9764C98.1597 14.8908 98.4491 14.8479 98.7665 14.8479C99.0832 14.8479 99.3733 14.8876 99.6373 14.967C99.9018 15.0467 100.133 15.1619 100.331 15.3128C100.529 15.4637 100.689 15.6473 100.812 15.8637C100.934 16.0799 101.013 16.3247 101.046 16.5979H100.611C100.57 16.4185 100.502 16.2514 100.407 16.0962C100.313 15.9414 100.191 15.8079 100.042 15.6954C99.8931 15.5831 99.7162 15.4956 99.5102 15.4321C99.3048 15.3692 99.0699 15.3373 98.8059 15.3373C98.2513 15.3373 97.8319 15.4474 97.547 15.6679C97.2622 15.8882 97.1195 16.1901 97.1195 16.5734C97.1195 16.7489 97.1461 16.9018 97.1989 17.0321C97.2517 17.163 97.3411 17.2801 97.4675 17.3843ZM108 21.1808V21.6704H103.524V14.9702H107.847V15.4599H103.977V17.9382H107.604V18.4273H103.977V21.1808H108Z" fill="black"/>
</mask>
<g mask="url(#mask0_779_5198)">
<path d="M33.0784 2.12537H128.72V13.6024H33.0784V2.12537Z" fill="#FBCB5C"/>
<path d="M33.0784 13.6024H128.72V25.0794H33.0784V13.6024Z" fill="#393536"/>
</g>
</svg>
