<svg width="25" height="27" viewBox="0 0 25 27" fill="none" xmlns="http://www.w3.org/2000/svg">
<path d="M12 0C5.383 0 0 5.383 0 12C0 18.617 5.383 24 12 24C18.617 24 24 18.617 24 12C24 5.383 18.617 0 12 0ZM12 21C7.037 21 3 16.962 3 12C3 7.038 7.037 3 12 3C16.963 3 21 7.038 21 12C21 16.962 16.963 21 12 21ZM15 12C15 13.657 13.657 15 12 15C10.343 15 9 13.657 9 12C9 10.343 10.343 9 12 9C13.657 9 15 10.343 15 12Z" fill="#FA2424"/>
<g clip-path="url(#clip0_1437_1371)">
<g clip-path="url(#clip1_1437_1371)">
<rect x="16.8335" y="15.3335" width="2.33333" height="9.33333" fill="white"/>
<path d="M25 20C25 21.3845 24.5895 22.7378 23.8203 23.889C23.0511 25.0401 21.9579 25.9373 20.6788 26.4672C19.3997 26.997 17.9922 27.1356 16.6344 26.8655C15.2765 26.5954 14.0292 25.9287 13.0503 24.9497C12.0713 23.9708 11.4046 22.7235 11.1345 21.3656C10.8644 20.0078 11.003 18.6003 11.5328 17.3212C12.0627 16.0421 12.9599 14.9489 14.111 14.1797C15.2622 13.4105 16.6155 13 18 13C19.8559 13.002 21.6352 13.7401 22.9475 15.0525C24.2599 16.3648 24.998 18.1441 25 20ZM18.5833 15.9167H17.4167V21.75H18.5833V15.9167ZM18.5833 22.9167H17.4167V24.0833H18.5833V22.9167Z" fill="#FA1717"/>
</g>
</g>
<rect x="11.5833" y="13.5833" width="12.8333" height="12.8333" rx="6.41667" stroke="white" stroke-width="1.16667"/>
<defs>
<clipPath id="clip0_1437_1371">
<rect x="11" y="13" width="14" height="14" rx="7" fill="white"/>
</clipPath>
<clipPath id="clip1_1437_1371">
<rect width="14" height="14" fill="white" transform="translate(11 13)"/>
</clipPath>
</defs>
</svg>
