<svg width="24" height="24" viewBox="0 0 24 24" fill="none" xmlns="http://www.w3.org/2000/svg">
<g clip-path="url(#clip0_1437_947)">
<path d="M12 0C5.383 0 0 5.383 0 12C0 18.617 5.383 24 12 24C18.617 24 24 18.617 24 12C24 5.383 18.617 0 12 0ZM12 21C7.037 21 3 16.962 3 12C3 7.038 7.037 3 12 3C16.963 3 21 7.038 21 12C21 16.962 16.963 21 12 21ZM15 12C15 13.657 13.657 15 12 15C10.343 15 9 13.657 9 12C9 10.343 10.343 9 12 9C13.657 9 15 10.343 15 12Z" fill="#FA2424"/>
</g>
<defs>
<clipPath id="clip0_1437_947">
<rect width="24" height="24" fill="white"/>
</clipPath>
</defs>
</svg>
