<svg width="28" height="28" viewBox="0 0 28 28" fill="none" xmlns="http://www.w3.org/2000/svg">
<g id="shopping-bag" clip-path="url(#clip0_6368_7255)">
<g id="Group">
<path id="Vector" d="M23.2764 23.2794C28.4012 18.1545 28.4012 9.84548 23.2764 4.72062C18.1515 -0.404232 9.84246 -0.404232 4.71761 4.72062C-0.40725 9.84548 -0.40725 18.1545 4.71761 23.2794C9.84246 28.4042 18.1515 28.4042 23.2764 23.2794Z" fill="#46CC6B"/>
<path id="Vector_2" fill-rule="evenodd" clip-rule="evenodd" d="M26.224 18.7877C24.4005 23.4394 19.9984 26.7968 14.7763 27.1015L7.31081 19.636C7.28319 19.6124 7.25667 19.5866 7.23129 19.5587C7.06843 19.3803 6.99608 19.1648 7.01834 18.9242L7.80863 10.3258C7.82859 10.1071 8.01059 9.94114 8.23021 9.94114H10.206L10.8834 10.6185V10.5628L10.206 9.88535V8.67824C10.206 8.004 10.4817 7.39122 10.9255 6.94721C11.3458 6.52694 11.9174 6.2576 12.5491 6.23004H12.764C13.3957 6.2576 13.9672 6.52694 14.3875 6.94721C14.4153 6.97494 14.4424 7.00338 14.4688 7.03242L26.224 18.7877Z" fill="#179C5F"/>
<path id="Vector_3" fill-rule="evenodd" clip-rule="evenodd" d="M15.5949 18.3636L16.6781 19.3583C16.8299 19.4981 17.0648 19.4906 17.2077 19.3434L19.1408 17.4928C19.2915 17.3475 19.2963 17.1073 19.1509 16.9563C19.0056 16.8054 18.7657 16.8006 18.6144 16.9459L16.9301 18.5587L16.109 17.8047C15.9547 17.6628 15.7144 17.6729 15.5727 17.8271C15.4308 17.9813 15.4406 18.2216 15.5949 18.3636ZM12.7639 6.23004H12.549C11.9173 6.2576 11.3458 6.52694 10.9255 6.94721C10.4816 7.39117 10.2059 8.004 10.2059 8.67824V9.88535H10.8833V8.67824C10.8833 8.19086 11.083 7.74762 11.4044 7.42611C11.7262 7.10455 12.1693 6.90489 12.6565 6.90489C13.1441 6.90489 13.5871 7.1046 13.9085 7.42611C14.2304 7.74762 14.43 8.19086 14.43 8.67824V9.88535H15.1071V8.67824C15.1071 8.004 14.8317 7.39122 14.3875 6.94721C13.9671 6.52694 13.3957 6.2576 12.7639 6.23004ZM17.3647 14.5284C19.3645 14.5284 20.9856 16.1495 20.9856 18.1491C20.9856 20.1488 19.3645 21.7699 17.3647 21.7699C15.3651 21.7699 13.744 20.1488 13.744 18.1491C13.744 16.1495 15.3651 14.5284 17.3647 14.5284ZM8.23016 9.94114H10.2059V11.0142C10.2059 11.2012 10.3577 11.3528 10.5448 11.3528C10.7318 11.3528 10.8833 11.2012 10.8833 11.0142V9.94114H14.43V11.0142C14.43 11.2012 14.5816 11.3528 14.7686 11.3528C14.9556 11.3528 15.1071 11.2012 15.1071 11.0142V9.94114H17.0831C17.3028 9.94114 17.4845 10.1071 17.5048 10.3258L17.8233 13.7915C17.6724 13.7757 17.5197 13.7676 17.3647 13.7676C14.9449 13.7676 12.9833 15.7292 12.9833 18.1491C12.9833 18.7443 13.1022 19.3116 13.317 19.8291H7.84379C7.60191 19.8291 7.39399 19.7372 7.23129 19.5587C7.06843 19.3803 6.99608 19.1648 7.01834 18.9242L7.80863 10.3258C7.82853 10.1071 8.01053 9.94114 8.23016 9.94114Z" fill="white"/>
</g>
</g>
<defs>
<clipPath id="clip0_6368_7255">
<rect width="28" height="28" fill="white"/>
</clipPath>
</defs>
</svg>
