<svg width="15" height="10" viewBox="0 0 15 10" fill="none" xmlns="http://www.w3.org/2000/svg">
<g id="shape">
<path d="M10.7421 0.170092C10.5774 0.0397183 10.3675 -0.0194759 10.1589 0.00566556C9.95041 0.030807 9.76056 0.138201 9.63159 0.303978L4.11862 7.39209L1.41726 4.10006C1.24474 3.8704 0.960866 3.75289 0.6765 3.7934C0.392134 3.83391 0.152376 4.02603 0.0508494 4.29472C-0.0506769 4.56342 0.00213195 4.86608 0.188654 5.08452L3.47281 9.16412C3.62295 9.34919 3.84881 9.45633 4.08712 9.45552C4.34049 9.46683 4.5838 9.35543 4.7408 9.15624L10.9075 1.28056C11.0345 1.11197 11.0885 0.899454 11.0574 0.690683C11.0263 0.481912 10.9127 0.294359 10.7421 0.170092Z" fill="#E83131"/>
<path d="M14.6799 0.170092C14.5152 0.0397183 14.3053 -0.0194759 14.0968 0.00566556C13.8882 0.030807 13.6984 0.138201 13.5694 0.303978L8.05646 7.39209L7.57604 6.80141L6.58371 8.07727L7.45003 9.15624C7.60016 9.34131 7.82602 9.44845 8.06433 9.44764C8.30397 9.44654 8.53006 9.33639 8.67864 9.14836L14.8453 1.27269C14.9698 1.10462 15.0223 0.893928 14.9913 0.687086C14.9603 0.480245 14.8482 0.29424 14.6799 0.170092Z" fill="#E83131"/>
<path d="M4.5124 5.56493L5.52836 4.28907L5.37085 4.10005C5.24521 3.92599 5.05395 3.81075 4.84135 3.78102C4.62874 3.75128 4.41321 3.80962 4.24463 3.94254C4.08122 4.07381 3.97689 4.2648 3.95471 4.47322C3.93254 4.68164 3.99436 4.89031 4.12649 5.05301L4.5124 5.56493Z" fill="#E83131"/>
</g>
</svg>
