<svg width="26" height="22" viewBox="0 0 26 22" fill="none" xmlns="http://www.w3.org/2000/svg">
<path d="M25.1394 16.3046C24.842 16.0072 24.3597 16.0072 24.0622 16.3046L23.617 16.7499V6.34486C23.617 5.92419 23.2759 5.58314 22.8552 5.58314H19.5905C18.9931 2.40901 16.2005 0 12.8554 0C9.51039 0 6.71782 2.40901 6.12038 5.58314H3.14597C2.7253 5.58314 2.38425 5.92419 2.38425 6.34486V16.7498L1.939 16.3046C1.64163 16.0072 1.15931 16.0071 0.861779 16.3046C0.564303 16.602 0.564303 17.0843 0.861779 17.3818L2.60718 19.1273C2.6248 19.1449 2.64329 19.1616 2.66253 19.1774C2.66715 19.1812 2.67213 19.1844 2.67685 19.1881C2.69173 19.1998 2.70671 19.2113 2.72246 19.2219C2.72687 19.2248 2.73154 19.2273 2.73601 19.2301C2.75252 19.2407 2.76917 19.251 2.78649 19.2603C2.78969 19.262 2.79309 19.2634 2.79634 19.265C2.81518 19.2748 2.83428 19.2841 2.85398 19.2923C2.85611 19.2932 2.8584 19.2938 2.86053 19.2946C2.8813 19.303 2.90237 19.3108 2.92396 19.3174C2.92639 19.3182 2.92893 19.3186 2.93137 19.3193C2.9526 19.3255 2.97403 19.3311 2.99596 19.3355C3.00216 19.3367 3.00851 19.3373 3.0147 19.3384C3.03293 19.3416 3.05121 19.3448 3.06985 19.3466C3.09499 19.3491 3.12038 19.3504 3.14587 19.3504C3.17136 19.3504 3.19675 19.3491 3.22189 19.3466C3.24058 19.3448 3.25881 19.3416 3.27704 19.3384C3.28323 19.3373 3.28958 19.3367 3.29578 19.3355C3.31771 19.3312 3.33919 19.3255 3.36037 19.3193C3.36281 19.3186 3.36535 19.3181 3.36778 19.3174C3.38942 19.3108 3.41049 19.3031 3.43121 19.2946C3.43339 19.2938 3.43563 19.2931 3.43776 19.2923C3.45746 19.2841 3.47656 19.2748 3.4954 19.265C3.49865 19.2634 3.502 19.262 3.50525 19.2603C3.52256 19.251 3.53922 19.2407 3.55572 19.2301C3.56019 19.2273 3.56487 19.2248 3.56928 19.2219C3.58503 19.2113 3.60001 19.1998 3.61488 19.1881C3.61956 19.1844 3.62458 19.1812 3.62921 19.1774C3.64845 19.1616 3.66694 19.1449 3.68456 19.1273L5.43001 17.3818C5.72749 17.0844 5.72749 16.6021 5.43001 16.3046C5.13263 16.0072 4.65031 16.0071 4.35279 16.3046L3.90749 16.7498V7.10658H6.00673C6.13303 10.563 8.83047 13.374 12.2389 13.6794V16.7499L11.7936 16.3046C11.4962 16.0072 11.0139 16.0072 10.7164 16.3046C10.4189 16.6021 10.4189 17.0844 10.7164 17.3819L12.4618 19.1273C12.4796 19.1451 12.4984 19.1619 12.5179 19.1779C12.5265 19.1851 12.5357 19.1912 12.5446 19.198C12.5555 19.2062 12.5662 19.2146 12.5777 19.2222C12.5885 19.2295 12.5998 19.2357 12.6108 19.2424C12.621 19.2485 12.631 19.2549 12.6416 19.2605C12.6529 19.2666 12.6646 19.2717 12.6762 19.2772C12.6871 19.2824 12.6979 19.2878 12.7091 19.2925C12.7204 19.2972 12.7319 19.301 12.7434 19.3051C12.7554 19.3094 12.7672 19.3139 12.7795 19.3176C12.791 19.3211 12.8026 19.3236 12.8142 19.3266C12.8267 19.3297 12.839 19.3332 12.8518 19.3358C12.8651 19.3384 12.8786 19.34 12.892 19.3419C12.9031 19.3435 12.9142 19.3456 12.9255 19.3467C12.9505 19.3492 12.9755 19.3506 13.0006 19.3506C13.0257 19.3506 13.0508 19.3492 13.0758 19.3467C13.0871 19.3456 13.0981 19.3435 13.1093 19.3419C13.1227 19.34 13.1362 19.3384 13.1495 19.3358C13.1622 19.3332 13.1746 19.3297 13.1871 19.3266C13.1987 19.3237 13.2103 19.3211 13.2218 19.3176C13.234 19.3139 13.2459 19.3094 13.2578 19.3051C13.2693 19.3009 13.2808 19.2972 13.2922 19.2925C13.3034 19.2878 13.3141 19.2824 13.3251 19.2772C13.3367 19.2717 13.3483 19.2666 13.3597 19.2605C13.3702 19.2549 13.3802 19.2485 13.3904 19.2424C13.4015 19.2357 13.4128 19.2295 13.4236 19.2222C13.435 19.2146 13.4457 19.2061 13.4566 19.198C13.4656 19.1912 13.4747 19.1851 13.4834 19.1779C13.5029 19.1619 13.5216 19.1451 13.5394 19.1273L15.2849 17.3819C15.5823 17.0844 15.5823 16.6021 15.2849 16.3046C14.9874 16.0072 14.5051 16.0072 14.2077 16.3046L13.7623 16.7499V13.6473C17.0326 13.213 19.5815 10.4642 19.704 7.10658H22.0936V16.7499L21.6483 16.3046C21.3508 16.0072 20.8685 16.0072 20.571 16.3046C20.2736 16.6021 20.2736 17.0844 20.571 17.3819L22.3166 19.1273C22.3342 19.1449 22.3527 19.1616 22.372 19.1775C22.3764 19.1811 22.3812 19.1843 22.3858 19.1878C22.4008 19.1996 22.4159 19.2113 22.4318 19.222C22.4361 19.2248 22.4406 19.2272 22.445 19.2299C22.4616 19.2406 22.4784 19.2511 22.4959 19.2604C22.4991 19.2621 22.5025 19.2635 22.5057 19.2651C22.5245 19.2748 22.5436 19.2842 22.5633 19.2924C22.5656 19.2933 22.568 19.294 22.5703 19.2949C22.5909 19.3032 22.6118 19.3109 22.6333 19.3175C22.6359 19.3183 22.6386 19.3188 22.6412 19.3195C22.6623 19.3257 22.6836 19.3313 22.7053 19.3356C22.7117 19.3369 22.7183 19.3375 22.7248 19.3386C22.7428 19.3417 22.7608 19.3449 22.7792 19.3467C22.8044 19.3492 22.8298 19.3506 22.8553 19.3506C22.8808 19.3506 22.9062 19.3492 22.9313 19.3467C22.95 19.3449 22.9682 19.3417 22.9865 19.3385C22.9927 19.3374 22.999 19.3368 23.0052 19.3356C23.0271 19.3313 23.0486 19.3256 23.0698 19.3194C23.0722 19.3187 23.0748 19.3182 23.0772 19.3175C23.0988 19.3109 23.1199 19.3032 23.1406 19.2947C23.1428 19.2939 23.145 19.2932 23.1472 19.2924C23.1669 19.2842 23.186 19.2749 23.2048 19.2651C23.2081 19.2635 23.2114 19.2621 23.2147 19.2604C23.232 19.2511 23.2486 19.2408 23.2651 19.2302C23.2696 19.2274 23.2743 19.2249 23.2787 19.222C23.2944 19.2114 23.3094 19.1999 23.3243 19.1882C23.329 19.1845 23.334 19.1813 23.3386 19.1775C23.3579 19.1617 23.3764 19.145 23.394 19.1274L25.1394 17.3819C25.4369 17.0844 25.4369 16.6021 25.1394 16.3046ZM12.8554 12.1839C9.91638 12.1839 7.52524 9.79281 7.52524 6.85369C7.52524 3.91457 9.91638 1.52344 12.8554 1.52344C15.7946 1.52344 18.1857 3.91457 18.1857 6.85369C18.1857 9.79281 15.7946 12.1839 12.8554 12.1839Z" fill="#092839"/>
<path d="M13.7871 6.17981C13.5124 6.02801 13.2203 5.91235 12.9312 5.79235C12.7635 5.72296 12.603 5.64199 12.4613 5.52923C12.1823 5.30658 12.2358 4.94515 12.5625 4.80202C12.655 4.76154 12.7519 4.74853 12.8502 4.74275C13.229 4.72251 13.589 4.7919 13.9316 4.95672C14.1022 5.03912 14.1586 5.0131 14.2164 4.83528C14.2772 4.64733 14.3278 4.45649 14.3841 4.2671C14.4217 4.13988 14.3755 4.05603 14.2555 4.00253C14.0357 3.90567 13.8102 3.83628 13.5731 3.79869C13.2637 3.75098 13.2637 3.74953 13.2623 3.4387C13.2608 3.00064 13.2608 3.00064 12.8213 3.00064C12.7577 3.00064 12.6941 2.9992 12.6305 3.00064C12.4252 3.00643 12.3905 3.04257 12.3847 3.24931C12.3818 3.34184 12.3847 3.43436 12.3832 3.52833C12.3818 3.80302 12.3804 3.79869 12.1172 3.8941C11.4811 4.12542 11.0879 4.55914 11.0459 5.25309C11.0084 5.86753 11.3293 6.28245 11.8339 6.58461C12.1447 6.77111 12.4888 6.88099 12.8184 7.02701C12.9471 7.08339 13.07 7.14845 13.177 7.23808C13.4936 7.49976 13.4357 7.93493 13.0598 8.09974C12.8589 8.18793 12.6464 8.20961 12.4281 8.18215C12.0912 8.14022 11.7688 8.05203 11.4652 7.89445C11.2874 7.80192 11.2353 7.8265 11.1746 8.01878C11.1226 8.18504 11.0763 8.35274 11.03 8.52045C10.9679 8.74598 10.991 8.79947 11.2064 8.90501C11.4811 9.03802 11.7746 9.10597 12.0739 9.15368C12.3081 9.19127 12.3153 9.20139 12.3182 9.44427C12.3196 9.55415 12.3196 9.66547 12.3211 9.77534C12.3225 9.91413 12.389 9.99509 12.5322 9.99799C12.6941 10.0009 12.8574 10.0009 13.0194 9.99654C13.1524 9.99365 13.2203 9.92136 13.2203 9.78691C13.2203 9.63655 13.2276 9.48475 13.2218 9.33439C13.2145 9.18115 13.281 9.10308 13.4285 9.0626C13.7683 8.97007 14.0574 8.78791 14.28 8.51611C14.8988 7.76433 14.6632 6.66413 13.7871 6.17981Z" fill="#092839"/>
</svg>
