<svg width="26" height="22" viewBox="0 0 26 22" fill="none" xmlns="http://www.w3.org/2000/svg">
<path d="M1 17.0979V4.90211C1 3.20435 1 2.35546 1.72322 2.07704C2.44645 1.79863 3.36984 2.29203 5.21663 3.27883L7.32495 4.40538C8.1461 4.84415 8.55667 5.06353 8.77834 5.38576C9 5.70798 9 6.08542 9 6.8403V15.1597C9 15.9146 9 16.292 8.77834 16.6142C8.55667 16.9365 8.1461 17.1559 7.32495 17.5946L5.21664 18.7212C3.36984 19.708 2.44645 20.2014 1.72322 19.923C1 19.6445 1 18.7957 1 17.0979Z" stroke="#092839" stroke-width="1.5"/>
<path d="M25 17.0979V4.90211C25 3.20435 25 2.35546 24.2768 2.07704C23.5536 1.79863 22.6302 2.29203 20.7834 3.27883L18.675 4.40538C17.8539 4.84415 17.4433 5.06353 17.2217 5.38576C17 5.70798 17 6.08542 17 6.8403V15.1597C17 15.9146 17 16.292 17.2217 16.6142C17.4433 16.9365 17.8539 17.1559 18.675 17.5946L20.7834 18.7212C22.6302 19.708 23.5536 20.2014 24.2768 19.923C25 19.6445 25 18.7957 25 17.0979Z" stroke="#092839" stroke-width="1.5"/>
<path d="M13 13V9" stroke="#092839" stroke-width="1.5" stroke-linecap="round"/>
<path d="M13 5V1" stroke="#092839" stroke-width="1.5" stroke-linecap="round"/>
<path d="M13 21V17" stroke="#092839" stroke-width="1.5" stroke-linecap="round"/>
<path d="M5.78705 11.1798C5.51236 11.028 5.22033 10.9123 4.93118 10.7924C4.76347 10.723 4.603 10.642 4.46132 10.5292C4.18229 10.3066 4.23578 9.94515 4.56252 9.80202C4.65505 9.76154 4.75191 9.74853 4.85022 9.74275C5.229 9.72251 5.58899 9.7919 5.93163 9.95672C6.10222 10.0391 6.15861 10.0131 6.21644 9.83528C6.27716 9.64733 6.32776 9.45649 6.38414 9.2671C6.42173 9.13988 6.37547 9.05603 6.25547 9.00253C6.03572 8.90567 5.81018 8.83628 5.57308 8.79869C5.2637 8.75098 5.2637 8.74953 5.26225 8.4387C5.26081 8.00064 5.26081 8.00064 4.8213 8.00064C4.75769 8.00064 4.69408 7.9992 4.63047 8.00064C4.42517 8.00643 4.39048 8.04257 4.38469 8.24931C4.3818 8.34184 4.38469 8.43436 4.38325 8.52833C4.3818 8.80302 4.38036 8.79869 4.11723 8.8941C3.48111 9.12542 3.08787 9.55914 3.04595 10.2531C3.00836 10.8675 3.32931 11.2825 3.83387 11.5846C4.1447 11.7711 4.48879 11.881 4.81841 12.027C4.94708 12.0834 5.06997 12.1484 5.17695 12.2381C5.49357 12.4998 5.43574 12.9349 5.05985 13.0997C4.85889 13.1879 4.64637 13.2096 4.42807 13.1821C4.09121 13.1402 3.76881 13.052 3.46521 12.8944C3.28738 12.8019 3.23534 12.8265 3.17462 13.0188C3.12257 13.185 3.07631 13.3527 3.03004 13.5204C2.96788 13.746 2.99101 13.7995 3.20642 13.905C3.48111 14.038 3.77459 14.106 4.07386 14.1537C4.30807 14.1913 4.3153 14.2014 4.31819 14.4443C4.31964 14.5541 4.31964 14.6655 4.32108 14.7753C4.32253 14.9141 4.38903 14.9951 4.53216 14.998C4.69408 15.0009 4.85745 15.0009 5.01937 14.9965C5.15238 14.9936 5.22033 14.9214 5.22033 14.7869C5.22033 14.6366 5.22755 14.4848 5.22177 14.3344C5.21454 14.1811 5.28105 14.1031 5.42851 14.0626C5.76826 13.9701 6.0574 13.7879 6.28005 13.5161C6.89882 12.7643 6.66317 11.6641 5.78705 11.1798Z" fill="#092839"/>
<path d="M22.3052 10.7255C22.078 10.5954 21.8365 10.4963 21.5973 10.3934C21.4586 10.334 21.3259 10.2646 21.2087 10.1679C20.9779 9.97707 21.0221 9.66727 21.2924 9.54459C21.3689 9.50989 21.449 9.49874 21.5303 9.49379C21.8436 9.47644 22.1414 9.53592 22.4248 9.67719C22.5659 9.74782 22.6125 9.72552 22.6604 9.57309C22.7106 9.412 22.7524 9.24842 22.7991 9.08609C22.8302 8.97704 22.7919 8.90517 22.6927 8.85932C22.5109 8.77629 22.3244 8.71681 22.1282 8.68459C21.8723 8.64369 21.8723 8.64246 21.8711 8.37603C21.87 8.00055 21.87 8.00055 21.5064 8.00055C21.4538 8.00055 21.4012 7.99931 21.3486 8.00055C21.1788 8.00551 21.1501 8.03649 21.1453 8.21369C21.1429 8.293 21.1453 8.37231 21.1441 8.45286C21.1429 8.68831 21.1417 8.68459 20.9241 8.76638C20.3979 8.96465 20.0727 9.33641 20.038 9.93122C20.0069 10.4579 20.2724 10.8135 20.6897 11.0725C20.9468 11.2324 21.2314 11.3266 21.504 11.4517C21.6105 11.5 21.7121 11.5558 21.8006 11.6326C22.0625 11.8569 22.0146 12.2299 21.7037 12.3712C21.5375 12.4468 21.3617 12.4654 21.1812 12.4418C20.9026 12.4059 20.6359 12.3303 20.3848 12.1952C20.2377 12.1159 20.1947 12.137 20.1444 12.3018C20.1014 12.4443 20.0631 12.5881 20.0248 12.7318C19.9734 12.9251 19.9926 12.971 20.1707 13.0614C20.3979 13.1754 20.6407 13.2337 20.8882 13.2746C21.0819 13.3068 21.0879 13.3155 21.0903 13.5237C21.0915 13.6178 21.0915 13.7133 21.0927 13.8074C21.0939 13.9264 21.1489 13.9958 21.2673 13.9983C21.4012 14.0008 21.5363 14.0008 21.6703 13.997C21.7803 13.9946 21.8365 13.9326 21.8365 13.8173C21.8365 13.6885 21.8425 13.5584 21.8377 13.4295C21.8317 13.2981 21.8867 13.2312 22.0087 13.1965C22.2897 13.1172 22.5288 12.9611 22.713 12.7281C23.2248 12.0837 23.0299 11.1407 22.3052 10.7255Z" fill="#092839"/>
</svg>
