<svg width="25" height="24" viewBox="0 0 25 24" fill="none" xmlns="http://www.w3.org/2000/svg">
<path d="M2.54688 17.5C2.54688 16.5654 2.54688 16.0981 2.74784 15.75C2.87949 15.522 3.06885 15.3326 3.29688 15.201C3.64495 15 4.11226 15 5.04688 15C5.98149 15 6.4488 15 6.79688 15.201C7.0249 15.3326 7.21426 15.522 7.34591 15.75C7.54687 16.0981 7.54688 16.5654 7.54688 17.5C7.54688 18.4346 7.54687 18.9019 7.34591 19.25C7.21426 19.478 7.0249 19.6674 6.79688 19.799C6.4488 20 5.98149 20 5.04688 20C4.11226 20 3.64495 20 3.29688 19.799C3.06885 19.6674 2.87949 19.478 2.74784 19.25C2.54688 18.9019 2.54688 18.4346 2.54688 17.5Z" stroke="#1C274C" stroke-width="1.5"/>
<path d="M10.0469 17.5C10.0469 16.5654 10.0469 16.0981 10.2478 15.75C10.3795 15.522 10.5688 15.3326 10.7969 15.201C11.145 15 11.6123 15 12.5469 15C13.4815 15 13.9488 15 14.2969 15.201C14.5249 15.3326 14.7143 15.522 14.8459 15.75C15.0469 16.0981 15.0469 16.5654 15.0469 17.5C15.0469 18.4346 15.0469 18.9019 14.8459 19.25C14.7143 19.478 14.5249 19.6674 14.2969 19.799C13.9488 20 13.4815 20 12.5469 20C11.6123 20 11.145 20 10.7969 19.799C10.5688 19.6674 10.3795 19.478 10.2478 19.25C10.0469 18.9019 10.0469 18.4346 10.0469 17.5Z" stroke="#1C274C" stroke-width="1.5"/>
<path d="M17.5469 17.5C17.5469 16.5654 17.5469 16.0981 17.7478 15.75C17.8795 15.522 18.0688 15.3326 18.2969 15.201C18.645 15 19.1123 15 20.0469 15C20.9815 15 21.4488 15 21.7969 15.201C22.0249 15.3326 22.2143 15.522 22.3459 15.75C22.5469 16.0981 22.5469 16.5654 22.5469 17.5C22.5469 18.4346 22.5469 18.9019 22.3459 19.25C22.2143 19.478 22.0249 19.6674 21.7969 19.799C21.4488 20 20.9815 20 20.0469 20C19.1123 20 18.645 20 18.2969 19.799C18.0688 19.6674 17.8795 19.478 17.7478 19.25C17.5469 18.9019 17.5469 18.4346 17.5469 17.5Z" stroke="#1C274C" stroke-width="1.5"/>
<path d="M5.04688 15V9C5.04688 6.64298 5.04688 5.46447 5.77911 4.73223C6.51134 4 7.68985 4 10.0469 4H15.0469C17.4039 4 18.5824 4 19.3146 4.73223C20.0469 5.46447 20.0469 6.64298 20.0469 9V12M20.0469 12L22.0469 10M20.0469 12L18.0469 10" stroke="#1C274C" stroke-width="1.5" stroke-linecap="round" stroke-linejoin="round"/>
</svg>
