<svg width="17" height="17" viewBox="0 0 17 17" fill="none" xmlns="http://www.w3.org/2000/svg">
<path d="M6 6H5C3.11438 6 2.17157 6 1.58579 6.58579C1 7.17157 1 8.11438 1 10V12C1 13.8856 1 14.8284 1.58579 15.4142C2.17157 16 3.11438 16 5 16H7C8.88562 16 9.82843 16 10.4142 15.4142C11 14.8284 11 13.8856 11 12V11" stroke="#092839" stroke-width="1.5"/>
<path d="M6 5C6 3.11438 6 2.17157 6.58579 1.58579C7.17157 1 8.11438 1 10 1H12C13.8856 1 14.8284 1 15.4142 1.58579C16 2.17157 16 3.11438 16 5V7C16 8.88562 16 9.82843 15.4142 10.4142C14.8284 11 13.8856 11 12 11H10C8.11438 11 7.17157 11 6.58579 10.4142C6 9.82843 6 8.88562 6 7V5Z" stroke="#092839" stroke-width="1.5"/>
</svg>
